<?xml version="1.0" encoding="utf-8"?>
<!-- Generator: Adobe Illustrator 25.2.1, SVG Export Plug-In . SVG Version: 6.00 Build 0)  -->
<svg version="1.1" id="Layer_1" xmlns="http://www.w3.org/2000/svg" xmlns:xlink="http://www.w3.org/1999/xlink" x="0px" y="0px"
	 viewBox="0 0 500 500" style="enable-background:new 0 0 500 500;" xml:space="preserve">
<style type="text/css">
	.st0{fill:#EBEBEB;}
	.st1{fill:#E6E6E6;}
	.st2{fill:#F0F0F0;}
	.st3{fill:#FAFAFA;}
	.st4{fill:#FFFFFF;}
	.st5{opacity:0.6;fill:#EBEBEB;enable-background:new    ;}
	.st6{fill:#E0E0E0;}
	.st7{fill:#F5F5F5;}
	.st8{fill:#407BFF;}
	.st9{opacity:5.000000e-02;fill:#407BFF;enable-background:new    ;}
	.st10{fill:#263238;}
	.st11{opacity:0.7;fill:#FFFFFF;enable-background:new    ;}
	.st12{opacity:0.2;fill:#263238;enable-background:new    ;}
	.st13{opacity:0.3;fill:#263238;enable-background:new    ;}
	.st14{opacity:0.3;fill:#407BFF;enable-background:new    ;}
	.st15{fill:#B55B52;}
	.st16{opacity:0.2;enable-background:new    ;}
	.st17{opacity:0.2;}
	.st18{opacity:0.4;enable-background:new    ;}
	.st19{fill:#A02724;}
</style>
<g id="freepik--background-complete--inject-54">
	
		<image style="overflow:visible;opacity:0.6;" width="542" height="385" xlink:href="67959B51.png"  transform="matrix(1 0 0 1 -15 36)">
	</image>
	<g>
		<g>
			<rect y="382.4" class="st0" width="500" height="0.2"/>
			<rect x="52.5" y="389.2" class="st0" width="37" height="0.2"/>
			<rect x="169" y="394.6" class="st0" width="71" height="0.2"/>
			<rect x="94.9" y="389.3" class="st0" width="50.8" height="0.2"/>
			<rect x="406.8" y="396.8" class="st0" width="48.7" height="0.2"/>
			<rect x="370.4" y="396.8" class="st0" width="32" height="0.2"/>
			<rect x="277.2" y="392.6" class="st0" width="62" height="0.2"/>
			<path class="st0" d="M237,337.8H43.9c-3.1,0-5.7-2.6-5.7-5.7V60.7c0-3.1,2.6-5.7,5.7-5.7H237c3.2,0,5.7,2.6,5.7,5.7c0,0,0,0,0,0
				v271.4C242.7,335.2,240.2,337.8,237,337.8z M43.9,55.2c-3,0-5.5,2.4-5.5,5.5v271.4c0,3,2.4,5.5,5.5,5.5H237c3,0,5.5-2.4,5.5-5.5
				V60.7c0-3-2.4-5.5-5.5-5.5H43.9z"/>
			<path class="st0" d="M453.3,337.8H260.2c-3.2,0-5.7-2.6-5.7-5.7V60.7c0-3.1,2.6-5.7,5.7-5.7h193.1c3.1,0,5.7,2.5,5.7,5.7v271.4
				C459,335.2,456.5,337.8,453.3,337.8z M260.2,55.2c-3,0-5.5,2.4-5.5,5.5v271.4c0,3,2.4,5.5,5.5,5.5h193.1c3,0,5.5-2.4,5.5-5.5
				V60.7c0-3-2.4-5.5-5.5-5.5H260.2z"/>
			<rect x="203.4" y="72.1" class="st1" width="240.5" height="107.8"/>
			<rect x="198.4" y="72.1" class="st2" width="243.1" height="107.8"/>
			<rect x="203.4" y="179.8" class="st1" width="240.5" height="9.3"/>
			<rect x="190" y="179.8" class="st2" width="243.1" height="9.3"/>
			<rect x="205.4" y="79.1" class="st3" width="229.1" height="93.7"/>
			<polygon class="st4" points="421.5,172.8 380.3,79.1 360.8,79.1 402.1,172.8 			"/>
			<path class="st2" d="M431.3,165.8c0.3,0,0.5-0.2,0.5-0.5V83.7c0-0.3-0.2-0.5-0.5-0.5s-0.5,0.2-0.5,0.5v81.6
				C430.8,165.6,431,165.8,431.3,165.8z"/>
			<polygon class="st4" points="397.9,172.8 356.6,79.1 349,79.1 390.3,172.8 			"/>
			<rect x="205.4" y="79.1" class="st1" width="0.9" height="93.7"/>
			<polygon class="st5" points="196.8,89.7 437.2,89.7 437.9,81.8 197.4,81.8 			"/>
			<polygon class="st5" points="196.8,102.6 437.2,102.6 437.9,94.7 197.4,94.7 			"/>
			<polygon class="st5" points="196.8,115.5 437.2,115.5 437.9,107.6 197.4,107.6 			"/>
			<polygon class="st5" points="196.8,128.4 437.2,128.4 437.9,120.5 197.4,120.5 			"/>
			<polygon class="st5" points="196.8,141.3 437.2,141.3 437.9,133.4 197.4,133.4 			"/>
			<polygon class="st5" points="196.8,154.2 437.2,154.2 437.9,146.3 197.4,146.3 			"/>
			<rect x="132.4" y="221.4" class="st6" width="18.6" height="157.3"/>
			<rect x="66.3" y="378.7" class="st2" width="81.1" height="3.7"/>
			<rect x="62.7" y="221.4" class="st7" width="69.6" height="157.3"/>
			<rect x="65.4" y="252.9" class="st4" width="64.4" height="30.2"/>
			<circle class="st7" cx="97.6" cy="260.6" r="4.2"/>
			<rect x="65.4" y="224.6" class="st2" width="64.4" height="22.3"/>
			<rect x="65.4" y="289.2" class="st2" width="64.4" height="82.3"/>
			<rect x="65.4" y="224.6" class="st6" width="13.6" height="22.3"/>
			<rect x="65.4" y="289.2" class="st6" width="13.6" height="82.3"/>
			<rect x="133.5" y="246.3" class="st7" width="70.7" height="137.5"/>
			<rect x="133.5" y="246.3" class="st2" width="5.8" height="137.5"/>
			<rect x="198.8" y="250.2" class="st1" width="162.8" height="22.1"/>
			<rect x="198.8" y="295.6" class="st2" width="162.8" height="22.1"/>
			<rect x="133.5" y="246.3" class="st2" width="220.1" height="10.3"/>
			<rect x="353.7" y="246.3" class="st7" width="70.7" height="137.5"/>
			<rect x="353.7" y="246.3" class="st2" width="5.8" height="137.5"/>
			<polygon class="st2" points="274.1,246.3 289.4,246.3 285.6,216.6 270.4,216.6 			"/>
			<polygon class="st7" points="270.7,246.3 286,246.3 282.3,216.6 267,216.6 			"/>
			<polygon class="st2" points="268.9,231.4 284.1,231.4 282.3,216.6 267,216.6 			"/>
			<path class="st2" d="M324.9,227.9H217.1c-0.8,0-1.5-0.7-1.5-1.5c0-0.1,0-0.1,0-0.2l8.3-66.5c0.1-0.7,0.7-1.3,1.5-1.3h107.9
				c0.8,0,1.5,0.7,1.5,1.5c0,0.1,0,0.1,0,0.2l-8.3,66.5C326.3,227.3,325.7,227.9,324.9,227.9z"/>
			<path class="st7" d="M323.3,227.9H215.4c-0.8,0-1.5-0.7-1.5-1.5c0-0.1,0-0.1,0-0.2l8.3-66.5c0.1-0.7,0.7-1.3,1.5-1.3h107.8
				c0.8,0,1.5,0.7,1.5,1.5c0,0.1,0,0.1,0,0.2l-8.3,66.5C324.7,227.3,324.1,227.9,323.3,227.9z"/>
			<path class="st1" d="M217.4,224.2l7.8-62.2c0-0.2,0.2-0.4,0.4-0.4h103.6c0.2,0,0.4,0.2,0.4,0.4c0,0,0,0,0,0l-7.8,62.2
				c0,0.2-0.2,0.4-0.4,0.4H217.9c-0.2,0-0.4-0.2-0.4-0.4C217.4,224.3,217.4,224.2,217.4,224.2z"/>
			<path class="st7" d="M259.3,243.5h19.9c1.4,0,2.5,1.1,2.5,2.5c0,0,0,0,0,0.1v0.3l0,0h-24.8l0,0V246
				C256.8,244.6,257.9,243.5,259.3,243.5C259.3,243.5,259.3,243.5,259.3,243.5z"/>
			<path class="st2" d="M281.3,243.5h11.9c1.4,0,2.5,1.1,2.5,2.5l0,0v0.3l0,0h-16.8l0,0V246C278.8,244.6,279.9,243.5,281.3,243.5
				C281.3,243.5,281.3,243.5,281.3,243.5z"/>
			<polygon class="st7" points="229.4,246.3 306.2,246.3 308.3,242 239.4,242 			"/>
			<polygon class="st2" points="297.8,246.3 310.4,246.3 312.2,242 299.5,242 			"/>
			<path class="st2" d="M210,241.1h-11.6c-2.8,0-5.2,2.3-5.2,5.1c0,0,0,0,0,0h21.9C215.1,243.4,212.8,241.1,210,241.1z"/>
			<rect x="59.5" y="77.3" class="st2" width="78" height="107.2"/>
			<rect x="63.6" y="81.4" class="st4" width="69.9" height="99"/>
			<path class="st7" d="M110.9,174.8L110.9,174.8c0.9-0.3,1.4-1.2,1.2-2.1L88.1,88.2c-0.3-0.9-1.2-1.4-2.1-1.2l0,0
				c-0.9,0.3-1.4,1.2-1.2,2.1c0,0,0,0,0,0l23.9,84.5C109.1,174.5,110,175,110.9,174.8C110.9,174.8,110.9,174.8,110.9,174.8z"/>
		</g>
	</g>
</g>
<g id="freepik--Shadow--inject-54">
	<ellipse id="freepik--path--inject-54" class="st7" cx="250" cy="416.2" rx="193.9" ry="11.3"/>
</g>
<g id="freepik--Smartphone--inject-54">
	<path class="st8" d="M200,90.5h124.3c8.7,0,15.8,7.1,15.8,15.8V400c0,8.7-7.1,15.8-15.8,15.8H200c-8.7,0-15.8-7.1-15.8-15.8V106.3
		C184.2,97.6,191.3,90.5,200,90.5z"/>
	<path class="st8" d="M337.3,146h1.4c1.8,0,3.3,1.5,3.3,3.3v48.4c0,1.8-1.5,3.3-3.3,3.3h-1.4c-1.8,0-3.3-1.5-3.3-3.3v-48.4
		C334,147.5,335.5,146,337.3,146z"/>
	<path class="st8" d="M182.1,156.8h2.4c1.5,0,2.8,1.3,2.8,2.8v16c0,1.5-1.3,2.8-2.8,2.8h-2.4c-1.5,0-2.8-1.3-2.8-2.8v-16
		C179.3,158,180.5,156.8,182.1,156.8z"/>
	<rect x="252.1" y="87" class="st8" width="25.6" height="1"/>
	<rect x="282.7" y="87" class="st8" width="5.6" height="1"/>
	<path class="st8" d="M197.3,90.5h124.3c8.7,0,15.8,7.1,15.8,15.8V400c0,8.7-7.1,15.8-15.8,15.8H197.3c-8.7,0-15.8-7.1-15.8-15.8
		V106.3C181.6,97.6,188.6,90.5,197.3,90.5z"/>
	<path class="st4" d="M186.1,109h146.8c1.7,0,3.1,1.4,3.1,3.1v282.7c0,1.7-1.4,3.1-3.1,3.1H186.1c-1.7,0-3.1-1.4-3.1-3.1V112.1
		C183,110.4,184.4,109,186.1,109z"/>
	<path class="st9" d="M208.9,123.2h92.8c8.3,0,15,6.7,15,15V273c0,8.3-6.7,15-15,15h-92.8c-8.3,0-15-6.7-15-15V138.2
		C193.9,129.9,200.6,123.2,208.9,123.2z"/>
	<path class="st9" d="M273.6,208c-5.6,0-10.1,4.5-10.1,10.1v90.6c0,5.6,4.5,10.1,10.1,10.1c0,0,0,0,0,0H336V208H273.6z"/>
	<path class="st10" d="M239.8,100.1h-94.5c-4,0-7.2,3.2-7.2,7.2c0,0,0,0,0,0v48.5c0,4,3.2,7.2,7.2,7.2h0H212l14.5,7.4V163h13.3
		c4,0,7.2-3.2,7.2-7.2v-48.5C247,103.3,243.8,100.1,239.8,100.1L239.8,100.1z"/>
	<path class="st4" d="M234.4,118.4h-72.6c-2.3,0-4.1-1.8-4.1-4.1c0-2.3,1.8-4.1,4.1-4.1h72.7c2.3,0,4.1,1.8,4.1,4.1
		C238.5,116.6,236.7,118.4,234.4,118.4L234.4,118.4z M161.7,111.1c-1.7,0.1-3.1,1.6-3,3.3c0.1,1.6,1.4,2.9,3,3h72.6
		c1.7-0.1,3.1-1.6,3-3.3c-0.1-1.6-1.4-2.9-3-3H161.7z"/>
	<path class="st4" d="M234.4,132.4h-50c-2.2-0.1-4-2-3.9-4.3c0.1-2.1,1.8-3.8,3.9-3.9h50c2.2,0.1,4,2,3.9,4.3
		C238.1,130.7,236.5,132.3,234.4,132.4z M184.4,125.1c-1.8-0.1-3.3,1.3-3.4,3.1c-0.1,1.8,1.3,3.3,3.1,3.4c0.1,0,0.2,0,0.4,0h50
		c1.8,0.1,3.3-1.3,3.4-3.1s-1.3-3.3-3.1-3.4c-0.1,0-0.2,0-0.4,0L184.4,125.1z"/>
	<path class="st4" d="M234.4,146.4H173c-2.3-0.1-4-2-3.9-4.3c0.1-2.1,1.8-3.8,3.9-3.9h61.4c2.3,0.1,4,2,3.9,4.3
		C238.2,144.6,236.5,146.3,234.4,146.4L234.4,146.4z M173,139.1c-1.8-0.1-3.3,1.3-3.4,3c-0.1,1.8,1.3,3.3,3,3.4c0.1,0,0.2,0,0.4,0
		h61.4c1.8,0.1,3.3-1.3,3.4-3c0.1-1.8-1.3-3.3-3-3.4c-0.1,0-0.2,0-0.4,0H173z"/>
	<path class="st8" d="M373.7,145.4H265.3c-4,0-7.2,3.2-7.2,7.2v27.8c0,4,3.2,7.2,7.2,7.2h13.3v7.3l14.5-7.4h80.6
		c4,0,7.2-3.2,7.2-7.2v-27.8C380.9,148.6,377.6,145.4,373.7,145.4z"/>
	<path class="st11" d="M373.7,145.4H265.3c-4,0-7.2,3.2-7.2,7.2v27.8c0,4,3.2,7.2,7.2,7.2h13.3v7.3l14.5-7.4h80.6
		c4,0,7.2-3.2,7.2-7.2v-27.8C380.9,148.6,377.6,145.4,373.7,145.4z"/>
	<path class="st4" d="M343.5,163.6h-72.7c-2.3,0-4.1-1.8-4.1-4.1c0-2.3,1.8-4.1,4.1-4.1c0,0,0,0,0,0h72.6c2.3,0,4.1,1.9,4.1,4.1
		C347.6,161.8,345.8,163.6,343.5,163.6L343.5,163.6z M270.8,156.3c-1.7,0-3.2,1.4-3.2,3.2s1.4,3.2,3.2,3.2h72.6
		c1.7,0,3.2-1.4,3.2-3.2s-1.4-3.2-3.2-3.2H270.8z"/>
	<path class="st4" d="M320.9,177.6h-50c-2.2,0-4.1-1.8-4.1-4.1s1.8-4.1,4.1-4.1l0,0h50c2.2,0,4,1.8,4,4.1S323.1,177.6,320.9,177.6z
		 M270.9,170.3c-1.8,0-3.2,1.4-3.2,3.2c0,1.8,1.4,3.2,3.2,3.2c0,0,0,0,0,0h50c1.8,0,3.2-1.5,3.2-3.2c0-1.8-1.4-3.2-3.2-3.2H270.9z"
		/>
	<path class="st8" d="M165.9,339.1H336l0,0v17.8l0,0H166c-3.2,0-5.9-2.6-5.9-5.9l0,0v-6C160.1,341.8,162.7,339.1,165.9,339.1z"/>
	<path class="st12" d="M165.9,339.1H336l0,0v17.8l0,0H166c-3.2,0-5.9-2.6-5.9-5.9l0,0v-6C160.1,341.8,162.7,339.1,165.9,339.1z"/>
	<path class="st13" d="M297.5,339.1H336l0,0v17.8l0,0h-38.5c-3.2,0-5.9-2.6-5.9-5.9l0,0v-6C291.7,341.7,294.3,339.1,297.5,339.1
		L297.5,339.1z"/>
	<path class="st14" d="M305.8,356.9l22.9,24.8c2.7,2.9,7.2,0.8,7.2-3.2v-21.6H305.8z"/>
	<path class="st14" d="M196.2,356.9l22.9,24.8c2.7,2.9,7.2,0.8,7.2-3.2v-21.6H196.2z"/>
</g>
<g id="freepik--Character--inject-54">
	<path class="st15" d="M240.6,268.9c-0.1,1.9-0.4,3.6-0.6,5.4s-0.5,3.5-0.8,5.3c-0.6,3.5-1.3,7-2.2,10.5c-0.4,1.7-0.9,3.5-1.4,5.2
		c-0.3,0.9-0.5,1.7-0.8,2.6c-0.3,0.9-0.6,1.8-1,2.7c-0.2,0.5-0.5,1-0.8,1.5c-0.4,0.7-0.8,1.3-1.4,1.9c-0.4,0.5-1,0.9-1.5,1.2
		c-1,0.5-2.1,0.7-3.1,0.6c-0.9-0.1-1.7-0.5-2.4-1.2c-0.4-0.4-0.7-0.8-1-1.2c-0.6-1.1-1-2.2-1.2-3.4c-0.1-1-0.2-2-0.2-3l4.7-1
		c0.4,0.6,0.8,1.4,1.3,2s0.9,1.2,1.1,1.2c0,0,0.1-0.1-0.1-0.2c-0.3-0.3-0.8-0.6-1.3-0.6c-0.6-0.1-1.3,0-1.9,0.3
		c-0.4,0.2-0.5,0.3-0.6,0.3s0-0.1,0-0.4l0.2-0.9c0.1-0.6,0.3-1.5,0.5-2.3s0.4-1.6,0.6-2.4c0.4-1.6,0.7-3.3,1-4.9
		c0.6-3.3,1.2-6.6,1.7-10s1-6.8,1.4-10L240.6,268.9z"/>
	<path class="st8" d="M232,259c-2.3,3.4-4.6,16.5-4.6,16.5l15.9,7c0,0,4.5-21.3,0.9-25.2C240.6,253.1,234.6,255.2,232,259z"/>
	<path class="st16" d="M235.1,267.6c-2.2,2.5-3.2,6.5-3.5,9.7l11.8,5.2c1-4.8,1.7-9.7,2.1-14.5C242.9,265.2,238.9,263.3,235.1,267.6
		z"/>
	<polygon class="st15" points="158.5,406.9 150.6,401.5 161.6,382.2 169.6,387.6 	"/>
	<polygon class="st15" points="210.9,415 201.7,411.7 204.9,389.7 214.1,393 	"/>
	<path class="st10" d="M201.2,410.4l10.8,0.5c0.4,0,0.7,0.3,0.7,0.7l0.9,8.2c0.1,0.8-0.6,1.6-1.4,1.6c-0.1,0-0.1,0-0.2,0
		c-3.8-0.2-5.6-0.1-10.3-0.3c-2.9-0.1-8.8,0.6-12.8,0.4s-4.1-4.1-2.4-4.4c7.6-1.3,10.5-4.1,13.1-6.1
		C200.1,410.6,200.6,410.4,201.2,410.4z"/>
	<path class="st10" d="M151.6,398.7l8.9,6.1c0.3,0.2,0.4,0.7,0.2,1l-3.8,7.7c-0.4,0.7-1.3,1-2.1,0.6c-0.1,0-0.1-0.1-0.2-0.1
		c-3-2.2-4.1-3-8-5.7c-2.4-1.6-8-5-11.3-7.3s-1.1-5.8,0.5-5.2c7.1,2.9,10.8,2.8,14.1,2.5C150.6,398.2,151.1,398.3,151.6,398.7z"/>
	<g class="st17">
		<polygon points="161.6,382.2 155.1,393.6 163.5,398.1 169.6,387.6 		"/>
		<polygon points="214.1,393 204.9,389.7 203,403 212.4,404.9 		"/>
	</g>
	<path class="st8" d="M232.3,263.3c0.1,7.2,1.6,21.6,7,50.5l38.9-1c-1.1-15.8-1.3-25.6,5.4-58.2c-5.5-1-11-1.6-16.6-1.8
		c-5.9-0.3-11.8-0.1-17.7,0.4c-3.5,0.4-7.3,1.1-10.3,1.6C235.1,255.8,232.2,259.3,232.3,263.3z"/>
	<path class="st16" d="M282.6,259.7c-3.4,1.5-6.2,4.2-7.8,7.5c-1.9,4.3,2.8,13.1,4,15.1C279.5,276.2,280.7,268.9,282.6,259.7z"/>
	<path class="st10" d="M254.8,212.2c-3.9,4.3-7.4,22.7,4.6,31c-0.5,7.6,17.8,2.6,20-6.7C281.5,227.8,266.4,199.2,254.8,212.2z"/>
	<path class="st10" d="M270.2,244.7c-0.1,0-0.3-0.1-0.3-0.3c0-0.2,0.1-0.3,0.3-0.3c7.1-0.3,9.4-4.2,10.1-7.4
		c1.6-7.4-3.6-17.2-9.1-20c-0.1-0.1-0.2-0.2-0.1-0.4c0,0,0,0,0,0c0.1-0.1,0.2-0.2,0.4-0.1c5.6,2.9,11,13,9.4,20.6
		C280.1,240.3,277.7,244.4,270.2,244.7L270.2,244.7z"/>
	<path class="st10" d="M272,246c-1.1,0-2.2-0.1-3.2-0.2c-0.1,0-0.3-0.1-0.3-0.3c0-0.1,0.1-0.3,0.3-0.3c0,0,0,0,0.1,0
		c7.2,1,11.8-1.4,13.2-6.7c1.9-7.7-3.8-19.3-10.7-21.8c-0.1,0-0.2-0.2-0.2-0.3s0.2-0.2,0.3-0.2c0,0,0.1,0,0.1,0
		c7.3,2.6,13.1,14.4,11.1,22.4C281.8,241.6,279.5,246,272,246z"/>
	<path class="st15" d="M264.8,235.2c-1,5.7-1.9,14,2.2,17.7c0,0-7.9,4.3-16.2,18.1c-7.2-11.3-1.4-17.6-1.4-17.6
		c6.3-1.7,6.1-4.2,4.9-8.6L264.8,235.2z"/>
	<path class="st4" d="M254.8,260.3c-0.3,1.3-1.4,2.3-2.7,2.4c-1.2,0-1.8-1-1.5-2.4c0.3-1.3,1.4-2.3,2.7-2.4
		C254.5,257.9,255.2,258.9,254.8,260.3z"/>
	<path class="st4" d="M254,259L254,259c-0.1,0-0.2-0.1-0.2-0.2c0,0,0,0,0,0c0-0.1,0.1-0.2,0.2-0.2l0,0c0.2,0,6.1-0.1,12.9-5.8
		c0.1-0.1,0.3-0.1,0.4,0c0.1,0.1,0.1,0.3,0,0.4l0,0C260.4,258.9,254.5,259,254,259z"/>
	<path class="st4" d="M252.7,258.9L252.7,258.9c0,0-3.6-0.6-3.6-5.6c0-0.1,0.1-0.2,0.2-0.2s0.2,0.1,0.2,0.2c0,4.5,3,5,3.2,5.1
		c0.1,0,0.2,0.2,0.2,0.3C253,258.8,252.9,258.9,252.7,258.9z"/>
	<path class="st16" d="M260.5,239.1l-6.3,5.6c0.3,1,0.5,2.1,0.6,3.1c2.4-0.4,6.2-2.6,6.6-5.2C261.7,241.4,260.7,239.6,260.5,239.1z"
		/>
	<path class="st10" d="M239.2,209.4c-3.9,4.4-8.8,19.5,3.3,27.8c-0.5,7.7,17.3,1.6,20.5-7.5S250.9,196.3,239.2,209.4z"/>
	<path class="st15" d="M265.8,220.4c1.6,9.4,2.4,13.3-1.1,19.1c-5.4,8.8-17.2,8.6-21.6-0.1c-3.9-7.9-5.8-21.9,2.4-27.6
		c5.9-4.1,14-2.7,18.1,3.2C264.8,216.6,265.5,218.5,265.8,220.4z"/>
	<path class="st10" d="M243.4,210.7c0.6,5,10.4,17.9,22.7,14.9c4.6,4.8,10.9-10.2,6.9-17.5S241.7,195.6,243.4,210.7z"/>
	<path class="st10" d="M239.3,313.9c-18.9-1.3-57.8,3.5-63.8,22c-9,27.8-19.5,51.6-19.5,51.6l12.1,5.8c0,0,23.4-28.3,30.5-46.8
		c14,1.6,32.6-2.8,38.1-3.5c20.5-2.5,28.9-15.8,30.9-29.8L239.3,313.9z"/>
	<path class="st16" d="M223.6,323.2c-15.2-0.2-33.6,9.4-31.5,36.3c2.5-4.2,4.7-8.6,6.6-13.1c4.7,0.4,9.5,0.4,14.3,0
		C217.8,335.8,227.3,323.3,223.6,323.2z"/>
	<polygon class="st8" points="167.3,396.3 153.8,389.2 155.1,384.4 170.4,391.8 	"/>
	<polygon class="st18" points="167.3,396.3 153.8,389.2 155.1,384.4 170.4,391.8 	"/>
	<path class="st10" d="M249.6,313.6c0,0-47.4,10.8-47.3,24.9c0.3,30.3-0.3,59.5-0.3,59.5l13,2.6c0,0,10.8-34.3,10.9-52.6
		c20.3-7.6,60,9.6,52.3-35.1L249.6,313.6z"/>
	<polygon class="st8" points="216.3,402.7 200.4,399.8 199.6,394.5 218.5,397.1 	"/>
	<polygon class="st18" points="216.3,402.7 200.4,399.8 199.6,394.5 218.5,397.1 	"/>
	<path class="st10" d="M251.7,226.3c0.2,0.8-0.1,1.4-0.6,1.6s-1-0.4-1.2-1.1s0.1-1.5,0.6-1.6S251.5,225.5,251.7,226.3z"/>
	<path class="st10" d="M243.1,228.2c0.2,0.8-0.1,1.4-0.6,1.6s-1-0.4-1.2-1.1s0.1-1.5,0.6-1.6S243,227.5,243.1,228.2z"/>
	<path class="st10" d="M242.2,227.1l-1.9-0.1C240.2,226.9,241.5,228.1,242.2,227.1z"/>
	<path class="st19" d="M246.1,229c-0.3,1.9-0.8,3.7-1.6,5.4c0.9,0.4,1.9,0.3,2.8-0.1L246.1,229z"/>
	<path class="st10" d="M252.1,236.3c-0.4,0.1-0.7,0.2-1.1,0.3c-0.1,0-0.2,0-0.3-0.2c0,0,0,0,0,0c0-0.1,0-0.2,0.2-0.3c0,0,0,0,0,0
		c1.9-0.4,3.5-1.7,4.3-3.4c0.1-0.1,0.2-0.2,0.3-0.1c0.1,0,0.2,0.2,0.1,0.3C255,234.4,253.7,235.7,252.1,236.3z"/>
	<path class="st15" d="M269.5,227.6c-0.3,1.8-1.3,3.4-2.8,4.5c-2,1.4-3.8-0.1-4-2.4c-0.1-2.1,0.7-5.3,3-5.8c1.7-0.4,3.3,0.7,3.7,2.4
		C269.6,226.8,269.6,227.2,269.5,227.6z"/>
	<path class="st10" d="M252.9,223c-0.2,0-0.4,0-0.5-0.2c-1.1-1.8-3.8-1.9-3.9-1.9c-0.3,0-0.4-0.2-0.4-0.5c0-0.3,0.2-0.4,0.5-0.4
		c0.1,0,3.2,0.1,4.6,2.3c0.1,0.2,0.1,0.5-0.1,0.6c0,0,0,0,0,0L252.9,223z"/>
	<path class="st10" d="M238.7,224.8c-0.2,0.1-0.5,0-0.6-0.2c-0.1-0.2,0-0.3,0.1-0.5c0.9-1.2,2.2-1.9,3.7-1.8c0.2,0,0.4,0.2,0.4,0.5
		c0,0,0,0,0,0c0,0.2-0.2,0.4-0.5,0.4c0,0,0,0,0,0c-1.2,0-2.2,0.6-2.9,1.5C238.8,224.8,238.7,224.8,238.7,224.8z"/>
	<path class="st10" d="M196.2,411.5C196.1,411.4,196.1,411.4,196.2,411.5c-0.4-0.4-0.5-0.9-0.4-1.3c0-0.3,0.2-0.5,0.5-0.6
		c1.1-0.5,4,1.5,4.3,1.8c0.1,0.1,0.1,0.1,0.1,0.2c0,0.1-0.1,0.2-0.2,0.2C199.2,412,197.1,412.2,196.2,411.5z M199.8,411.4
		c-1.1-0.8-2.8-1.6-3.4-1.4c-0.1,0-0.2,0.2-0.2,0.3c-0.1,0.3,0,0.6,0.2,0.8C196.9,411.5,198.1,411.6,199.8,411.4L199.8,411.4z"/>
	<path class="st10" d="M200,411.5c-0.9-0.8-2.2-2.6-2-3.5c0.1-0.4,0.4-0.6,0.8-0.6c0.4,0,0.7,0.1,1,0.3c1,1,0.9,3.7,0.9,3.8
		c0,0.1,0,0.2-0.1,0.2c-0.1,0-0.2,0-0.2,0C200.2,411.6,200.1,411.6,200,411.5z M199.4,407.9c-0.2-0.1-0.3-0.2-0.5-0.2
		c-0.3,0-0.4,0.1-0.4,0.3c-0.1,0.6,0.9,2.2,1.8,3C200.2,410.1,200,408.5,199.4,407.9L199.4,407.9z"/>
	<path class="st10" d="M147.7,398c-0.7-0.4-1.3-1-1.6-1.8c-0.1-0.4,0-0.8,0.3-1.1c0.2-0.2,0.4-0.3,0.7-0.3c1.3,0.1,3.4,3.9,3.6,4.3
		c0.1,0.1,0.1,0.2,0,0.3c-0.1,0.1-0.2,0.1-0.3,0C149.5,399,148.6,398.6,147.7,398z M147.4,395.4c-0.1-0.1-0.2-0.2-0.4-0.2
		c-0.1,0-0.2,0-0.3,0.1c-0.2,0.2-0.3,0.5-0.2,0.8c0.2,0.8,1.4,1.7,3.4,2.6C149.3,397.5,148.5,396.4,147.4,395.4L147.4,395.4z"/>
	<path class="st10" d="M150.4,399.4C150.4,399.4,150.4,399.4,150.4,399.4c-0.7-1.1-1.4-4.1-0.6-4.9c0.2-0.2,0.5-0.3,1.1,0
		c0.4,0.2,0.7,0.6,0.8,1c0.4,1.5-0.9,3.8-0.9,3.9c0,0.1-0.1,0.1-0.2,0.1C150.4,399.5,150.4,399.4,150.4,399.4z M150.7,394.9
		l-0.1-0.1c-0.4-0.2-0.5-0.1-0.5,0c-0.5,0.5-0.1,2.7,0.4,3.9c0.5-0.9,0.8-2,0.7-3.1C151.1,395.4,150.9,395.1,150.7,394.9
		L150.7,394.9z"/>
	<path class="st10" d="M250.7,225.1l-1.9-0.1C248.8,225,250,226.2,250.7,225.1z"/>
	<path class="st4" d="M278.7,310.5l1.1,3.5c0.1,0.3-0.2,0.5-0.6,0.6l-40,1c-0.4,0-0.6-0.2-0.7-0.4l-0.4-3.5c0-0.2,0.3-0.5,0.6-0.5
		l39.4-1C278.3,310.2,278.6,310.3,278.7,310.5z"/>
	<path class="st10" d="M273.4,315.1h1.1c0.2,0,0.4-0.1,0.3-0.2l-0.6-4.5c0-0.1-0.2-0.2-0.4-0.2h-1c-0.2,0-0.4,0.1-0.4,0.2l0.6,4.5
		C273,315,273.2,315.1,273.4,315.1z"/>
	<path class="st10" d="M242.1,315.9h1.1c0.2,0,0.4-0.1,0.4-0.2l-0.6-4.5c0-0.1-0.2-0.2-0.4-0.2h-1c-0.2,0-0.4,0.1-0.4,0.2l0.6,4.5
		C241.7,315.8,241.9,315.9,242.1,315.9z"/>
	<path class="st10" d="M257.7,315.5h1.1c0.2,0,0.4-0.1,0.4-0.2l-0.6-4.5c0-0.1-0.2-0.2-0.4-0.2h-1c-0.2,0-0.4,0.1-0.4,0.2l0.6,4.5
		C257.3,315.4,257.5,315.5,257.7,315.5z"/>
	<path class="st15" d="M253.6,292.3l-9.7-3.7l3.2,9.2c0,0,6.1,1,8.5-2.1L253.6,292.3z"/>
	<path class="st15" d="M287.6,267.8c0.4,1.4,0.7,2.6,0.9,3.9s0.5,2.5,0.7,3.8c0.4,2.6,0.6,5.2,0.6,7.9c0,2.8-0.3,5.6-1,8.3
		c-0.2,0.7-0.4,1.5-0.7,2.2c-0.3,0.9-0.8,1.8-1.4,2.7c-1.2,1.6-2.8,2.8-4.7,3.6c-1.5,0.6-3,1-4.5,1.2c-1.4,0.2-2.8,0.3-4.2,0.2
		c-2.6,0-5.2-0.3-7.8-0.7c-5-0.8-9.8-2.1-14.5-3.9l1.3-4.7c4.6,0.8,9.3,1.3,14,1.5c2.2,0.1,4.5,0.1,6.7-0.1c1.9-0.1,3.7-0.5,5.5-1.3
		c0.4-0.2,0.8-0.5,1-0.9c0.2-0.6,0.4-1.3,0.5-1.9c0.3-2,0.4-4,0.3-6.1c-0.1-2.2-0.4-4.4-0.7-6.6c-0.2-1.1-0.4-2.2-0.6-3.3
		s-0.5-2.3-0.7-3.2L287.6,267.8z"/>
	<path class="st8" d="M283.6,254.6c3.9,1.1,6.9,17,6.9,17l-14.8,7.4c0,0-3.8-9.9-2.3-14.9C275,258.8,279.1,253.4,283.6,254.6z"/>
	<path class="st10" d="M241.3,302.6h-8.7c-0.7,0-1.2-0.5-1.4-1.1l-4.5-18.5c-0.2-0.4,0.1-0.9,0.5-1.1c0.1,0,0.2-0.1,0.3,0h8.7
		c0.7,0,1.2,0.5,1.4,1.1l4.5,18.5c0.2,0.4-0.1,0.9-0.5,1.1C241.5,302.6,241.4,302.6,241.3,302.6z"/>
	<path class="st15" d="M222.9,291.9l5.3-2.2l-1.2,10.3c-0.5,0.2-1,0.3-1.6,0.4c-2.4,0.4-4.8-1.2-5.2-3.6c-0.1-0.8-0.1-1.6,0.2-2.4
		l0,0C221,293.3,221.8,292.4,222.9,291.9z"/>
	<polygon class="st15" points="233,291 232,298.9 227.1,300 228.3,289.7 	"/>
	<polygon class="st15" points="236.2,291.1 239.3,298.6 247.1,297.9 243.9,288.7 	"/>
</g>
</svg>
