<?xml version="1.0" encoding="utf-8"?>
<!-- Generator: Adobe Illustrator 25.2.1, SVG Export Plug-In . SVG Version: 6.00 Build 0)  -->
<svg version="1.1" id="Layer_1" xmlns="http://www.w3.org/2000/svg" xmlns:xlink="http://www.w3.org/1999/xlink" x="0px" y="0px"
	 viewBox="0 0 750 686.2" style="enable-background:new 0 0 750 686.2;" xml:space="preserve">
<style type="text/css">
	.st0{fill:#EBEBEB;}
	.st1{fill:#FFFFFF;}
	.st2{fill:#E0E0E0;}
	.st3{fill:#F5F5F5;}
	.st4{fill:#263238;}
	.st5{fill:#FAFAFA;}
	.st6{fill:#FF725E;}
	.st7{fill:#455A64;}
	.st8{fill:#FFBF9D;}
	.st9{fill:#FF9A6C;}
	.st10{opacity:0.3;}
	.st11{fill:#AE7461;}
	.st12{fill:#6F4439;}
	.st13{opacity:0.6;}
</style>
<g id="freepik--background-complete--inject-53">
	
		<image style="overflow:visible;opacity:0.2;" width="791" height="553" xlink:href="8C400444.png"  transform="matrix(1 0 0 1 -9 149.2143)">
	</image>
	<g>
		<g>
			<circle class="st0" cx="232.3" cy="275.7" r="32.8"/>
			<path class="st1" d="M223.2,275.5v-9.6c0-1.8,1.5-3.2,3.2-3.2c0.6,0,1.1,0.2,1.6,0.4l8.3,4.8l8.3,4.8c1.5,0.9,2.1,2.9,1.2,4.4
				c-0.3,0.5-0.7,0.9-1.2,1.2l-8.3,4.8l-8.3,4.8c-1.5,0.9-3.5,0.4-4.4-1.2c-0.3-0.5-0.4-1-0.4-1.6V275.5z"/>
			<path class="st0" d="M518.5,287.3L518.5,287.3c-10.2,0-18.5-8.3-18.5-18.5V247c0-10.2,8.3-18.5,18.5-18.5c0,0,0,0,0,0l0,0
				c10.2,0,18.5,8.3,18.5,18.5v21.8C537,279,528.7,287.3,518.5,287.3z"/>
			<path class="st0" d="M518.5,298.6c-15.1,0-27.4-12.3-27.4-27.4h2.6c0,13.6,11.1,24.7,24.7,24.7c14.5,0,24.7-10.2,24.7-24.7h2.7
				C545.8,287.3,534.6,298.6,518.5,298.6z"/>
			<rect x="517.2" y="297.2" class="st0" width="2.7" height="13.4"/>
			<rect x="502.3" y="308.7" class="st0" width="32.3" height="2.7"/>
			<path class="st0" d="M491.2,240.6c-1,0-2.5-0.5-4.8-1.5c-4-1.7-5.3-2.5-4.8-3.9l0.2-0.6l0.6-0.3c1.4-0.6,4.9,0.8,5.6,1.1
				s4.1,1.8,4.7,3.2l0.2,0.6l-0.3,0.6l0,0C492.3,240.3,491.7,240.6,491.2,240.6z"/>
			<path class="st0" d="M501.7,226.7c-0.8,0-2.1-0.9-4.8-4.6c-3.2-4.3-3-5.3-2.9-5.7l0.1-0.5l0.9-0.7l0.6,0.1c0.3,0,1.4,0.2,4.5,4.5
				c3.7,5,3.3,6,2.4,6.6l0,0C502.3,226.6,502,226.7,501.7,226.7z"/>
			<path class="st0" d="M518.1,221.7l-0.5-0.4c-0.2-0.2-1-1-1-6s0.8-5.8,1.1-6l0.4-0.4h0.7c0.8,0.1,1.9,0.1,1.8,6.4
				c-0.1,6.3-1.2,6.3-2,6.4L518.1,221.7z"/>
			<path class="st0" d="M534.3,225.3l-0.5-0.4c-1.2-1.1-0.1-2.6,2.2-5.6c2.3-3,3.5-4.5,4.8-3.6l0.5,0.3l0.2,0.7
				c0.3,1.6-2,4.7-2.3,5.1s-2.7,3.5-4.2,3.6L534.3,225.3z"/>
			<path class="st0" d="M546.3,240.4c-0.5,0-1-0.3-1.3-0.8c-0.7-1.2,0.7-2.3,1.3-2.8c1-0.7,2-1.4,3-2c4.9-2.8,5.8-2.2,6.3-1.3
				c0.7,1.2-0.7,2.3-1.3,2.8c-1,0.7-2,1.4-3,2C548.7,239.9,547.2,240.4,546.3,240.4z"/>
			<path class="st2" d="M406.4,616.5c-1.7,0-3-1.3-3-3v-43.6c0-1.7,1.4-3,3-3s3,1.4,3,3v43.6C409.4,615.2,408.1,616.5,406.4,616.5
				C406.4,616.5,406.4,616.5,406.4,616.5z"/>
			<path class="st2" d="M392.2,609.7c-1.7,0-3-1.3-3-3v-30c0-1.7,1.4-3,3-3s3,1.4,3,3v30C395.2,608.4,393.9,609.7,392.2,609.7
				C392.2,609.7,392.2,609.7,392.2,609.7z"/>
			<path class="st2" d="M420.5,609.7c-1.7,0-3-1.3-3-3v-30c0-1.7,1.4-3,3-3s3,1.4,3,3v30C423.6,608.4,422.2,609.7,420.5,609.7
				C420.6,609.7,420.6,609.7,420.5,609.7z"/>
			<path class="st2" d="M434.7,603.6c-1.7,0-3-1.3-3-3v-17.8c0-1.7,1.4-3,3-3s3,1.4,3,3v17.7C437.8,602.2,436.4,603.6,434.7,603.6
				C434.8,603.6,434.7,603.6,434.7,603.6z"/>
			<path class="st2" d="M661.6,616.5c-1.7,0-3-1.3-3-3v-43.6c0-1.7,1.3-3,3-3s3,1.3,3,3v43.6C664.6,615.2,663.3,616.5,661.6,616.5
				C661.6,616.5,661.6,616.5,661.6,616.5z"/>
			<path class="st2" d="M647.4,609.7c-1.7,0-3-1.3-3-3v-30c0-1.7,1.4-3,3-3c1.7,0,3,1.4,3,3v30C650.5,608.4,649.1,609.7,647.4,609.7
				C647.5,609.7,647.5,609.7,647.4,609.7z"/>
			<path class="st2" d="M675.8,609.7c-1.7,0-3-1.3-3-3v-30c0-1.7,1.4-3,3-3c1.7,0,3,1.4,3,3v30C678.9,608.4,677.5,609.7,675.8,609.7
				C675.8,609.7,675.8,609.7,675.8,609.7z"/>
			<path class="st2" d="M690,603.6c-1.7,0-3-1.3-3-3v-17.8c0-1.7,1.3-3,3-3s3,1.3,3,3v17.7C693,602.2,691.7,603.6,690,603.6
				C690,603.6,690,603.6,690,603.6z"/>
			<path class="st2" d="M448.9,609.1c-1.7,0-3-1.3-3-3v-28.9c0-1.7,1.4-3,3-3s3,1.4,3,3v28.8C452,607.8,450.6,609.1,448.9,609.1
				C449,609.1,448.9,609.1,448.9,609.1z"/>
			<path class="st2" d="M463.1,615.4c-1.7,0-3-1.3-3-3V571c0-1.7,1.4-3,3-3s3,1.4,3,3v41.4C466.1,614.1,464.8,615.4,463.1,615.4
				C463.1,615.4,463.1,615.4,463.1,615.4z"/>
			<path class="st2" d="M477.3,623c-1.7,0-3-1.3-3-3v-56.6c0-1.7,1.4-3,3-3s3,1.4,3,3V620C480.3,621.6,479,623,477.3,623
				C477.3,623,477.3,623,477.3,623z"/>
			<path class="st2" d="M491.4,615.8c-1.7,0-3-1.3-3-3v-42.1c0-1.7,1.4-3,3-3s3,1.4,3,3v42.1C494.5,614.4,493.2,615.7,491.4,615.8
				C491.5,615.8,491.5,615.8,491.4,615.8z"/>
			<path class="st2" d="M505.6,609c-1.7,0-3-1.3-3-3v-28.5c0-1.7,1.3-3,3-3s3,1.3,3,3v28.5C508.6,607.6,507.3,609,505.6,609
				C505.7,609,505.6,609,505.6,609z"/>
			<path class="st2" d="M519.8,605.3c-1.7,0-3-1.3-3-3v-21.3c0-1.7,1.4-3,3-3c1.7,0,3,1.4,3,3v21.3
				C522.9,604,521.5,605.3,519.8,605.3C519.9,605.3,519.8,605.3,519.8,605.3z"/>
			<path class="st2" d="M534,616.2c-1.7,0-3-1.3-3-3v-43c0-1.7,1.3-3,3-3s3,1.3,3,3v43C537,614.9,535.7,616.2,534,616.2z"/>
			<path class="st2" d="M590.7,616.2c-1.7,0-3-1.3-3-3v-43c0-1.7,1.3-3,3-3s3,1.3,3,3v43C593.7,614.9,592.4,616.2,590.7,616.2z"/>
			<path class="st2" d="M548.2,623c-1.7,0-3-1.3-3-3v-56.6c0-1.7,1.4-3,3-3c1.7,0,3,1.4,3,3V620C551.2,621.6,549.9,623,548.2,623
				C548.2,623,548.2,623,548.2,623z"/>
			<path class="st2" d="M562.3,634.4c-1.7,0-3-1.3-3-3l0,0V552c0-1.7,1.3-3,3-3s3,1.3,3,3v79.4C565.4,633.1,564,634.4,562.3,634.4
				C562.4,634.4,562.4,634.4,562.3,634.4z"/>
			<path class="st2" d="M576.5,623c-1.7,0-3-1.3-3-3v-56.6c0-1.7,1.3-3,3-3s3,1.3,3,3V620C579.5,621.6,578.2,623,576.5,623
				C576.5,623,576.5,623,576.5,623z"/>
			<path class="st2" d="M604.9,605.3c-1.7,0-3-1.3-3-3v-21.3c0-1.7,1.3-3,3-3s3,1.3,3,3v21.3C607.9,604,606.6,605.3,604.9,605.3
				C604.9,605.3,604.9,605.3,604.9,605.3z"/>
			<path class="st2" d="M633.3,605.3c-1.7,0-3-1.3-3-3v-21.3c0-1.7,1.3-3,3-3s3,1.3,3,3v21.3C636.3,604,634.9,605.3,633.3,605.3
				C633.3,605.3,633.3,605.3,633.3,605.3z"/>
			<path class="st2" d="M619.1,601.8c-1.7,0-3-1.3-3-3v-14.2c0-1.7,1.4-3,3-3c1.7,0,3,1.4,3,3v14.2
				C622.1,600.4,620.8,601.8,619.1,601.8C619.1,601.8,619.1,601.8,619.1,601.8z"/>
			<path class="st2" d="M378,605.3c-1.7,0-3-1.3-3-3v-21.3c0-1.7,1.3-3,3-3s3,1.3,3,3v21.3C381,604,379.7,605.3,378,605.3
				C378,605.3,378,605.3,378,605.3z"/>
			<path class="st3" d="M240.1,439.9c-1.2,0-2.2-1-2.2-2.2l0,0v-32c0-1.2,1-2.2,2.2-2.2s2.2,1,2.2,2.2v32
				C242.3,438.9,241.3,439.9,240.1,439.9L240.1,439.9z"/>
			<path class="st3" d="M229.7,434.9c-1.2,0-2.2-1-2.2-2.2l0,0v-22c0-1.2,1-2.2,2.2-2.2s2.2,1,2.2,2.2v22
				C231.9,433.9,230.9,434.9,229.7,434.9C229.7,434.9,229.7,434.9,229.7,434.9z"/>
			<path class="st3" d="M250.5,434.9c-1.2,0-2.2-1-2.2-2.2c0,0,0,0,0,0v-22c0-1.2,1-2.2,2.2-2.2s2.2,1,2.2,2.2v22
				C252.7,433.9,251.7,434.9,250.5,434.9L250.5,434.9z"/>
			<path class="st3" d="M260.9,430.4c-1.2,0-2.2-1-2.2-2.2l0,0v-13c0-1.2,1-2.2,2.2-2.2s2.2,1,2.2,2.2v13
				C263.1,429.4,262.1,430.4,260.9,430.4C260.9,430.4,260.9,430.4,260.9,430.4z"/>
			<path class="st3" d="M427.4,439.9c-1.2,0-2.2-1-2.2-2.2v-32c0-1.2,1-2.2,2.2-2.2s2.2,1,2.2,2.2v32
				C429.6,438.9,428.6,439.9,427.4,439.9L427.4,439.9z"/>
			<path class="st3" d="M417,434.9c-1.2,0-2.2-1-2.2-2.2c0,0,0,0,0,0v-22c0-1.2,1-2.2,2.2-2.2s2.2,1,2.2,2.2v22
				C419.2,433.9,418.2,434.9,417,434.9L417,434.9z"/>
			<path class="st3" d="M437.8,434.9c-1.2,0-2.2-1-2.2-2.2c0,0,0,0,0,0v-22c0-1.2,1-2.2,2.2-2.2s2.2,1,2.2,2.2v22
				C440,433.9,439,434.9,437.8,434.9L437.8,434.9z"/>
			<path class="st3" d="M448.2,430.4c-1.2,0-2.2-1-2.2-2.2c0,0,0,0,0,0v-13c0.1-1.2,1.1-2.1,2.4-2.1c1.1,0.1,2,1,2.1,2.1v13
				C450.4,429.4,449.5,430.4,448.2,430.4C448.2,430.4,448.2,430.4,448.2,430.4z"/>
			<path class="st3" d="M271.3,434.5c-1.2,0-2.2-1-2.2-2.2l0,0v-21.2c0-1.2,1-2.2,2.2-2.2s2.2,1,2.2,2.2v21.2
				C273.5,433.5,272.5,434.5,271.3,434.5z"/>
			<path class="st3" d="M281.7,439.1c-1.2,0-2.2-1-2.2-2.2c0,0,0,0,0,0v-30.4c-0.1-1.2,0.8-2.3,2.1-2.4c1.2-0.1,2.3,0.8,2.4,2.1
				c0,0.1,0,0.2,0,0.3v30.4C283.9,438.1,283,439.1,281.7,439.1C281.7,439.1,281.7,439.1,281.7,439.1z"/>
			<path class="st3" d="M292.1,444.7c-1.2,0-2.2-1-2.2-2.2l0,0V401c0-1.2,1-2.2,2.2-2.2s2.2,1,2.2,2.2v41.5
				C294.3,443.7,293.4,444.7,292.1,444.7C292.1,444.7,292.1,444.7,292.1,444.7z"/>
			<path class="st3" d="M302.5,439.4c-1.2,0-2.2-1-2.2-2.2l0,0v-30.9c0-1.2,1-2.2,2.2-2.2s2.2,1,2.2,2.2v30.9
				C304.7,438.4,303.8,439.4,302.5,439.4z"/>
			<path class="st3" d="M312.9,434.4c-1.2,0-2.2-1-2.2-2.2l0,0v-21c0-1.2,1-2.2,2.2-2.2s2.2,1,2.2,2.2v21
				C315.1,433.4,314.1,434.4,312.9,434.4z"/>
			<path class="st3" d="M323.3,431.7c-1.2,0-2.2-1-2.2-2.2c0,0,0,0,0,0v-15.6c0-1.2,1-2.2,2.2-2.2s2.2,1,2.2,2.2v15.6
				C325.6,430.7,324.6,431.7,323.3,431.7C323.4,431.7,323.3,431.7,323.3,431.7z"/>
			<path class="st3" d="M333.8,439.7c-1.2,0-2.2-1-2.2-2.2c0,0,0,0,0,0v-31.6c0-1.2,1-2.2,2.2-2.2s2.2,1,2.2,2.2v31.6
				C336,438.7,335,439.7,333.8,439.7L333.8,439.7z"/>
			<path class="st3" d="M375.4,439.7c-1.2,0-2.2-1-2.2-2.2c0,0,0,0,0,0v-31.6c0-1.2,1-2.2,2.2-2.2s2.2,1,2.2,2.2v31.6
				C377.6,438.7,376.6,439.7,375.4,439.7C375.4,439.7,375.4,439.7,375.4,439.7z"/>
			<path class="st3" d="M344.1,444.7c-1.2,0-2.2-1-2.2-2.2l0,0V401c0-1.2,1-2.2,2.2-2.2s2.2,1,2.2,2.2v41.5
				C346.4,443.7,345.4,444.7,344.1,444.7C344.2,444.7,344.2,444.7,344.1,444.7z"/>
			<path class="st3" d="M354.6,453.1c-1.2,0-2.2-1-2.2-2.2l0,0v-58.3c0-1.2,1-2.2,2.2-2.2s2.2,1,2.2,2.2v58.3
				C356.8,452.1,355.8,453.1,354.6,453.1z"/>
			<path class="st3" d="M365,444.7c-1.2,0-2.2-1-2.2-2.2c0,0,0,0,0,0V401c-0.1-1.2,0.8-2.3,2.1-2.4c1.2-0.1,2.3,0.8,2.4,2.1
				c0,0.1,0,0.2,0,0.3v41.5C367.2,443.7,366.2,444.7,365,444.7C365,444.7,365,444.7,365,444.7z"/>
			<path class="st3" d="M385.8,431.7c-1.2,0-2.2-1-2.2-2.2c0,0,0,0,0,0v-15.6c0-1.2,1-2.2,2.2-2.2s2.2,1,2.2,2.2v15.6
				C388,430.7,387,431.7,385.8,431.7L385.8,431.7z"/>
			<path class="st3" d="M406.6,431.7c-1.2,0-2.2-1-2.2-2.2c0,0,0,0,0,0v-15.6c0-1.2,1-2.2,2.2-2.2s2.2,1,2.2,2.2v15.6
				C408.8,430.7,407.8,431.7,406.6,431.7C406.6,431.7,406.6,431.7,406.6,431.7z"/>
			<path class="st3" d="M396.2,429.1c-1.2,0-2.2-1-2.2-2.2v-10.4c0-1.2,1-2.2,2.2-2.2s2.2,1,2.2,2.2v10.4
				C398.4,428.1,397.5,429.1,396.2,429.1C396.2,429.1,396.2,429.1,396.2,429.1z"/>
			<path class="st3" d="M219.3,431.7c-1.2,0-2.2-1-2.2-2.2c0,0,0,0,0,0v-15.6c0-1.2,1-2.2,2.2-2.2s2.2,1,2.2,2.2v15.6
				C221.5,430.7,220.5,431.7,219.3,431.7L219.3,431.7z"/>
			<path class="st3" d="M312.8,439.9c-1.2,0-2.2-1-2.2-2.2v-32c0-1.2,1-2.2,2.2-2.2s2.2,1,2.2,2.2v32
				C315,438.9,314,439.9,312.8,439.9L312.8,439.9z"/>
			<path class="st3" d="M302.4,434.9c-1.2,0-2.2-1-2.2-2.2c0,0,0,0,0,0v-22c0-1.2,1-2.2,2.2-2.2s2.2,1,2.2,2.2v22
				C304.6,433.9,303.6,434.9,302.4,434.9L302.4,434.9z"/>
			<path class="st3" d="M323.2,434.9c-1.2,0-2.2-1-2.2-2.2c0,0,0,0,0,0v-22c0-1.2,1-2.2,2.2-2.2s2.2,1,2.2,2.2v22
				C325.4,433.9,324.4,434.9,323.2,434.9C323.2,434.9,323.2,434.9,323.2,434.9z"/>
			<path class="st3" d="M333.6,430.4c-1.2,0-2.2-1-2.2-2.2c0,0,0,0,0,0v-13c0-1.2,1-2.2,2.2-2.2s2.2,1,2.2,2.2v13
				C335.8,429.4,334.8,430.4,333.6,430.4L333.6,430.4z"/>
			<path class="st3" d="M500.1,439.9c-1.2,0-2.2-1-2.2-2.2l0,0v-32c0-1.2,1-2.2,2.2-2.2s2.2,1,2.2,2.2v32
				C502.3,438.9,501.3,439.9,500.1,439.9z"/>
			<path class="st3" d="M489.7,434.9c-1.2,0-2.2-1-2.2-2.2c0,0,0,0,0,0v-22c0-1.2,1-2.2,2.2-2.2s2.2,1,2.2,2.2v22
				C491.9,433.9,490.9,434.9,489.7,434.9C489.7,434.9,489.7,434.9,489.7,434.9z"/>
			<path class="st3" d="M510.5,434.9c-1.2,0-2.2-1-2.2-2.2l0,0v-22c0-1.2,1-2.2,2.2-2.2c1.2,0,2.2,1,2.2,2.2v22
				C512.7,433.9,511.7,434.9,510.5,434.9C510.5,434.9,510.5,434.9,510.5,434.9z"/>
			<path class="st3" d="M520.9,430.4c-1.2,0-2.2-1-2.2-2.2c0,0,0,0,0,0v-13c0-1.2,1-2.2,2.2-2.2c1.2,0,2.2,1,2.2,2.2v13
				C523.1,429.4,522.1,430.4,520.9,430.4C520.9,430.4,520.9,430.4,520.9,430.4z"/>
			<path class="st3" d="M344,434.5c-1.2,0-2.2-1-2.2-2.2v-21.2c0-1.2,1-2.2,2.2-2.2s2.2,1,2.2,2.2v21.2
				C346.2,433.5,345.2,434.5,344,434.5L344,434.5z"/>
			<path class="st3" d="M354.4,439.1c-1.2,0-2.2-1-2.2-2.2c0,0,0,0,0,0v-30.4c0-1.2,1-2.2,2.2-2.2s2.2,1,2.2,2.2v30.4
				C356.6,438.1,355.6,439.1,354.4,439.1L354.4,439.1z"/>
			<path class="st3" d="M364.8,444.7c-1.2,0-2.2-1-2.2-2.2c0,0,0,0,0,0V401c-0.1-1.2,0.8-2.3,2.1-2.4c1.2-0.1,2.3,0.8,2.4,2.1
				c0,0.1,0,0.2,0,0.3v41.5C367,443.7,366.1,444.7,364.8,444.7C364.8,444.7,364.8,444.7,364.8,444.7z"/>
			<path class="st3" d="M375.2,439.4c-1.2,0-2.2-1-2.2-2.2l0,0v-30.9c0-1.2,1-2.2,2.2-2.2s2.2,1,2.2,2.2v30.9
				C377.4,438.4,376.4,439.4,375.2,439.4L375.2,439.4z"/>
			<path class="st3" d="M385.6,434.4c-1.2,0-2.2-1-2.2-2.2c0,0,0,0,0,0v-21c0-1.2,1-2.2,2.2-2.2s2.2,1,2.2,2.2v21
				C387.8,433.4,386.8,434.4,385.6,434.4z"/>
			<path class="st3" d="M396,431.7c-1.2,0-2.2-1-2.2-2.2l0,0v-15.6c0-1.2,1-2.2,2.2-2.2s2.2,1,2.2,2.2v15.6
				C398.2,430.7,397.2,431.7,396,431.7C396,431.7,396,431.7,396,431.7z"/>
			<path class="st3" d="M406.4,439.7c-1.2,0-2.2-1-2.2-2.2c0,0,0,0,0,0v-31.6c0-1.2,1-2.2,2.2-2.2s2.2,1,2.2,2.2v31.6
				C408.7,438.7,407.7,439.7,406.4,439.7C406.5,439.7,406.4,439.7,406.4,439.7z"/>
			<path class="st3" d="M448.1,439.7c-1.2,0-2.2-1-2.2-2.2c0,0,0,0,0,0v-31.6c-0.1-1.2,0.8-2.3,2.1-2.4c1.2-0.1,2.3,0.8,2.4,2.1
				c0,0.1,0,0.2,0,0.3v31.6C450.3,438.7,449.3,439.7,448.1,439.7C448.1,439.7,448.1,439.7,448.1,439.7z"/>
			<path class="st3" d="M416.9,444.7c-1.2,0-2.2-1-2.2-2.2c0,0,0,0,0,0V401c0-1.2,1-2.2,2.2-2.2s2.2,1,2.2,2.2v41.5
				C419.1,443.7,418.1,444.7,416.9,444.7L416.9,444.7z"/>
			<path class="st3" d="M427.2,453.1c-1.2,0-2.2-1-2.2-2.2v-58.3c0-1.2,1-2.2,2.2-2.2s2.2,1,2.2,2.2v58.3
				C429.5,452.1,428.5,453.1,427.2,453.1z"/>
			<path class="st3" d="M437.7,444.7c-1.2,0-2.2-1-2.2-2.2c0,0,0,0,0,0V401c0-1.2,1-2.2,2.2-2.2s2.2,1,2.2,2.2v41.5
				C439.9,443.7,438.9,444.7,437.7,444.7L437.7,444.7z"/>
			<path class="st3" d="M458.5,431.7c-1.2,0-2.2-1-2.2-2.2l0,0v-15.6c0-1.2,1-2.2,2.2-2.2s2.2,1,2.2,2.2v15.6
				C460.7,430.7,459.7,431.7,458.5,431.7C458.5,431.7,458.5,431.7,458.5,431.7z"/>
			<path class="st3" d="M479.3,431.7c-1.2,0-2.2-1-2.2-2.2l0,0v-15.6c0-1.2,1-2.2,2.2-2.2s2.2,1,2.2,2.2v15.6
				C481.5,430.7,480.5,431.7,479.3,431.7C479.3,431.7,479.3,431.7,479.3,431.7z"/>
			<path class="st3" d="M468.9,429.1c-1.2,0-2.2-1-2.2-2.2c0,0,0,0,0,0v-10.4c0-1.2,1-2.2,2.2-2.2s2.2,1,2.2,2.2v10.4
				C471.1,428.1,470.1,429.1,468.9,429.1z"/>
			<path class="st3" d="M292,431.7c-1.2,0-2.2-1-2.2-2.2c0,0,0,0,0,0v-15.6c0-1.2,1-2.2,2.2-2.2s2.2,1,2.2,2.2v15.6
				C294.2,430.7,293.2,431.7,292,431.7C292,431.7,292,431.7,292,431.7z"/>
			<path class="st2" d="M84.7,616.5c-1.7,0-3-1.3-3-3v-43.6c0-1.7,1.3-3,3-3s3,1.3,3,3v43.6C87.7,615.2,86.4,616.5,84.7,616.5
				C84.7,616.5,84.7,616.5,84.7,616.5z"/>
			<path class="st2" d="M70.5,609.7c-1.7,0-3-1.3-3-3v-30c0-1.7,1.3-3,3-3s3,1.3,3,3v30C73.5,608.4,72.2,609.7,70.5,609.7z"/>
			<path class="st2" d="M98.9,609.7c-1.7,0-3-1.3-3-3v-30c0-1.7,1.3-3,3-3s3,1.3,3,3v30C101.9,608.4,100.5,609.7,98.9,609.7z"/>
			<path class="st2" d="M113,603.6c-1.7,0-3-1.3-3-3v-17.8c0-1.7,1.3-3,3-3s3,1.3,3,3v17.7C116,602.2,114.7,603.6,113,603.6
				C113,603.6,113,603.6,113,603.6z"/>
			<path class="st2" d="M340,616.5c-1.7,0-3-1.3-3-3v-43.6c0-1.7,1.4-3,3-3s3,1.4,3,3v43.6C343.1,615.2,341.7,616.5,340,616.5
				C340,616.5,340,616.5,340,616.5z"/>
			<path class="st2" d="M325.8,609.7c-1.7,0-3-1.3-3-3v-30c0-1.7,1.4-3,3-3s3,1.4,3,3v30C328.8,608.4,327.5,609.7,325.8,609.7
				C325.8,609.7,325.8,609.7,325.8,609.7z"/>
			<path class="st2" d="M354.1,609.7c-1.7,0-3-1.3-3-3v-30c0-1.7,1.3-3,3-3s3,1.3,3,3v30C357.1,608.4,355.8,609.7,354.1,609.7z"/>
			<path class="st2" d="M368.3,603.6c-1.7,0-3-1.3-3-3v-17.8c0-1.7,1.3-3,3-3s3,1.3,3,3v17.7C371.3,602.2,370,603.6,368.3,603.6
				C368.3,603.6,368.3,603.6,368.3,603.6z"/>
			<path class="st2" d="M127.2,609.1c-1.7,0-3-1.3-3-3v-28.9c0-1.7,1.3-3,3-3c1.7,0,3,1.3,3,3v28.8
				C130.2,607.8,128.9,609.1,127.2,609.1C127.2,609.1,127.2,609.1,127.2,609.1z"/>
			<path class="st2" d="M141.4,615.4c-1.7,0-3-1.3-3-3V571c0-1.7,1.4-3,3-3c1.7,0,3,1.4,3,3v41.4
				C144.5,614.1,143.1,615.4,141.4,615.4C141.5,615.4,141.4,615.4,141.4,615.4z"/>
			<path class="st2" d="M155.6,623c-1.7,0-3-1.3-3-3v-56.6c0-1.7,1.4-3,3-3c1.7,0,3,1.4,3,3V620C158.7,621.6,157.3,623,155.6,623
				C155.6,623,155.6,623,155.6,623z"/>
			<path class="st2" d="M169.8,615.8c-1.7,0-3-1.3-3-3v-42.1c0-1.7,1.3-3,3-3s3,1.3,3,3v42.1C172.8,614.4,171.4,615.7,169.8,615.8
				C169.8,615.8,169.8,615.8,169.8,615.8z"/>
			<path class="st2" d="M184,609c-1.7,0-3-1.3-3-3v-28.5c0-1.7,1.3-3,3-3s3,1.3,3,3v28.5C187,607.6,185.7,609,184,609
				C184,609,184,609,184,609z"/>
			<path class="st2" d="M198.1,605.3c-1.7,0-3-1.3-3-3v-21.3c0-1.7,1.3-3,3-3s3,1.3,3,3v21.3C201.1,604,199.8,605.3,198.1,605.3
				C198.1,605.3,198.1,605.3,198.1,605.3z"/>
			<path class="st2" d="M212.3,616.2c-1.7,0-3-1.3-3-3v-43c0-1.7,1.4-3,3-3c1.7,0,3,1.4,3,3v43C215.4,614.9,214,616.2,212.3,616.2
				C212.3,616.2,212.3,616.2,212.3,616.2z"/>
			<path class="st2" d="M269,616.2c-1.7,0-3-1.3-3-3v-43c0-1.7,1.4-3,3-3s3,1.4,3,3v43C272.1,614.9,270.7,616.2,269,616.2
				C269,616.2,269,616.2,269,616.2z"/>
			<path class="st2" d="M226.5,623c-1.7,0-3-1.3-3-3v-56.6c0-1.7,1.4-3,3-3c1.7,0,3,1.4,3,3V620C229.6,621.6,228.2,623,226.5,623
				C226.5,623,226.5,623,226.5,623z"/>
			<path class="st2" d="M240.7,634.4c-1.7,0-3-1.3-3-3l0,0V552c0-1.7,1.3-3,3-3s3,1.3,3,3v79.4C243.7,633.1,242.4,634.4,240.7,634.4
				C240.7,634.4,240.7,634.4,240.7,634.4z"/>
			<path class="st2" d="M254.9,623c-1.7,0-3-1.3-3-3v-56.6c0-1.7,1.3-3,3-3s3,1.3,3,3c0,0,0,0,0,0V620
				C257.9,621.6,256.5,623,254.9,623C254.9,623,254.9,623,254.9,623z"/>
			<path class="st2" d="M283.2,605.3c-1.7,0-3-1.3-3-3v-21.3c0-1.7,1.4-3,3-3s3,1.4,3,3v21.3C286.3,604,284.9,605.3,283.2,605.3
				C283.3,605.3,283.2,605.3,283.2,605.3z"/>
			<path class="st2" d="M311.6,605.3c-1.7,0-3-1.3-3-3v-21.3c0-1.7,1.4-3,3-3s3,1.4,3,3v21.3C314.6,604,313.3,605.3,311.6,605.3
				C311.6,605.3,311.6,605.3,311.6,605.3z"/>
			<path class="st2" d="M297.4,601.8c-1.7,0-3-1.3-3-3v-14.2c0-1.7,1.4-3,3-3s3,1.4,3,3v14.2C300.5,600.4,299.1,601.8,297.4,601.8
				C297.4,601.8,297.4,601.8,297.4,601.8z"/>
			<path class="st2" d="M56.3,605.3c-1.7,0-3-1.3-3-3v-21.3c0-1.7,1.4-3,3-3c1.7,0,3,1.4,3,3v21.3C59.4,604,58,605.3,56.3,605.3
				C56.4,605.3,56.3,605.3,56.3,605.3z"/>
			<rect x="664.7" y="292.1" class="st3" width="49.6" height="13.1"/>
			<path class="st2" d="M693.3,319.1c0-0.1,0-0.2,0-0.2v-0.7c0-0.6,0-1.5,0-2.6c0-2.3,0-5.5-0.1-9.6l0.2,0.2l-49.6,0.1
				c0.1-0.1-0.2,0.2,0.2-0.3l0,0v13.1l-0.2-0.2l35.4,0.1l10.4,0.1h2.8h0.7L693.3,319.1c0.1-0.1,0-0.1-0.2-0.1h-0.7h-2.8l-10.4,0.1
				l-35.5,0.1h-0.2V306l0,0l0.2-0.2l49.6,0.1h0.2v0.1c0,4.2-0.1,7.4-0.1,9.7c0,1.1,0,1.9,0,2.6c0,0.3,0,0.5,0,0.6
				C693.5,319.1,693.3,319.1,693.3,319.1z"/>
			<rect x="360.8" y="202.7" class="st3" width="49.6" height="13.1"/>
			<path class="st2" d="M389.5,229.7c0-0.1,0-0.2,0-0.2v-0.7c0-0.6,0-1.5,0-2.6c0-2.3,0-5.5-0.1-9.6l0.2,0.1l-49.6,0.1l0.2-0.2l0,0
				v13.1l-0.2-0.2l35.4,0.1l10.4,0.1h2.8h0.7L389.5,229.7l-0.2-0.1h-0.7h-2.8l-10.4,0.1l-35.5,0.1h-0.2v-13.2l0,0
				c0.5-0.5,0.1-0.1,0.3-0.2l49.6,0.1h0.1v0.1c0,4.2-0.1,7.4-0.1,9.7c0,1.1,0,1.9,0,2.5c0,0.3,0,0.5,0,0.6
				C389.6,229.6,389.5,229.6,389.5,229.7z"/>
			<rect x="67.7" y="470" class="st3" width="49.6" height="13.1"/>
			<path class="st2" d="M96.3,497c0,0,0-0.1,0-0.2V496v-2.6c0-2.3,0-5.5-0.1-9.6l0.2,0.1l-49.6,0.1l0.2-0.2l0,0v13.1l-0.2-0.2
				l35.3,0.1l10.4,0.1h2.8H96L96.3,497l-0.3-0.1h-0.7h-2.8L82.2,497l-35.5,0.3h-0.2v-13.4l0,0l0.2-0.2l49.6,0.1h0.2v0.2
				c0,4.1-0.1,7.4-0.1,9.7c0,1.1,0,1.9,0,2.5c0,0.3,0,0.5,0,0.6C96.4,496.8,96.3,496.9,96.3,497z"/>
			<path class="st2" d="M684.1,467.3c0-0.1,0-0.2,0-0.2v-0.7c0-0.6,0-1.5,0-2.6c0-2.3,0-5.5-0.1-9.6l0.2,0.2l-49.6,0.1l0.2-0.3l0,0
				v13.1l-0.2-0.2l35.4,0.1l10.4,0.1h2.8h0.7L684.1,467.3c0.1-0.1,0-0.1-0.2-0.1h-0.7h-2.8l-10.4,0.1l-35.5,0.1h-0.2v-13.2l0,0
				l0.2-0.2l49.6,0.1h0.2v0.1c0,4.1-0.1,7.4-0.1,9.7c0,1.1,0,1.9,0,2.5v0.6C684.1,467.2,684.1,467.3,684.1,467.3z"/>
			<path class="st2" d="M690.8,454.2c0,0,0-0.1,0-0.2s0-0.4,0-0.7c0-0.6,0-1.5,0-2.6c0-2.3-0.1-5.6-0.1-9.6l0.2,0.2l-29.9,0.1
				c-0.2,0.2,0.3-0.3,0.2-0.3l0,0v6.8c0,2.2,0,4.3,0,6.4l-0.2-0.2l21.3,0.1l6.2,0.1h1.7h0.6c-0.2,0-0.4,0-0.5,0h-1.6l-6.2,0.1
				l-21.5,0.1h-0.2v-0.1c0-2,0-4.2,0-6.4v-6.8l0,0l0.2-0.2l29.8,0.1h0.2v0.2c0,4-0.1,7.3-0.1,9.7c0,1.1,0,2,0,2.6
				C690.9,453.6,690.9,453.9,690.8,454.2z"/>
			<path class="st2" d="M94.2,303.1c0,0,0-0.1,0-0.2c0-0.2,0-0.4,0-0.7c0-0.6,0-1.5,0-2.6c0-2.3-0.1-5.5-0.1-9.6l0.2,0.2l-49.6,0.1
				l0.2-0.2l0,0v13.1l-0.2-0.2l35.4,0.1l10.4,0.1h2.8H94C94.1,303,94.2,303,94.2,303.1c0-0.1,0-0.1-0.2-0.1h-0.7h-2.8l-10.4,0.2
				l-35.5,0.1h-0.2V290l0,0l0.2-0.2l49.6,0.1h0.2v0.1c0,4.2-0.1,7.4-0.1,9.7c0,1.1,0,1.9,0,2.6c0,0.3,0,0.5,0,0.6
				C94.3,303.1,94.2,303.1,94.2,303.1z"/>
			<path class="st2" d="M101,290c0,0,0-0.1,0-0.2s0-0.4,0-0.7c0-0.6,0-1.5,0-2.6c0-2.3-0.1-5.6-0.1-9.6l0.2,0.2l-29.8,0.1
				c-0.2,0.2,0.3-0.3,0.2-0.2l0,0v6.7c0,2.2,0,4.3,0,6.4l-0.2-0.2l21.3,0.1l6.2,0.1h1.7L101,290c-0.1-0.1-0.3-0.1-0.4-0.1h-1.6
				l-6.2,0.1l-21.5,0.1H71v-0.2c0-2,0-4.2,0-6.4v-6.6l0,0c-0.1,0,0.5-0.5,0.2-0.2l29.8,0.1h0.2v0.2c0,4-0.1,7.3-0.1,9.7
				c0,1.1,0,2,0,2.6C101.2,289.4,101.1,289.7,101,290z"/>
		</g>
	</g>
</g>
<g id="freepik--Floor--inject-53">
	
		<image style="overflow:visible;opacity:0.2;" width="728" height="121" xlink:href="8C400445.png"  transform="matrix(1 0 0 1 15 606.2143)">
	</image>
	<g>
		<g>
			<path class="st4" d="M675.5,659.6c0,0.1-135.9,0.3-303.6,0.3s-303.6-0.1-303.6-0.3s135.9-0.3,303.6-0.3S675.5,659.4,675.5,659.6z
				"/>
		</g>
	</g>
</g>
<g id="freepik--Device--inject-53">
	
		<image style="overflow:visible;opacity:0.2;" width="324" height="538" xlink:href="8C400443.png"  transform="matrix(1 0 0 1 224 189.2143)">
	</image>
	<g>
		<g>
			<path class="st4" d="M448.3,660.2l-140.7-0.7c-17-0.1-30.6-14-30.5-31c0,0,0,0,0,0l1.5-354.9c0-17,13.8-30.7,30.8-30.7
				c0,0,0,0,0,0l140.7,0.6c17,0.1,30.6,14,30.5,31c0,0,0,0,0,0l-1.5,354.9C479.1,646.4,465.3,660.2,448.3,660.2z"/>
			<path class="st1" d="M449.9,255.8l-27.3-0.1l-79.6-0.4h-9.6l-23.9-0.1c-11.9,0-21.5,9.6-21.6,21.5l-1.5,346.4
				c-0.1,11.9,9.5,21.6,21.4,21.7l140.4,0.7c11.9,0,21.5-9.6,21.6-21.5c0,0,0,0,0,0l1.5-346.4C471.4,265.7,461.8,255.9,449.9,255.8
				C449.9,255.8,449.9,255.8,449.9,255.8z"/>
			<path class="st2" d="M453.6,282c0,1-0.8,1.7-1.7,1.7c-1,0-1.7-0.8-1.7-1.7c0-1,0.8-1.7,1.7-1.7C452.8,280.2,453.6,281,453.6,282z
				"/>
			<path class="st2" d="M453.6,288.2c0,1-0.8,1.7-1.7,1.7c-1,0-1.7-0.8-1.7-1.7l0,0c0-1,0.8-1.7,1.7-1.7
				C452.8,286.5,453.6,287.3,453.6,288.2z"/>
			<path class="st2" d="M453.6,294.5c0,1-0.8,1.7-1.7,1.7c-1,0-1.7-0.8-1.7-1.7c0-1,0.8-1.7,1.7-1.7c0,0,0,0,0,0
				C452.8,292.7,453.6,293.5,453.6,294.5z"/>
			
				<ellipse transform="matrix(0.2309 -0.973 0.973 0.2309 -37.1738 527.3815)" class="st2" cx="315" cy="287.2" rx="11.5" ry="11.5"/>
			<path class="st2" d="M354.4,285.9h60.2c1.8,0,3.2,1.4,3.2,3.2v1.5c0,1.8-1.4,3.2-3.2,3.2h-60.2c-1.8,0-3.2-1.4-3.2-3.2v-1.5
				C351.2,287.3,352.6,285.9,354.4,285.9z"/>
		</g>
	</g>
</g>
<g id="freepik--voice-chat--inject-53">
	
		<image style="overflow:visible;opacity:0.2;" width="443" height="362" xlink:href="8C40044C.png"  transform="matrix(1 0 0 1 168 279.2143)">
	</image>
	<g>
		<g>
			<path class="st5" d="M251.4,333.6h183.7c16.5,0,29.9,13.4,29.9,29.9v3.2c0,16.5-13.4,29.9-29.9,29.9H251.4
				c-16.5,0-29.9-13.4-29.9-29.9v-3.2C221.5,347,234.9,333.6,251.4,333.6z"/>
			<path class="st4" d="M435.1,397.1H251.4c-16.8,0-30.4-13.6-30.4-30.4v-3.2c0-16.8,13.6-30.4,30.4-30.4h183.7
				c16.8,0,30.4,13.6,30.4,30.4v3.2C465.5,383.5,451.9,397.1,435.1,397.1z M251.4,334.1c-16.2,0-29.4,13.2-29.4,29.4v3.2
				c0,16.2,13.2,29.4,29.4,29.4h183.7c16.2,0,29.4-13.2,29.4-29.4v-3.2c0-16.2-13.2-29.4-29.4-29.4H251.4z"/>
			<path class="st6" d="M296.4,378.6c-0.8,0-1.5-0.7-1.5-1.5v-23c0-0.8,0.7-1.5,1.5-1.5s1.5,0.7,1.5,1.5v23
				C297.9,377.9,297.2,378.6,296.4,378.6z"/>
			<path class="st6" d="M288.9,375c-0.8,0-1.5-0.7-1.5-1.5v-15.8c0-0.8,0.7-1.5,1.5-1.5s1.5,0.7,1.5,1.5v15.8
				C290.4,374.3,289.8,375,288.9,375z"/>
			<path class="st6" d="M303.9,375c-0.8,0-1.5-0.7-1.5-1.5v-15.8c0-0.8,0.7-1.5,1.5-1.5s1.5,0.7,1.5,1.5v15.8
				C305.4,374.3,304.7,375,303.9,375z"/>
			<path class="st6" d="M311.3,371.8c-0.8,0-1.5-0.7-1.5-1.5V361c0-0.8,0.7-1.5,1.5-1.5s1.5,0.7,1.5,1.5v9.3
				C312.8,371.1,312.2,371.8,311.3,371.8z"/>
			<path class="st6" d="M430.9,378.6c-0.8,0-1.5-0.7-1.5-1.5v-23c0-0.8,0.7-1.5,1.5-1.5s1.5,0.7,1.5,1.5v23
				C432.4,377.9,431.7,378.6,430.9,378.6z"/>
			<path class="st6" d="M423.4,375c-0.8,0-1.5-0.7-1.5-1.5v-15.8c0-0.8,0.7-1.5,1.5-1.5s1.5,0.7,1.5,1.5v15.8
				C424.9,374.3,424.2,375,423.4,375z"/>
			<path class="st6" d="M438.3,375c-0.8,0-1.5-0.7-1.5-1.5v-15.8c0-0.8,0.7-1.5,1.5-1.5s1.5,0.7,1.5,1.5v15.8
				C439.8,374.3,439.1,375,438.3,375z"/>
			<path class="st6" d="M445.8,371.8c-0.8,0-1.5-0.7-1.5-1.5V361c0-0.8,0.7-1.5,1.5-1.5s1.5,0.7,1.5,1.5v9.3
				C447.3,371.1,446.6,371.8,445.8,371.8z"/>
			<path class="st6" d="M318.8,374.7c-0.8,0-1.5-0.7-1.5-1.5V358c0-0.8,0.7-1.5,1.5-1.5s1.5,0.7,1.5,1.5v15.2
				C320.3,374,319.6,374.7,318.8,374.7z"/>
			<path class="st6" d="M326.3,378c-0.8,0-1.5-0.7-1.5-1.5v-21.8c0-0.8,0.7-1.5,1.5-1.5s1.5,0.7,1.5,1.5v21.8
				C327.8,377.4,327.1,378,326.3,378z"/>
			<path class="st6" d="M333.8,382c-0.8,0-1.5-0.7-1.5-1.5v-29.8c0-0.8,0.7-1.5,1.5-1.5s1.5,0.7,1.5,1.5v29.8
				C335.2,381.3,334.6,382,333.8,382z"/>
			<path class="st6" d="M341.2,378.2c-0.8,0-1.5-0.7-1.5-1.5v-22.2c0-0.8,0.7-1.5,1.5-1.5s1.5,0.7,1.5,1.5v22.2
				C342.7,377.5,342.1,378.2,341.2,378.2C341.2,378.2,341.2,378.2,341.2,378.2z"/>
			<path class="st6" d="M348.7,374.6c-0.8,0-1.5-0.7-1.5-1.5v-15c0-0.8,0.7-1.5,1.5-1.5s1.5,0.7,1.5,1.5v15
				C350.2,374,349.5,374.6,348.7,374.6z"/>
			<path class="st6" d="M356.1,372.7c-0.8,0-1.5-0.7-1.5-1.5V360c0-0.8,0.7-1.5,1.5-1.5s1.5,0.7,1.5,1.5v11.2
				C357.7,372,357,372.7,356.1,372.7C356.2,372.7,356.2,372.7,356.1,372.7z"/>
			<path class="st6" d="M363.6,378.4c-0.8,0-1.5-0.7-1.5-1.5v-22.6c0-0.8,0.7-1.5,1.5-1.5s1.5,0.7,1.5,1.5v22.6
				C365.1,377.8,364.4,378.4,363.6,378.4z"/>
			<path class="st6" d="M393.5,378.4c-0.8,0-1.5-0.7-1.5-1.5v-22.6c0-0.8,0.7-1.5,1.5-1.5s1.5,0.7,1.5,1.5v22.6
				C395,377.8,394.3,378.4,393.5,378.4z"/>
			<path class="st6" d="M371.1,382c-0.8,0-1.5-0.7-1.5-1.5v-29.8c0-0.8,0.7-1.5,1.5-1.5s1.5,0.7,1.5,1.5v29.8
				C372.6,381.3,371.9,382,371.1,382z"/>
			<path class="st6" d="M378.6,388c-0.8,0-1.5-0.7-1.5-1.5v-41.8c0-0.8,0.7-1.5,1.5-1.5s1.5,0.7,1.5,1.5v41.8
				C380.1,387.4,379.4,388,378.6,388z"/>
			<path class="st6" d="M386,382c-0.8,0-1.5-0.7-1.5-1.5v-29.8c0-0.8,0.7-1.5,1.5-1.5s1.5,0.7,1.5,1.5v29.8
				C387.5,381.3,386.8,382,386,382z"/>
			<path class="st6" d="M401,372.7c-0.8,0-1.5-0.7-1.5-1.5V360c0-0.8,0.7-1.5,1.5-1.5s1.5,0.7,1.5,1.5v11.2
				C402.5,372,401.8,372.7,401,372.7C401,372.7,401,372.7,401,372.7z"/>
			<path class="st6" d="M415.9,372.7c-0.8,0-1.5-0.7-1.5-1.5V360c0-0.8,0.7-1.5,1.5-1.5s1.5,0.7,1.5,1.5v11.2
				C417.4,372,416.7,372.7,415.9,372.7C415.9,372.7,415.9,372.7,415.9,372.7z"/>
			<path class="st6" d="M408.4,370.9c-0.8,0-1.5-0.7-1.5-1.5v-7.5c0-0.8,0.7-1.5,1.5-1.5s1.5,0.7,1.5,1.5v7.5
				C409.9,370.2,409.3,370.9,408.4,370.9z"/>
			<path class="st6" d="M281.5,372.7c-0.8,0-1.5-0.7-1.5-1.5V360c0-0.8,0.7-1.5,1.5-1.5s1.5,0.7,1.5,1.5v11.2
				C283,372,282.3,372.7,281.5,372.7C281.5,372.7,281.5,372.7,281.5,372.7z"/>
			
				<ellipse transform="matrix(0.1602 -0.9871 0.9871 0.1602 -148.8206 555.0309)" class="st6" cx="251.8" cy="365" rx="21.2" ry="21.2"/>
			<path class="st1" d="M246.2,365.6v-6.2c0-1.2,0.9-2.1,2.1-2.1c0.4,0,0.7,0.1,1,0.3l5.4,3.1l5.4,3.1c1,0.6,1.3,1.8,0.8,2.8
				c-0.2,0.3-0.5,0.6-0.8,0.8l-5.4,3.1l-5.4,3.1c-1,0.6-2.3,0.2-2.9-0.8c-0.2-0.3-0.3-0.7-0.3-1L246.2,365.6z"/>
			<path class="st5" d="M263.9,509.9h183.7c16.5,0,29.9,13.4,29.9,29.9v3.2c0,16.5-13.4,29.9-29.9,29.9H263.9
				c-16.5,0-29.9-13.4-29.9-29.9v-3.2C234,523.3,247.4,509.9,263.9,509.9z"/>
			<path class="st4" d="M447.6,573.4H263.9c-16.8,0-30.4-13.6-30.4-30.4v-3.2c0-16.8,13.6-30.4,30.4-30.4h183.7
				c16.8,0,30.4,13.6,30.4,30.4v3.2C478,559.8,464.4,573.4,447.6,573.4z M263.9,510.4c-16.2,0-29.4,13.2-29.4,29.4v3.2
				c0,16.2,13.2,29.4,29.4,29.4h183.7c16.2,0,29.4-13.2,29.4-29.4v-3.2c0-16.2-13.2-29.4-29.4-29.4H263.9z"/>
			<path class="st6" d="M308.9,554.9c-0.8,0-1.5-0.7-1.5-1.5v-23c0-0.8,0.7-1.5,1.5-1.5s1.5,0.7,1.5,1.5v23
				C310.4,554.2,309.7,554.9,308.9,554.9z"/>
			<path class="st6" d="M301.4,551.3c-0.8,0-1.5-0.7-1.5-1.5V534c0-0.8,0.7-1.5,1.5-1.5s1.5,0.7,1.5,1.5v15.8
				C302.9,550.6,302.3,551.3,301.4,551.3z"/>
			<path class="st6" d="M316.4,551.3c-0.8,0-1.5-0.7-1.5-1.5V534c0-0.8,0.7-1.5,1.5-1.5s1.5,0.7,1.5,1.5v15.8
				C317.9,550.6,317.2,551.3,316.4,551.3z"/>
			<path class="st6" d="M323.8,548.1c-0.8,0-1.5-0.7-1.5-1.5v-9.4c0-0.8,0.7-1.5,1.5-1.5s1.5,0.7,1.5,1.5v9.3
				C325.4,547.4,324.7,548.1,323.8,548.1C323.9,548.1,323.8,548.1,323.8,548.1z"/>
			<path class="st2" d="M443.4,554.9c-0.8,0-1.5-0.7-1.5-1.5v-23c0-0.8,0.7-1.5,1.5-1.5s1.5,0.7,1.5,1.5v23
				C444.9,554.2,444.2,554.9,443.4,554.9z"/>
			<path class="st2" d="M435.9,551.3c-0.8,0-1.5-0.7-1.5-1.5V534c0-0.8,0.7-1.5,1.5-1.5s1.5,0.7,1.5,1.5v15.8
				C437.4,550.6,436.7,551.3,435.9,551.3z"/>
			<path class="st2" d="M450.8,551.3c-0.8,0-1.5-0.7-1.5-1.5V534c0-0.8,0.7-1.5,1.5-1.5s1.5,0.7,1.5,1.5v15.8
				C452.3,550.6,451.6,551.3,450.8,551.3z"/>
			<path class="st2" d="M458.3,548.1c-0.8,0-1.5-0.7-1.5-1.5v-9.4c0-0.8,0.7-1.5,1.5-1.5s1.5,0.7,1.5,1.5v9.3
				C459.8,547.4,459.1,548.1,458.3,548.1C458.3,548.1,458.3,548.1,458.3,548.1z"/>
			<path class="st6" d="M331.3,551c-0.8,0-1.5-0.7-1.5-1.5v-15.2c0-0.8,0.7-1.5,1.5-1.5s1.5,0.7,1.5,1.5v15.2
				C332.8,550.3,332.1,551,331.3,551z"/>
			<path class="st6" d="M338.8,554.3c-0.8,0-1.5-0.7-1.5-1.5V531c0-0.8,0.7-1.5,1.5-1.5s1.5,0.7,1.5,1.5v21.8
				C340.3,553.6,339.6,554.3,338.8,554.3z"/>
			<path class="st6" d="M346.2,558.3c-0.8,0-1.5-0.7-1.5-1.5V527c0-0.8,0.7-1.5,1.5-1.5s1.5,0.7,1.5,1.5v29.8
				C347.8,557.6,347.1,558.3,346.2,558.3z"/>
			<path class="st2" d="M353.7,554.5c-0.8,0-1.5-0.7-1.5-1.5v-22.2c0-0.8,0.7-1.5,1.5-1.5s1.5,0.7,1.5,1.5V553
				C355.2,553.8,354.5,554.5,353.7,554.5z"/>
			<path class="st2" d="M361.2,550.9c-0.8,0-1.5-0.7-1.5-1.5v-15c0-0.8,0.7-1.5,1.5-1.5s1.5,0.7,1.5,1.5v15
				C362.7,550.2,362,550.9,361.2,550.9z"/>
			<path class="st2" d="M368.7,549c-0.8,0-1.5-0.7-1.5-1.5v-11.2c0-0.8,0.7-1.5,1.5-1.5s1.5,0.7,1.5,1.5v11.2
				C370.2,548.3,369.5,549,368.7,549z"/>
			<path class="st2" d="M376.1,554.7c-0.8,0-1.5-0.7-1.5-1.5v-22.7c0-0.8,0.7-1.5,1.5-1.5s1.5,0.7,1.5,1.5v22.6
				C377.6,554,377,554.7,376.1,554.7C376.1,554.7,376.1,554.7,376.1,554.7z"/>
			<path class="st2" d="M406,554.7c-0.8,0-1.5-0.7-1.5-1.5v-22.7c0-0.8,0.7-1.5,1.5-1.5s1.5,0.7,1.5,1.5v22.6
				C407.5,554,406.8,554.7,406,554.7C406,554.7,406,554.7,406,554.7z"/>
			<path class="st2" d="M383.6,558.3c-0.8,0-1.5-0.7-1.5-1.5V527c0-0.8,0.7-1.5,1.5-1.5s1.5,0.7,1.5,1.5v29.8
				C385.1,557.6,384.4,558.3,383.6,558.3z"/>
			<path class="st2" d="M391.1,564.3c-0.8,0-1.5-0.7-1.5-1.5V521c0-0.8,0.7-1.5,1.5-1.5s1.5,0.7,1.5,1.5v41.8
				C392.6,563.7,391.9,564.3,391.1,564.3z"/>
			<path class="st2" d="M398.5,558.3c-0.8,0-1.5-0.7-1.5-1.5V527c0-0.8,0.7-1.5,1.5-1.5s1.5,0.7,1.5,1.5v29.8
				C400,557.6,399.4,558.3,398.5,558.3z"/>
			<path class="st2" d="M413.5,549c-0.8,0-1.5-0.7-1.5-1.5v-11.2c0-0.8,0.7-1.5,1.5-1.5s1.5,0.7,1.5,1.5v11.2
				C415,548.3,414.3,549,413.5,549z"/>
			<path class="st2" d="M428.4,549c-0.8,0-1.5-0.7-1.5-1.5v-11.2c0-0.8,0.7-1.5,1.5-1.5s1.5,0.7,1.5,1.5v11.2
				C429.9,548.3,429.2,549,428.4,549z"/>
			<path class="st2" d="M420.9,547.1c-0.8,0-1.5-0.7-1.5-1.5v-7.4c0-0.8,0.7-1.5,1.5-1.5s1.5,0.7,1.5,1.5v7.5
				C422.4,546.5,421.8,547.1,420.9,547.1z"/>
			<path class="st6" d="M294,549c-0.8,0-1.5-0.7-1.5-1.5v-11.2c0-0.8,0.7-1.5,1.5-1.5s1.5,0.7,1.5,1.5v11.2
				C295.5,548.3,294.8,549,294,549z"/>
			<circle class="st6" cx="264.3" cy="541.2" r="21.2"/>
			<path class="st1" d="M258.7,541.9v-6.2c0-1.1,0.9-2.1,2.1-2.1c0.4,0,0.7,0.1,1.1,0.3l5.4,3.1l5.3,3.1c1,0.6,1.3,1.9,0.8,2.9
				c-0.2,0.3-0.4,0.6-0.8,0.8l-5.3,3.1l-5.4,3.1c-1,0.6-2.3,0.2-2.8-0.7c-0.2-0.3-0.3-0.7-0.3-1.1V541.9z"/>
			<path class="st5" d="M329.6,425.1h183.7c16.5,0,29.9,13.4,29.9,29.9v3.2c0,16.5-13.4,29.9-29.9,29.9H329.6
				c-16.5,0-29.9-13.4-29.9-29.9V455C299.7,438.5,313.1,425.1,329.6,425.1z"/>
			<path class="st4" d="M513.2,488.6H329.6c-16.8,0-30.4-13.6-30.4-30.4V455c0-16.8,13.6-30.4,30.4-30.4h183.7
				c16.8,0,30.4,13.6,30.4,30.4v3.2C543.6,474.9,530,488.5,513.2,488.6z M329.6,425.6c-16.2,0-29.4,13.2-29.4,29.4v3.2
				c0,16.2,13.2,29.4,29.4,29.4h183.7c16.2,0,29.4-13.2,29.4-29.4V455c0-16.2-13.2-29.4-29.4-29.4H329.6z"/>
			<circle class="st7" cx="329.9" cy="456.5" r="21.2"/>
			<path class="st1" d="M324.3,457.1v-6.2c0-1.1,0.9-2.1,2.1-2.1c0.4,0,0.7,0.1,1.1,0.3l5.4,3.1l5.3,3.1c1,0.6,1.3,1.9,0.8,2.9
				c-0.2,0.3-0.4,0.6-0.8,0.8l-5.3,3.1l-5.4,3.1c-1,0.6-2.3,0.2-2.8-0.7c-0.2-0.3-0.3-0.7-0.3-1.1V457.1z"/>
			<path class="st7" d="M374.3,470.6c-0.8,0-1.5-0.7-1.5-1.5v-24c0-0.8,0.7-1.5,1.5-1.5s1.5,0.7,1.5,1.5v24
				C375.8,469.9,375.2,470.6,374.3,470.6z"/>
			<path class="st7" d="M366.5,466.8c-0.8,0-1.5-0.7-1.5-1.5v-16.5c0-0.8,0.7-1.5,1.5-1.5s1.5,0.7,1.5,1.5v16.5
				C367.9,466.2,367.3,466.8,366.5,466.8z"/>
			<path class="st7" d="M468.9,470.6c-0.8,0-1.5-0.7-1.5-1.5v-24c0-0.8,0.7-1.5,1.5-1.5s1.5,0.7,1.5,1.5v24
				C470.3,469.9,469.7,470.6,468.9,470.6z"/>
			<path class="st7" d="M461,466.8c-0.8,0-1.5-0.7-1.5-1.5v-16.5c0-0.8,0.7-1.5,1.5-1.5s1.5,0.7,1.5,1.5v16.5
				C462.5,466.2,461.8,466.8,461,466.8z"/>
			<path class="st7" d="M476.7,466.8c-0.8,0-1.5-0.7-1.5-1.5v-16.5c0-0.8,0.7-1.5,1.5-1.5s1.5,0.7,1.5,1.5v16.5
				C478.2,466.2,477.5,466.8,476.7,466.8z"/>
			<path class="st7" d="M484.6,463.5c-0.8,0-1.5-0.7-1.5-1.5v-9.7c0-0.8,0.7-1.5,1.5-1.5s1.5,0.7,1.5,1.5v9.7
				C486.1,462.8,485.4,463.5,484.6,463.5z"/>
			<path class="st7" d="M500.1,470.6c-0.8,0-1.5-0.7-1.5-1.5v-24c0-0.8,0.7-1.5,1.5-1.5s1.5,0.7,1.5,1.5v24
				C501.6,469.9,501,470.6,500.1,470.6z"/>
			<path class="st7" d="M492.3,466.8c-0.8,0-1.5-0.7-1.5-1.5v-16.5c0-0.8,0.7-1.5,1.5-1.5s1.5,0.7,1.5,1.5v16.5
				C493.8,466.2,493.1,466.8,492.3,466.8z"/>
			<path class="st7" d="M508,466.8c-0.8,0-1.5-0.7-1.5-1.5v-16.5c0-0.8,0.7-1.5,1.5-1.5s1.5,0.7,1.5,1.5v16.5
				C509.5,466.2,508.8,466.8,508,466.8z"/>
			<path class="st7" d="M515.9,463.5c-0.8,0-1.5-0.7-1.5-1.5v-9.7c0-0.8,0.7-1.5,1.5-1.5s1.5,0.7,1.5,1.5v9.7
				C517.4,462.8,516.7,463.5,515.9,463.5z"/>
			<path class="st7" d="M523,462.1c-0.8,0-1.5-0.7-1.5-1.5v-5.4c0-0.8,0.7-1.5,1.5-1.5s1.5,0.7,1.5,1.5v5.4
				C524.5,461.4,523.8,462.1,523,462.1z"/>
			<path class="st7" d="M405.8,470.4c-0.8,0-1.5-0.7-1.5-1.5v-23.7c0-0.8,0.7-1.5,1.5-1.5s1.5,0.7,1.5,1.5v23.6
				C407.4,469.7,406.7,470.4,405.8,470.4C405.9,470.4,405.8,470.4,405.8,470.4z"/>
			<path class="st7" d="M382.2,474.1c-0.8,0-1.5-0.7-1.5-1.5v-31.1c0-0.8,0.7-1.5,1.5-1.5s1.5,0.7,1.5,1.5l0,0v31.1
				C383.7,473.5,383,474.1,382.2,474.1z"/>
			<path class="st7" d="M390.1,480.4c-0.8,0-1.5-0.7-1.5-1.5v-43.7c0-0.8,0.7-1.5,1.5-1.5s1.5,0.7,1.5,1.5l0,0v43.7
				C391.6,479.7,390.9,480.4,390.1,480.4z"/>
			<path class="st7" d="M398,474.1c-0.8,0-1.5-0.7-1.5-1.5v-31.1c0-0.8,0.7-1.5,1.5-1.5s1.5,0.7,1.5,1.5l0,0v31.1
				C399.5,473.5,398.8,474.1,398,474.1z"/>
			<path class="st7" d="M421.6,470.6c-0.8,0-1.5-0.7-1.5-1.5v-24c0-0.8,0.7-1.5,1.5-1.5s1.5,0.7,1.5,1.5v24
				C423.1,469.9,422.4,470.6,421.6,470.6z"/>
			<path class="st7" d="M413.7,466.8c-0.8,0-1.5-0.7-1.5-1.5v-16.5c0-0.8,0.7-1.5,1.5-1.5s1.5,0.7,1.5,1.5v16.5
				C415.2,466.2,414.5,466.8,413.7,466.8z"/>
			<path class="st7" d="M453.1,470.4c-0.8,0-1.5-0.7-1.5-1.5v-23.7c0-0.8,0.7-1.5,1.5-1.5s1.5,0.7,1.5,1.5v23.6
				C454.6,469.7,454,470.4,453.1,470.4C453.1,470.4,453.1,470.4,453.1,470.4z"/>
			<path class="st7" d="M429.5,474.1c-0.8,0-1.5-0.7-1.5-1.5v-31.1c0-0.8,0.7-1.5,1.5-1.5s1.5,0.7,1.5,1.5l0,0v31.1
				C431,473.5,430.3,474.1,429.5,474.1z"/>
			<path class="st7" d="M437.3,480.4c-0.8,0-1.5-0.7-1.5-1.5v-43.7c0-0.8,0.7-1.5,1.5-1.5s1.5,0.7,1.5,1.5l0,0v43.7
				C438.8,479.7,438.2,480.4,437.3,480.4z"/>
			<path class="st7" d="M445.2,474.1c-0.8,0-1.5-0.7-1.5-1.5v-31.1c0-0.8,0.7-1.5,1.5-1.5s1.5,0.7,1.5,1.5l0,0v31.1
				C446.7,473.5,446,474.1,445.2,474.1z"/>
			<path class="st7" d="M358.6,464.4c-0.8,0-1.5-0.7-1.5-1.5v-11.7c0-0.8,0.7-1.5,1.5-1.5s1.5,0.7,1.5,1.5v11.7
				C360.1,463.7,359.4,464.4,358.6,464.4C358.6,464.4,358.6,464.4,358.6,464.4z"/>
		</g>
	</g>
</g>
<g id="freepik--character-2--inject-53">
	
		<image style="overflow:visible;opacity:0.2;" width="296" height="541" xlink:href="8C40044F.png"  transform="matrix(1 0 0 1 435 202.2143)">
	</image>
	<g>
		<g>
			<path class="st8" d="M511.7,355.1c1.5,2,3.2,3.9,5,5.5c2,1.5,3.7,1.5,5.5,4.6s3.9,6.4,3.9,6.4s14.8,6.8,14.5,7l-9,13.7l-15.6-12
				l-17.5-5.1l-9.1-9.4l0.3-1l-1.2-2c0,0,0.6-2.8,3-1.4c0,0-1-2.9,2.6-1.6c3.6,1.3,10.5,5.2,11,5.1c0.5,0,6.6,0.8,6.6,0.8l2.7-1
				c-1.5-0.6-2.7-1.6-3.5-2.9c-1.1-2-2.8-3-2-5C509.3,355.6,510.5,354.9,511.7,355.1z"/>
			<path class="st9" d="M516.9,372c-0.3,0-0.7-0.1-1-0.2c-0.9-0.1-1.8-0.2-2.7-0.1c-3.1,0.2-6.1,0.8-9,1.7h-0.1H504l-1.9-0.7l-1-0.4
				H501v-0.1c-0.7-1.2-1.5-2.3-2.1-3.4c-0.3-0.5-0.7-0.9-1.2-1.1c-0.5-0.1-1-0.1-1.4,0.2l0.1-0.2c0.9,3.8,1.3,6.3,1.1,6.4
				c-0.2,0-0.1-0.6-0.4-1.7c-0.3-1.1-0.6-2.7-1.1-4.5v-0.1l0.1-0.1c0.5-0.4,1.2-0.5,1.8-0.4c0.6,0.3,1.1,0.7,1.5,1.3l2.1,3.4
				l-0.1-0.1l1,0.4l1.9,0.7h-0.2c3-0.9,6-1.5,9.1-1.6c0.9,0,1.8,0.1,2.7,0.3C516.3,371.8,516.6,371.9,516.9,372z"/>
			<path class="st9" d="M502.9,367.8c-2-0.9-3.9-1.9-5.8-3.1c-1.9-1-3.8-2.2-5.5-3.5c2,0.9,3.9,1.9,5.8,3.1
				C499.3,365.3,501.2,366.5,502.9,367.8z"/>
			<path class="st9" d="M495.5,367.9c0,0.1-0.4-0.2-0.8-0.7c-0.6-0.6-1.2-1.2-1.9-1.6c-0.7-0.5-1.4-0.8-2.2-0.9c-0.6-0.1-1,0-1-0.1
				c0,0,0.4-0.3,1-0.3c0.9,0,1.8,0.3,2.5,0.8c0.7,0.5,1.3,1.1,1.9,1.8C495.3,367.5,495.5,367.9,495.5,367.9z"/>
			<path class="st9" d="M506.4,365.9c-0.9,0.7-1.8,1.5-2.5,2.5c-0.6,1-1,2.1-1.3,3.2c-0.1,0-0.1-0.4,0-1.1c0.1-0.9,0.4-1.7,0.9-2.4
				c0.5-0.7,1.1-1.4,1.9-1.8C506,366,506.4,365.9,506.4,365.9z"/>
			<path class="st7" d="M568,336.1l-1.8,0.4c-4.7,3.2-7.7,8.2-8.2,13.9c-0.6,5.6-3.1,33.3-3.1,33.3l-17-8.7l-11.5,20.9
				c0,0,24.5,20.9,29.7,22.8c10.2,3.9,16.4-5.2,16.4-5.2L568,336.1z"/>
			<path class="st7" d="M541.3,374.8c-2-0.8-3.9-1.7-5.6-0.5c-1.7,1.3-3,2.9-4,4.8c-3.2,5.4-5.4,9.4-8.7,14.8l3.4,3.4
				c2.7,2.3,6.3,2.8,7.8-0.1c1.2-2.1,1.6-2.2,2.8-4.3l6.5-11.2c0.7-1,1.1-2.1,1.3-3.3C545.1,376.5,543.2,375.6,541.3,374.8z"/>
			<path class="st4" d="M544.3,379.2c0,0.3-0.1,0.6-0.3,0.9c-0.2,0.6-0.5,1.4-0.9,2.5c-0.8,2.1-2.1,4.9-3.7,7.9
				c-0.8,1.5-1.5,2.9-2.4,4.2c-0.7,1.1-1.6,2.1-2.5,3c-0.7,0.6-1.5,1.1-2.3,1.4c-0.3,0.1-0.7,0.2-1,0.2c1.1-0.4,2.1-1.1,3-1.9
				c0.9-0.9,1.7-1.9,2.4-3c0.8-1.2,1.5-2.7,2.3-4.2c1.6-3,2.9-5.8,3.8-7.8C543.2,381.4,543.7,380.3,544.3,379.2z"/>
			<path class="st4" d="M559.1,403.2c-0.1,0,0-1.2,0-3.1c-0.1-2.5-0.4-4.9-0.9-7.3c-0.6-2.4-1.4-4.7-2.4-6.9
				c-0.5-0.9-0.9-1.8-1.3-2.8c0,0,0.2,0.2,0.5,0.7c0.4,0.6,0.8,1.3,1.1,1.9c1.2,2.2,2,4.6,2.6,7c0.6,2.4,0.8,4.9,0.8,7.4
				c0,0.8-0.1,1.5-0.2,2.2C559.3,402.7,559.2,403,559.1,403.2z"/>
			<path class="st7" d="M591.2,625.4l1,22.4c0,0-22.4,8.6-22.6,12.7l43.4-0.5l-0.2-34.9L591.2,625.4z"/>
			<path class="st2" d="M605.6,645.8c0.9,0.3,1.4,1.1,1.2,2c-0.2,0.9-1.1,1.4-2,1.3c-0.9-0.3-1.5-1.2-1.3-2.1
				c0.3-0.9,1.3-1.4,2.2-1.1"/>
			<path class="st4" d="M613.1,660.1l-0.2-3.5l-41.6,1.8c0,0-1.9,0.9-1.7,2.2L613.1,660.1z"/>
			<path class="st1" d="M591.5,647.6c0,0.2,1.1,0.3,2.1,1s1.6,1.6,1.8,1.5c0.2-0.1-0.1-1.3-1.4-2.1
				C592.7,647.2,591.5,647.4,591.5,647.6z"/>
			<path class="st1" d="M587,649.5c0,0.2,0.9,0.6,1.6,1.5s1,1.8,1.2,1.8s0.3-1.2-0.6-2.3C588.2,649.4,587,649.3,587,649.5z"/>
			<path class="st1" d="M584.4,655c0.2,0,0.5-1-0.1-2.2s-1.5-1.6-1.6-1.4s0.5,0.8,1,1.8C584.2,654.1,584.2,655,584.4,655z"/>
			<path class="st1" d="M591.8,642.5c0.1,0.2,1.1-0.1,2.3,0s2.1,0.4,2.2,0.2s-0.8-0.9-2.2-1S591.7,642.3,591.8,642.5z"/>
			<path class="st7" d="M642.1,623l2.3,27l-4.3,21.9c-0.3,1.5,0.7,3,2.2,3.3c0.1,0,0.1,0,0.2,0l0,0c0.9,0.1,1.8-0.2,2.4-0.9
				c3.9-4.2,17.6-20,17.6-21.5c0-2.3-0.5-29-0.5-29L642.1,623z"/>
			<path class="st4" d="M642.5,675.2l20-24.5l0.1,1.1c0,1-0.2,2-0.8,2.8c-1.6,2.1-6.1,7.9-16.8,19.7
				C644.3,675,643.4,675.4,642.5,675.2L642.5,675.2z"/>
			<path class="st2" d="M656.4,642.4c-0.7,0.5-0.8,1.5-0.3,2.2c0.5,0.7,1.5,0.8,2.2,0.3c0.7-0.6,0.8-1.6,0.3-2.3
				c-0.6-0.6-1.7-0.7-2.3-0.1"/>
			<path class="st1" d="M647.9,663c-0.7-0.8-1.6-1.5-2.5-2c-1-0.3-2.1-0.5-3.2-0.4c0-0.1,0.3-0.3,0.9-0.4c1.7-0.3,3.4,0.4,4.4,1.8
				C647.9,662.6,648,663,647.9,663z"/>
			<path class="st1" d="M646.2,666.7c-0.8-0.4-1.6-0.7-2.5-1c-0.9-0.1-1.8-0.2-2.7-0.2c0.8-0.6,1.9-0.7,2.8-0.4
				C645.5,665.5,646.4,666.7,646.2,666.7z"/>
			<path class="st1" d="M651.2,658.1c-1.2-0.7-2.4-1.3-3.7-1.8c-2.2-0.7-4.1-0.5-4.1-0.7c1.4-0.5,2.9-0.4,4.2,0.1
				C650,656.5,651.3,658,651.2,658.1z"/>
			<path class="st1" d="M651.2,649.9c-0.1,0.2-1.6-0.4-3.5-0.3s-3.5,0.6-3.5,0.5c1-0.8,2.3-1.1,3.5-1
				C648.9,648.8,650.2,649.2,651.2,649.9z"/>
			<path class="st1" d="M650.7,641.9c-1.2-0.3-2.4-0.4-3.7-0.4c-2,0.2-3.4,1.3-3.5,1.1c-0.1-0.2,0.2-0.4,0.8-0.8
				c0.8-0.5,1.7-0.8,2.7-0.9c0.9-0.1,1.9,0,2.8,0.4C650.4,641.6,650.7,641.9,650.7,641.9z"/>
			<path class="st1" d="M647,640c-0.1-0.3-0.1-0.7-0.1-1c0-0.9,0.3-1.9,0.6-2.7c0.2-0.7,0.7-1.2,1.3-1.6c0.4-0.2,0.9-0.2,1.3,0.2
				c0.3,0.3,0.5,0.8,0.5,1.2c0,1.9-1.4,3.5-3.2,3.8c-1.8,0.3-3.6-0.5-4.6-2.1c-0.2-0.4-0.3-0.9-0.2-1.3c0.2-0.4,0.6-0.7,1.1-0.7
				c0.7,0.1,1.3,0.4,1.8,0.8c0.8,0.5,1.5,1.2,2,2c0.2,0.3,0.4,0.6,0.5,0.9c-0.8-1-1.7-1.8-2.7-2.5c-0.5-0.4-1-0.6-1.6-0.7
				c-0.3,0-0.5,0.1-0.6,0.3c-0.1,0.3,0,0.6,0.2,0.9c0.9,1.3,2.4,2,4,1.8c1.6-0.3,2.7-1.6,2.8-3.2c0-0.3-0.1-0.6-0.3-0.8
				c-0.2-0.2-0.5-0.2-0.7-0.1c-0.5,0.3-0.9,0.8-1.1,1.3C647.4,637.6,647.1,638.8,647,640z"/>
			<path class="st4" d="M663.5,640.2l-8-93.2l-9.3-89.5l-3.5-26l-74.7,6c-2.1,9.3-2.8,18.8-2.1,28.3c0,0.3,0.1,1.1,0.2,2.2l-0.5-0.2
				c0,0,1.5,45.3,3.3,57.7c1.7,12.4,4.8,31.4,7,39c2.3,8,3.2,35.2,3.4,42.3c0.1,3.9,0.7,14.8,2.8,21.5c1.2,3.8,4.5,6.5,8.5,6.9l0,0
				l0.9,5.8l22.5-2.9l-7-139.6c0-1.1,1.3-1.1,2.3-1.3c0.4-0.1,0.8,0,1.1,0.3c2.8,23.4,8,65.9,9.7,70.6c2.3,6.4,7,48.6,10.6,58.2
				c2.8,7.4,10.4,10.1,10.4,10.1l0.6,3.6L663.5,640.2z"/>
			<path class="st7" d="M645.7,556.8c-2-1.9-3.9-3.9-5.6-6c-1.9-2-3.6-4.1-5.2-6.3c2,1.9,3.9,3.9,5.6,6
				C642.3,552.5,644,554.6,645.7,556.8z"/>
			<path class="st7" d="M590.7,548.5c-0.7,1.5-1.5,3-2.5,4.3c-0.8,1.4-1.8,2.8-2.9,4c0.7-1.5,1.5-3,2.5-4.3
				C588.6,551.1,589.5,549.7,590.7,548.5z"/>
			<path class="st4" d="M573.9,269.8c0.9-2.1,2.3-3.9,3.9-5.4c1.7-1.5,4-2.3,6.2-2c2.3,0.4,4,2.2,4.3,4.5l1.6,0.6
				c-3.2,1.8-5.2,5.2-6.6,8.6c-1.4,3.4-1.5,6.7-3.8,9.5c-1.7-2.3-3.7-4.8-3.8-7.7c-1,1.7-1.4,3.7-1,5.6c-2-1.6-3-4.1-2.9-6.6
				C572,274.4,572.7,272,573.9,269.8z"/>
			<path class="st4" d="M586.3,264.2c1.7-7.6,11.5-8.5,17.8-8.3s12.1,3.5,16.4,8s7.2,10,9.6,15.6l-4.5,0.5c1.3-0.1,2.6,0.7,3,2
				c0.3,1.2,0.4,2.5,0.1,3.8c-0.4,3-1.1,6.1-1.9,9c-2.4,7.7-7.1,14.4-11.8,21c-1.1-6,0.1-12.2,1.5-18.1c0.5-2.1,1-4.4,0.2-6.4
				c-0.8-1.8-2.2-3.3-4-4.2c-1.7-1-3.6-1.6-5.3-2.6c-3.8-2.2-6.6-5.9-7.7-10.2L586.3,264.2z"/>
			<path class="st8" d="M619.4,285.8l-3.2,45.5c-0.5,7.7-2.9,19-15.1,17.6l0,0c-10.5-2-12.5-12.3-11.9-19.5c0.2-3.4,0.4-6.3,0.5-6.6
				c0,0-11.5-1.9-11.5-13.4c0-5.6,0.9-17,1.8-27.4c1-11.1,10.4-19.6,21.6-19.5h1.1C614.5,263.2,620.5,273.8,619.4,285.8z"/>
			<path class="st9" d="M589.5,322.7c5.3,0,10.5-1.5,15-4.3c0,0-3.8,8.4-15.2,7.2L589.5,322.7z"/>
			<path class="st4" d="M599,288.2c0.2,0.2,1.6-0.7,3.5-0.6c1.9,0.1,3.3,1.2,3.5,0.9c0.2-0.2-0.1-0.6-0.7-1c-0.8-0.6-1.8-1-2.8-1
				c-1-0.1-2,0.2-2.8,0.8C599.1,287.7,598.9,288.1,599,288.2z"/>
			<path class="st4" d="M598,293.3c0,0.8,0.6,1.5,1.5,1.6c0.8,0.1,1.5-0.5,1.6-1.3c0,0,0,0,0,0c0-0.8-0.6-1.6-1.5-1.6
				C598.9,291.9,598.1,292.5,598,293.3C598.1,293.3,598.1,293.3,598,293.3z"/>
			<path class="st4" d="M593.1,301.1c-0.9-0.3-1.9-0.5-2.9-0.6c-0.5,0-0.9-0.1-1-0.4c0-0.5,0.1-0.9,0.3-1.3c0.4-1.1,0.9-2.2,1.4-3.4
				c1.9-4.9,3.3-8.9,3.1-9c-0.2-0.1-1.9,3.8-3.8,8.7c-0.5,1.2-0.9,2.4-1.3,3.5c-0.3,0.5-0.4,1.2-0.3,1.8c0.1,0.3,0.4,0.6,0.7,0.7
				c0.3,0.1,0.5,0.1,0.8,0.1C591.1,301.2,592.1,301.2,593.1,301.1z"/>
			<path class="st4" d="M600.4,281.1c0.2,0.4,1.7,0.2,3.5,0.5s3.3,0.8,3.5,0.4c0.1-0.2-0.1-0.6-0.7-1c-1.6-1.1-3.6-1.3-5.4-0.7
				C600.7,280.5,600.4,280.8,600.4,281.1z"/>
			<path class="st4" d="M581.9,283.1c0.2,0.4,1.7,0.1,3.5,0.2s3.3,0.5,3.5,0.1c0.1-0.2-0.2-0.5-0.8-0.8c-0.8-0.4-1.7-0.6-2.6-0.7
				c-0.9-0.1-1.9,0.1-2.7,0.4C582.2,282.6,581.9,282.9,581.9,283.1z"/>
			<path class="st8" d="M618.3,294.3c0.2-0.1,7.9-2.2,7.6,5.6s-8.2,5.9-8.2,5.7C617.8,305.4,618.3,294.3,618.3,294.3z"/>
			<path class="st9" d="M620.3,302.7c0,0,0.1,0.1,0.4,0.2c0.3,0.1,0.7,0.2,1,0.1c0.8-0.3,1.6-1.6,1.7-3c0.1-0.7-0.1-1.4-0.3-2
				c-0.1-0.5-0.5-0.9-1-1.1c-0.3-0.1-0.7,0-0.8,0.3c-0.1,0.2-0.1,0.4-0.1,0.4s-0.2-0.1-0.1-0.5c0.1-0.2,0.2-0.4,0.3-0.5
				c0.2-0.2,0.5-0.2,0.8-0.2c0.6,0.2,1.2,0.6,1.4,1.3c0.3,0.7,0.4,1.5,0.4,2.2c-0.1,1.6-1,3-2.1,3.3c-0.4,0.1-0.9,0-1.2-0.3
				C620.3,302.9,620.3,302.7,620.3,302.7z"/>
			<path class="st4" d="M581.5,287.4c0.2,0.2,1.6-0.7,3.5-0.6c1.9,0.1,3.3,1.2,3.5,0.9c0.2-0.2-0.1-0.5-0.7-1c-0.8-0.6-1.8-1-2.8-1
				c-1-0.1-2,0.2-2.8,0.8C581.6,286.9,581.4,287.3,581.5,287.4z"/>
			<path class="st4" d="M582.9,292.7c0,0.8,0.6,1.5,1.5,1.6c0.8,0.1,1.5-0.5,1.6-1.3c0,0,0,0,0-0.1c0-0.8-0.6-1.5-1.5-1.6
				C583.7,291.3,583,291.9,582.9,292.7C582.9,292.7,582.9,292.7,582.9,292.7z"/>
			<path class="st4" d="M586,268.2c-1.2-4.8,2.7-7,6.9-9.7c4.3-2.7,9.9-2.5,14,0.5c2.1,1.6,3.5,3.8,5.3,5.7c1.8,1.9,4.2,3.5,6.8,3.4
				c-2.8,2.7-7,3.3-10.5,1.6c2.9,3.6,6.7,6.2,11.1,7.6c-3.5,2.1-8,1.4-10.7-1.7c1,3.7,2.9,7.2,5.6,10c0.4,0.5,1,1.1,0.8,1.7
				c-0.2,0.6-1,0.8-1.7,0.8c-4,0.1-7.7-1.9-9.7-5.3c-2.1-3.6-3.4-7.4-5.3-11.1c-0.9-1.8-3.8-4.9-6.2-5c-2-0.1-5.7,0.5-6.6,2.3"/>
			<path class="st4" d="M603.8,264.2c0.4-0.5,1-0.8,1.7-0.9c4.3-0.7,8.7,2,11.2,5.6s3.3,8.1,3.9,12.5c0.5,3.5,0.7,7.2-0.5,10.6
				l-2.1,2.8c-0.5,0.9-0.8,1.9-0.9,3c-0.3,1-1.1,2.1-2.1,1.9c-0.8-0.2-1.3-0.8-1.5-1.6c-0.7-2.2,0.3-4.7-0.5-6.9
				c-0.5-1.5-1.7-2.6-2.6-3.9c-1.5-2.3-2.5-4.9-3-7.6l-3.6-13.5C603.5,265.6,603.5,264.9,603.8,264.2z"/>
			<path class="st4" d="M586,268.2c-1.2-4.8,2.7-7,6.9-9.7c4.3-2.7,9.9-2.5,14,0.5c2.1,1.6,3.5,3.8,5.3,5.7c1.8,1.9,4.2,3.5,6.8,3.4
				c-2.8,2.7-7,3.3-10.5,1.6c2.9,3.6,6.7,6.2,11.1,7.6c-3.5,2.1-8,1.4-10.7-1.7c1,3.7,2.9,7.2,5.6,10c0.4,0.5,1,1.1,0.8,1.7
				c-0.2,0.6-1,0.8-1.7,0.8c-4,0.1-7.7-1.9-9.7-5.3c-2.1-3.6-3.4-7.4-5.3-11.1c-0.9-1.8-3.8-4.9-6.2-5c-2-0.1-5.7,0.5-6.6,2.3"/>
			<path class="st7" d="M610.8,267.3c0,0-0.4-0.1-1-0.4c-0.9-0.4-1.8-1-2.5-1.7c-1-0.8-2-2-3.2-3.2c-0.7-0.6-1.4-1.2-2.2-1.7
				c-0.9-0.5-1.8-0.9-2.8-1c-1.9-0.3-3.8,0.1-5.6,0.9c-1.4,0.7-2.7,1.6-3.8,2.7c-0.7,0.7-1.4,1.5-2,2.3c-0.3,0.3-0.5,0.6-0.6,0.9
				c0.1,0.1,1-1.2,2.9-3c1.1-1,2.3-1.9,3.7-2.5c1.6-0.8,3.5-1.1,5.3-0.8c1.8,0.4,3.4,1.2,4.7,2.6c1.2,1.2,2.3,2.3,3.3,3.1
				c0.8,0.7,1.7,1.2,2.7,1.6C610.1,267.3,610.5,267.3,610.8,267.3z"/>
			<path class="st7" d="M604.9,274c0,0-0.8-1-1.8-2.8c-0.5-0.9-1.1-1.9-1.9-3c-0.8-1.3-1.9-2.3-3.2-3.1c-1.3-0.8-2.8-1.2-4.3-1.3
				c-1.2,0-2.5,0.2-3.6,0.7c-0.8,0.3-1.5,0.7-2.1,1.3c-0.4,0.4-0.6,0.6-0.6,0.7c0.9-0.6,1.8-1.2,2.8-1.6c1.1-0.4,2.3-0.6,3.4-0.6
				c1.4,0.1,2.8,0.5,4,1.2c1.2,0.8,2.3,1.8,3.1,3c0.8,1.1,1.4,2.1,2,3c0.4,0.7,0.9,1.4,1.5,2C604.6,273.8,604.8,274.1,604.9,274z"/>
			<path class="st7" d="M578.1,273c0.3-0.5,0.6-1.1,0.8-1.7c0.6-1.3,1.5-2.5,2.6-3.5c1.1-0.9,2.5-1.5,3.9-1.7c1.1-0.1,1.8,0.1,1.8,0
				c-0.6-0.3-1.2-0.4-1.9-0.3c-1.5,0.1-3,0.7-4.2,1.7c-1.1,1-2,2.3-2.6,3.7C578.3,271.7,578.1,272.3,578.1,273z"/>
			<path class="st7" d="M610.3,286.9c0.1,0,0.2,0.1,0.3,0.1c0.3,0.1,0.7,0.1,1,0.1c1.3,0.1,2.6-0.1,3.8-0.5c0.9-0.2,1.7-0.7,2.3-1.4
				c0.4-0.4,0.5-1.1,0.2-1.6c-0.3-0.5-0.8-0.9-1.3-1.1c-0.5-0.2-1.1-0.4-1.7-0.5c-0.6-0.2-1.1-0.5-1.7-0.8c-1.2-0.6-2.2-1.5-3.1-2.5
				l-0.3,0.3c2.4,1.3,5.4,0.9,7.4-1l0.2-0.2l-0.3-0.1c-2.1-1-3.9-2.6-5.3-4.5l-0.3,0.4c2.9,1.1,6.2,0.6,8.7-1.4l0.3-0.2l0.3-0.3
				l-0.4-0.1c-1.3-0.5-2.4-1.4-3.3-2.5c-0.8-1.1-1.6-2.2-2.3-3.4c-0.7-1.2-1.5-2.3-2.4-3.3c-6.1-7-16.8-7.7-23.8-1.6c0,0,0,0-0.1,0
				c-0.9,0.7-1.6,1.5-2.2,2.4c0.7-0.8,1.5-1.6,2.3-2.3c2.3-1.9,5.1-3.2,8-3.7c2-0.4,4.1-0.3,6.1,0.1c2.3,0.5,4.5,1.4,6.4,2.8
				c2.1,1.5,3.9,3.5,5.1,5.8c0.7,1.2,1.5,2.4,2.4,3.5c0.9,1.2,2.1,2.1,3.5,2.6l-0.1-0.4l-0.3,0.2c-2.3,1.9-5.4,2.4-8.2,1.3l-0.8-0.3
				l0.5,0.7c1.4,2,3.3,3.5,5.4,4.6l-0.1-0.4c-1.8,1.8-4.6,2.2-6.9,1l-1-0.6l0.7,0.9c0.9,1.1,2,1.9,3.2,2.6c0.6,0.3,1.1,0.6,1.8,0.8
				c0.6,0.2,1.2,0.3,1.7,0.5c0.5,0.1,0.9,0.5,1.2,0.9c0.2,0.4,0.1,0.9-0.2,1.3c-0.6,0.7-1.4,1.1-2.2,1.4c-1.2,0.4-2.4,0.6-3.7,0.6
				C610.7,286.9,610.3,286.8,610.3,286.9z"/>
			<path class="st9" d="M592.1,305.9l5.6-2.5c0.5,0.7,0.9,1.5,1.1,2.4c0.3,0.8,0.2,1.8-0.3,2.5c-0.5,0.7-1.2,1.1-2,1.4
				c-0.7,0.3-1.4,0.4-2.1,0.3c-0.8-0.3-1.5-0.9-1.8-1.6C592.3,307.6,592.2,306.8,592.1,305.9"/>
			<path class="st4" d="M594.4,310c0.2,0.1,0.4,0.2,0.6,0.1c0.6,0,1.2-0.1,1.7-0.4c0.9-0.3,1.6-0.8,2.1-1.6c0.5-1,0.5-2.2,0-3.2
				c-0.3-0.6-0.6-1.1-0.9-1.7l-0.1-0.2l-0.2,0.1c-1.6,0.7-3,1.4-4,1.9c-0.5,0.2-1.1,0.5-1.5,0.9c0.6-0.1,1.1-0.3,1.7-0.6
				c1-0.4,2.5-1,4.1-1.7l-0.3-0.1c0.3,0.5,0.6,1.1,0.9,1.6c0.4,0.9,0.5,1.9,0.1,2.8c-0.4,0.7-1.1,1.2-1.9,1.5
				c-0.5,0.2-1,0.4-1.6,0.5C594.8,309.9,594.6,310,594.4,310z"/>
			<polygon class="st7" points="640.9,418.1 641.4,387.7 639.3,337 620.7,330.5 615.7,324.3 603.5,336.5 596.8,352.9 591,336.2 
				588.3,326.7 584.6,329.5 566.1,336.5 565.6,375.7 565.3,423.9 564.6,460 563.8,472.5 590.9,474.5 593,461.3 596.5,473.4 
				649.7,473.7 647.3,456.6 			"/>
			<g class="st10">
				<path d="M617.3,408.9c1.9,1.6,3.9,3.2,6.4,3.6c3.3,0.6,6.7-1.2,9.3-3.3c2.6-2.2,4.9-4.8,7.9-6.5l-0.6,2.2
					c-2.6,6.2-6.6,11.8-11.5,16.4c-2.2,2-4.7,3.9-7.7,4.1c-4.5,0.4-8.5-3.2-10.8-7.1c-2.3-4-3.5-8.5-6-12.3
					c-3.2-3.8-5.3-8.4-6.1-13.3c-0.8-4.9-1.1-9.8-1-14.7C601,390,608,400.6,617.3,408.9z"/>
			</g>
			<path class="st7" d="M601.3,390.8c-2,2.3-1.6,3.1-0.7,6.3c0.3,1.1,1.4,1.8,2.5,1.9c3.8,6.5,10.8,18.8,18.1,19.1
				c9.1,0.4,18.8-9.5,22.7-21.5c0,0,9.8-33.7,6.9-45.8c-1.4-6.1-5.6-11.3-11.4-13.8l-18.5,42l-7.6-3.8L601.3,390.8z"/>
			<path class="st4" d="M623.3,382.3c0,0,0.1-0.2,0.2-0.6c0.1-0.5,0.1-1.1,0-1.6c-0.2-0.8-0.4-1.6-0.9-2.3c-0.5-0.9-1.1-1.7-1.8-2.4
				c-0.7-0.7-1.6-1.3-2.5-1.7c-0.8-0.3-1.6-0.4-2.5-0.2c-0.5,0.1-1.1,0.3-1.5,0.6c-0.3,0.2-0.5,0.3-0.5,0.4c0.7-0.2,1.4-0.5,2.1-0.6
				c0.8-0.1,1.5,0,2.2,0.3c0.9,0.4,1.7,0.9,2.3,1.6c1.2,1.2,2.2,2.7,2.7,4.4C623.3,380.9,623.3,381.6,623.3,382.3z"/>
			<path class="st4" d="M621.8,377.6c0.1,0,2.1-5.5,4.4-12.4c2.3-6.9,4.1-12.6,4-12.6s-2.1,5.5-4.4,12.4
				C623.5,371.9,621.7,377.6,621.8,377.6z"/>
			<path class="st4" d="M601.3,390.8l-0.1,0.1c-0.1,0.1-0.2,0.2-0.3,0.4c-0.5,0.5-0.8,1.1-1,1.8c-0.1,1.1,0,2.2,0.4,3.2
				c0.1,0.3,0.2,0.6,0.3,0.9c0.1,0.3,0.3,0.7,0.5,1c0.5,0.6,1.3,1,2.1,1l-0.1-0.1c1.8,3.3,3.8,6.5,6,9.6c1.3,1.8,2.7,3.6,4.2,5.2
				c1.7,1.8,3.7,3.2,6,4.1c0.6,0.2,1.2,0.3,1.8,0.4c0.6,0,1.2,0,1.8,0c0.6,0,1.2-0.2,1.8-0.3s1.1-0.3,1.7-0.5
				c2.1-0.8,4.1-1.8,5.8-3.2c3-2.3,5.5-5.2,7.5-8.4c1.4-2.1,2.5-4.4,3.4-6.8c0.3-0.8,0.5-1.5,0.7-1.9c0.1-0.2,0.1-0.5,0.2-0.7
				c-0.1,0.2-0.2,0.4-0.3,0.6c-0.2,0.4-0.4,1.1-0.8,1.9c-1,2.3-2.2,4.5-3.5,6.6c-2,3.1-4.5,5.9-7.5,8.2c-1.7,1.3-3.7,2.4-5.7,3.1
				c-0.5,0.1-1.1,0.3-1.6,0.5s-1.1,0.2-1.7,0.2c-0.6,0-1.2,0-1.7,0c-0.6,0-1.2-0.2-1.7-0.4c-2.2-0.9-4.2-2.2-5.8-4
				c-1.5-1.6-2.9-3.3-4.2-5.1c-2.5-3.4-4.4-6.7-6-9.5v-0.1h-0.1c-0.7,0-1.4-0.3-1.9-0.8c-0.4-0.5-0.6-1.1-0.7-1.8
				c-0.4-1-0.5-2-0.4-3.1c0.2-0.6,0.5-1.2,0.9-1.8C601.2,391,601.3,390.8,601.3,390.8z"/>
			<path class="st4" d="M603.1,398.9c0.3-0.1,0.7-0.2,1-0.4c0.6-0.3,1.5-0.7,2.5-1.3c2.7-1.5,5.3-3.3,7.8-5.2
				c2.5-1.9,4.8-4.1,6.8-6.5c0.6-0.7,1.2-1.5,1.7-2.3c0.2-0.3,0.4-0.6,0.5-0.9c-0.1,0-0.8,1.2-2.4,3c-2.1,2.3-4.4,4.4-6.8,6.3
				c-2.4,1.9-5,3.7-7.7,5.3C604.3,398.2,603,398.9,603.1,398.9z"/>
			<path class="st4" d="M623,382.4c1.4,0.6,2.7,1.4,3.8,2.4c1,1.1,1.8,2.4,2.4,3.8c0-0.5-0.1-0.9-0.3-1.4c-0.8-2.1-2.5-3.8-4.6-4.6
				C623.9,382.4,623.5,382.3,623,382.4z"/>
			<path class="st4" d="M590.5,360.3c0,0.1,0,0.2,0,0.3c0,0.2,0,0.5,0,0.8c0,0.8,0,1.8,0.1,3.1c0.1,2.8,0.2,6.7,0.4,11.6
				c0.3,9.8,0.6,23.3,0.9,38.2c0.2,14.9,0.5,28.4,0.6,38.2c0.1,4.9,0.2,8.8,0.3,11.6c0,1.3,0.1,2.4,0.1,3.1c0,0.3,0,0.6,0,0.8
				c0,0.1,0,0.2,0,0.3c0-0.1,0-0.2,0-0.3v-0.8c0-0.8,0-1.8,0-3.1c0-2.8-0.1-6.7-0.1-11.6c-0.1-9.8-0.3-23.3-0.5-38.2
				c-0.2-14.9-0.6-28.4-1-38.2c-0.2-4.9-0.4-8.8-0.6-11.6l-0.2-3.1c0-0.3,0-0.6-0.1-0.8C590.5,360.5,590.5,360.4,590.5,360.3z"/>
			<path class="st4" d="M578.1,422.8c0,0.1,6.4,2.7,14.4,5.7c8,3,14.6,5.4,14.6,5.3s-6.4-2.7-14.4-5.7S578.1,422.6,578.1,422.8z"/>
			<path class="st4" d="M600.8,344.7c0.4-0.6,0.8-1.2,1.2-1.9l2.9-5.2h-0.3l4.4,6.2l0.2,0.2l0.2-0.2l0.6-0.7c3-3.5,5.8-6.6,7.7-8.9
				l2.3-2.7c0.3-0.3,0.6-0.6,0.8-1c-0.3,0.3-0.7,0.6-0.9,0.9l-2.4,2.6c-2,2.2-4.8,5.4-7.8,8.8l-0.6,0.7h0.4l-4.4-6.2l-0.2-0.3
				l-0.2,0.3l-2.7,5.2C601.3,343.3,601,344,600.8,344.7z"/>
			<path class="st4" d="M576.9,429.5c-0.1,0.1,10.1,6.3,22.8,13.8s23,13.4,23.1,13.3s-10.2-6.3-22.8-13.8S576.9,429.4,576.9,429.5z"
				/>
			<path class="st4" d="M586.1,421.2c0.1-0.6,0.4-1,0.9-1.4c0.5-0.3,1.1-0.4,1.7-0.2c0.9,0.3,1.3,1.3,1,2.2c-0.2,0.5-0.5,0.8-1,1
				c-0.5,0.2-1.2,0.1-1.7-0.2C586.6,422.3,586.3,421.8,586.1,421.2c0,0-0.1,0.2,0,0.5c0.1,0.5,0.3,0.9,0.7,1.2
				c0.6,0.5,1.3,0.6,2,0.4c1.1-0.4,1.7-1.6,1.3-2.7c-0.2-0.6-0.7-1.1-1.3-1.3c-0.7-0.2-1.4-0.1-2,0.4c-0.4,0.3-0.6,0.7-0.7,1.2
				C586,421.1,586.1,421.2,586.1,421.2z"/>
			<path class="st4" d="M584.4,391.4c0.1-0.5,0.4-1,0.9-1.4c0.5-0.3,1.1-0.4,1.7-0.2c0.9,0.3,1.3,1.3,1,2.2c-0.2,0.5-0.5,0.8-1,1
				c-0.6,0.2-1.2,0.1-1.7-0.2C584.9,392.4,584.6,391.9,584.4,391.4c0,0-0.1,0.2,0,0.5c0.1,0.5,0.3,0.9,0.7,1.2
				c0.6,0.5,1.3,0.6,2,0.4c1.1-0.4,1.7-1.6,1.3-2.7c-0.2-0.6-0.7-1.1-1.3-1.3c-0.7-0.2-1.4-0.1-2,0.4c-0.4,0.3-0.6,0.7-0.7,1.2
				C584.4,391.2,584.4,391.4,584.4,391.4z"/>
			<g class="st10">
				<path d="M605.2,433c-9.2,0.4-19.3-3.2-25.7-9.7C587.8,426.6,597.1,429.5,605.2,433"/>
			</g>
			<path class="st9" d="M577.9,329c-1.4,1-4,2.6-4,2.6l-0.6,7.3l4.4,0.9l0.2-8.3c0,0,2.8-0.9,2.7-2v-0.1
				C580.3,328.1,579,328.2,577.9,329z"/>
			<path class="st4" d="M602.4,327.5l-17,12.9c-0.2,0.2-0.5,0.3-0.8,0.3h-15.9c-0.8,0-1.4-0.6-1.4-1.4l0,0v-0.1
				c0-0.4,0.2-0.9,0.6-1.1l17.5-12.8c0.2-0.2,0.5-0.3,0.8-0.3h15.3c0.7,0,1.3,0.5,1.4,1.2l0,0C603,326.8,602.8,327.2,602.4,327.5z"
				/>
			<path class="st2" d="M601.3,325.7l-0.4,0.3c-2.5,1.9-16.9,12.4-16.9,12.4h-15.4l17.5-12.7"/>
			<path class="st8" d="M593.3,326.1l3.4,5.2c0,0,4.4,7.7,4.7,9.7c0.3,2,1,7,1,7l13.2,25.9l-13.3,17.3l-10.9-35.8
				c0,0-10.6-4.7-11.3-5.8c-0.6-1.4-1.1-2.8-1.4-4.3c0,0-2.8-0.2-4-1.1c-1.7-1.4-3.3-3.1-4.5-5l-1.5-3.6c0-0.1,0-0.1,0-0.2l0.8-0.5
				c0.4-0.2,0.9-0.3,1.4-0.3c0.9,0.1,1.7,0.6,2.2,1.4c0.5,1.1,1.2,2.1,2.1,2.8l1.3,0.7l9.5,0.3c2.3,0.1,4.5-0.8,6-2.5l0.3-0.4v-3.9
				c-0.7-1.3-1.2-2.6-1.6-4c-0.3-1.4,0.6-2.7,2-3C592.9,326.1,593.1,326.1,593.3,326.1L593.3,326.1z"/>
			<path class="st9" d="M593.3,326.1c-0.2,0-0.4,0-0.6,0c-0.6,0.1-1.1,0.4-1.5,0.9c-0.6,0.8-0.8,1.8-0.4,2.7
				c0.3,1.2,0.8,2.4,1.5,3.5l0,0c0,1.1,0,2.4,0,3.8V337c-1.6,1.9-4.1,3-6.6,2.8l-9.1-0.3h0.1l-1.3-0.7l0,0c-0.7-0.6-1.3-1.4-1.8-2.2
				c-0.1-0.2-0.2-0.4-0.3-0.7c-0.1-0.3-0.3-0.5-0.5-0.7c-0.4-0.4-0.9-0.6-1.5-0.7c-0.6-0.1-1.1,0-1.7,0.2c-0.1,0.1-0.3,0.1-0.4,0.2
				c-0.1,0.1-0.3,0.2-0.4,0.3c-0.2,0.3-0.3,0.7-0.1,1c0.4,1,0.9,2,1.3,3.1l0,0l0,0c1,1.5,2.1,2.9,3.4,4.1c0.3,0.3,0.7,0.6,1,0.9
				c0.4,0.3,0.8,0.5,1.3,0.6c0.9,0.3,1.9,0.4,2.8,0.5l-0.2-0.2c0.3,1.4,0.7,2.7,1.3,4c0.2,0.4,0.4,0.7,0.8,0.9
				c0.3,0.2,0.6,0.4,0.9,0.6c0.6,0.4,1.3,0.7,1.9,1c2.6,1.3,5.3,2.6,8,3.8l-0.1-0.1c1.9,6.2,3.9,12.7,5.9,19.4
				c1.7,5.6,3.4,11.1,5,16.4l0.1,0.4l0.3-0.4l13.2-17.2l0.1-0.1l-0.1-0.1c-5.1-9.9-9.6-18.7-13.3-25.9l0,0c-0.3-1.9-0.5-3.6-0.8-5.3
				c-0.1-0.8-0.2-1.6-0.5-2.4c-0.3-0.7-0.6-1.4-0.9-2.1c-1.3-2.7-2.5-4.9-3.6-6.7l-2.6-4l-0.7-1c-0.2-0.2-0.2-0.3-0.2-0.3
				c0.1,0.1,0.1,0.2,0.2,0.4l0.6,1l2.5,4c1,1.8,2.2,4,3.5,6.7c0.3,0.7,0.6,1.4,0.9,2.1c0.2,0.8,0.3,1.6,0.4,2.4
				c0.2,1.7,0.5,3.4,0.7,5.3l0,0l0,0l13.2,26v-0.2l-13.2,17.2l0.4,0.1l-5-16.4c-2-6.7-4-13.2-5.9-19.4V355h-0.1
				c-2.8-1.2-5.5-2.5-8-3.8c-0.6-0.3-1.3-0.7-1.9-1c-0.3-0.2-0.6-0.4-0.9-0.6c-0.3-0.2-0.5-0.4-0.6-0.7c-0.5-1.3-0.9-2.6-1.2-3.9
				V345h-0.2c-0.9-0.1-1.8-0.2-2.7-0.5c-0.4-0.1-0.8-0.3-1.2-0.6c-0.3-0.3-0.7-0.6-1-0.9c-1.3-1.2-2.4-2.5-3.4-4l0,0
				c-0.4-1-0.9-2.1-1.3-3.1c-0.1-0.2-0.1-0.4,0.1-0.6c0.2-0.2,0.3-0.3,0.6-0.4c0.5-0.2,1-0.3,1.5-0.2c0.5,0.1,0.9,0.3,1.3,0.6
				c0.3,0.4,0.6,0.8,0.7,1.2c0.5,0.9,1.1,1.7,1.9,2.3l0,0l1.3,0.7l0,0l0,0l9.1,0.3c2.6,0.2,5.1-0.9,6.8-2.9l0,0V337
				c0-1.4,0-2.7,0-3.8v0.1c-0.6-1.1-1.1-2.3-1.5-3.5c-0.5-1.3,0.1-2.8,1.4-3.4c0.1,0,0.2-0.1,0.3-0.1
				C593.1,326.1,593.3,326.2,593.3,326.1z"/>
			<path class="st9" d="M577.9,345.4c0.8,0.3,1.7,0.5,2.6,0.5c0.9,0.2,1.8,0.2,2.7,0c-0.8-0.3-1.7-0.5-2.6-0.5
				C579.7,345.3,578.8,345.3,577.9,345.4z"/>
			<path class="st4" d="M559,329.9c-0.1-0.1-0.2-0.2-0.3-0.3l-0.8-0.8c-0.4-0.4-0.8-0.9-1.2-1.3l-0.7-0.9c-0.1-0.2-0.2-0.3-0.4-0.5
				c-0.1-0.2-0.2-0.3-0.3-0.5c-0.5-0.8-1-1.6-1.4-2.4c-0.2-0.5-0.5-0.9-0.7-1.4l-0.6-1.5c-0.8-2.3-1.2-4.8-1.2-7.3
				c0-2.5,0.5-4.9,1.4-7.2c0.2-0.5,0.4-1.1,0.6-1.6l0.7-1.4c0.1-0.2,0.2-0.4,0.3-0.7l0.4-0.6l0.7-1.1c0.8-1.1,1.6-2.2,2.5-3.2
				l0.8-0.8c0.1-0.1,0.2-0.2,0.2-0.3c-0.1,0.1-0.2,0.2-0.3,0.2l-0.8,0.8c-1,1-1.9,2-2.6,3.2l-0.8,1.1c-0.1,0.2-0.3,0.4-0.4,0.6
				l-0.3,0.7c-0.2,0.5-0.5,0.9-0.7,1.4c-0.2,0.5-0.4,1-0.6,1.6c-0.9,2.4-1.4,4.8-1.4,7.4c0,2.5,0.4,5,1.2,7.4l0.6,1.6
				c0.2,0.5,0.5,1,0.7,1.4c0.4,0.8,0.9,1.7,1.5,2.4c0.1,0.2,0.2,0.4,0.4,0.5l0.4,0.5l0.7,0.9c0.4,0.5,0.8,0.9,1.2,1.3l0.8,0.8
				C558.8,329.8,558.9,329.9,559,329.9z"/>
			<path class="st4" d="M565.6,325.2c-1-1-1.8-2-2.5-3.2c-0.2-0.3-0.3-0.5-0.5-0.8l-0.5-1c-0.1-0.2-0.2-0.3-0.2-0.5l-0.2-0.5
				c-0.1-0.4-0.3-0.8-0.4-1.1c-0.5-1.7-0.7-3.5-0.7-5.3c0-1.8,0.3-3.6,0.8-5.3c0.1-0.4,0.2-0.8,0.4-1.1s0.3-0.7,0.5-1
				c0.3-0.6,0.6-1.2,1-1.8c0.3-0.5,0.6-0.9,1-1.4c0.2-0.4,0.5-0.7,0.8-1c0.3-0.3,0.5-0.5,0.7-0.8c-0.3,0.2-0.6,0.5-0.8,0.7
				c-0.3,0.3-0.6,0.6-0.9,1c-0.4,0.4-0.7,0.9-1,1.4c-0.4,0.6-0.7,1.2-1,1.8c-0.2,0.4-0.3,0.7-0.5,1.1s-0.3,0.8-0.4,1.2
				c-0.5,1.7-0.8,3.6-0.8,5.4c0,1.8,0.3,3.7,0.8,5.4c0.1,0.4,0.3,0.8,0.4,1.2l0.2,0.5c0.1,0.2,0.2,0.4,0.2,0.5
				c0.2,0.3,0.3,0.7,0.5,1s0.4,0.6,0.5,0.9c0.2,0.3,0.3,0.5,0.5,0.8s0.3,0.4,0.5,0.6l0.5,0.5l0.4,0.4
				C565.1,324.7,565.4,325,565.6,325.2z"/>
			<path class="st4" d="M571.9,319.9c-0.5-0.6-0.9-1.2-1.3-1.9c-0.9-1.7-1.4-3.5-1.4-5.4c-0.1-1.9,0.4-3.7,1.3-5.4
				c0.7-1.2,1.4-1.8,1.4-1.9s-0.2,0.1-0.5,0.4c-0.2,0.2-0.4,0.3-0.5,0.5c-0.2,0.3-0.4,0.5-0.6,0.8c-1,1.7-1.5,3.6-1.4,5.5
				c0,1.9,0.5,3.8,1.5,5.5c0.1,0.1,0.2,0.3,0.3,0.5l0.3,0.4c0.1,0.2,0.3,0.4,0.5,0.6C571.8,319.8,571.9,319.9,571.9,319.9z"/>
			<path class="st4" d="M566.4,354.5c0,0.3,0,0.5,0,0.8c0,0.6,0,1.3,0,2.2c0,2-0.1,4.8-0.2,8.2c-0.2,7-0.4,16.6-0.7,27.2
				s-0.4,20.2-0.4,27.2c0,3.4,0,6.2,0,8.2v2.2c0,0.3,0,0.5,0,0.8c0-0.3-0.1-0.5-0.1-0.8c0-0.6-0.1-1.3-0.1-2.2
				c-0.1-1.9-0.1-4.8-0.2-8.2c-0.1-7,0-16.6,0.2-27.2s0.6-20.2,0.8-27.2c0.1-3.4,0.2-6.2,0.3-8.2c0-0.9,0.1-1.7,0.1-2.2
				C566.3,355,566.3,354.8,566.4,354.5z"/>
		</g>
	</g>
</g>
<g id="freepik--character-1--inject-53">
	
		<image style="overflow:visible;opacity:0.2;" width="258" height="552" xlink:href="8C40044D.png"  transform="matrix(1 0 0 1 26 193.2143)">
	</image>
	<g>
		<g>
			<path class="st11" d="M171.8,304.1l3.7,3.5l5.4-5.2l1.5-3.9l6.8-6.1c0.1,1.3,0.1,2.6,0,3.9l3.9,7.4v13.9l3.9,7.5l-13.3,6.1
				l-4.3-10.8c-2.3-1.4-4.5-3.1-6.3-5.1c-2.2-2.6-4.4-11.9-4.4-11.9C169.7,303,171,303.3,171.8,304.1z"/>
			<path class="st2" d="M183.2,307.1c0.4-0.3,0.5-0.9,0.4-1.4l-2-7.3l-6.1-19.6c-0.2-0.7-1-1.1-1.7-0.9c-0.2,0.1-0.4,0.2-0.5,0.3
				l-8.4,7.4c-0.4,0.4-0.6,0.9-0.4,1.5l8.5,26.6c0.2,0.7,1,1.1,1.8,0.9c0.2-0.1,0.4-0.2,0.5-0.3L183.2,307.1z"/>
			<path class="st4" d="M182.1,306.5c0.3-0.3,0.5-0.8,0.4-1.3l-1.9-6.8L175,280c-0.2-0.7-0.9-1-1.6-0.8c-0.1,0-0.3,0.1-0.4,0.2
				l-7.7,6.8c-0.4,0.3-0.5,0.9-0.4,1.3l8.3,25.1c0.2,0.7,0.9,1,1.6,0.8c0.2-0.1,0.3-0.1,0.4-0.2L182.1,306.5z"/>
			<path class="st11" d="M182.4,298.4c0,0-0.8,0.3-2.8,1c-2.4,1-3-0.3-3-0.3l0,0c-0.4-0.9,0.1-1.9,0.9-2.2l4.9-2l-0.1-1
				c0,0-2.5,0.3-4.4,0.3c-3.9,0-2.4-3.4-2.4-3.4l4.5-0.6l-2.3-3.3c-0.9-1-0.8-2.6,0.2-3.5c0.1-0.1,0.1-0.1,0.2-0.1l8.5,7
				c0,0,2.5,1,2.6,2c0.1,1.3,0.1,2.6,0,3.9L182.4,298.4z"/>
			<path class="st12" d="M177.5,299.8c0.6,0.2,1.3,0.2,1.9,0c1.5-0.3,3-0.8,4.4-1.4l0.6-0.3l-0.4-0.1c0.9,1.4,1.5,2.7,2,3.6
				c0.2,0.5,0.6,1,1,1.4c-0.2-0.5-0.4-1.1-0.7-1.5c-0.6-1.3-1.2-2.5-1.9-3.7l-0.1-0.2l-0.2,0.1l-0.6,0.3c-1.4,0.6-2.8,1.1-4.3,1.5
				C178.2,299.6,177.5,299.7,177.5,299.8z"/>
			<path class="st12" d="M182.4,295.2c0.1,0.1,0.4-0.2,1.1-0.4c1.7-0.6,3.5-0.2,4.8,1c0.5,0.5,0.7,0.8,0.8,0.8c0.1,0-0.1-0.5-0.5-1
				c-1.3-1.5-3.4-2-5.2-1.1C182.6,294.7,182.3,295.1,182.4,295.2z"/>
			<path class="st12" d="M176.2,290.8c0,0.2,2.4-0.4,5.2-0.5c2.9-0.1,5.2,0.2,5.3,0c-1.7-0.6-3.5-0.8-5.3-0.6
				C179.6,289.7,177.8,290.1,176.2,290.8z"/>
			<path class="st12" d="M182.2,317.8c0.1,0-0.1-0.8-0.2-2.1c-0.2-3.4,1.3-6.6,4-8.6c1-0.8,1.8-1.1,1.7-1.2
				c-0.7,0.1-1.4,0.4-1.9,0.9c-3,2-4.6,5.5-4.2,9C181.7,316.5,181.9,317.2,182.2,317.8z"/>
			<path class="st11" d="M168.6,327.4l0.4-1c3.9,2.1,5.4,1,11,6.5l10.6,15.8l-11.3-28.5l13.7-2.8c0,0,13.6,25.7,19.7,37.4
				c2.9,5.3,4,11.4,3.1,17.4c-0.8,6.7-8.3,12.1-14.9,11.2c-6.3-0.9-12.4-6.1-16.3-11l-12.9-14.3L168.6,327.4z"/>
			<path class="st9" d="M178.9,318.5c6,15.9,12.3,30.6,19.5,47.9"/>
			<path class="st4" d="M198.4,366.4c-0.1-0.1-0.2-0.3-0.2-0.5c-0.2-0.4-0.4-0.8-0.6-1.4l-2.2-5.1c-1.9-4.3-4.4-10.2-7.1-16.9
				s-5.1-12.6-6.8-17c-0.8-2.2-1.5-4-1.9-5.2c-0.2-0.6-0.4-1-0.5-1.4c-0.1-0.2-0.1-0.3-0.1-0.5c0.1,0.1,0.2,0.3,0.2,0.5
				c0.1,0.4,0.3,0.8,0.6,1.4l2.1,5.1c1.7,4.3,4.2,10.3,6.9,16.9s5.1,12.5,7,16.9l2.1,5.1l0.5,1.4C198.4,366,198.4,366.2,198.4,366.4
				z"/>
			<path class="st4" d="M146.1,250.3c1.2-1.9,3.5-2.9,5.7-2.3c2.8-1.9,6.6-1.5,9,0.8c2-1,4.5-0.9,6.4,0.3c1.9,1.3,3,3.4,3,5.7
				c2.3-0.2,4.5,1.1,5.4,3.3c0.9,2.2,0.3,4.6-1.4,6.2c2.7,1.2,3.9,4.2,2.7,6.9c-1,2.2-3.3,3.5-5.6,3.1l-24.7-17.9
				C145.2,254.8,145,252.3,146.1,250.3z"/>
			<path class="st11" d="M172.1,275.2c-0.1-11.6-9-21.1-20.5-22l-1.1-0.1c-12.4-0.2-17.1,11-16.9,23.4l-2.2,46.1l0,0l18.4,18.4
				l6.7-12.3l2.3-12.2c0,0,12-1,13-12.9C172.1,297.9,172.1,286,172.1,275.2z"/>
			<path class="st12" d="M158.7,316.5c-5.5-0.4-10.8-2.4-15.2-5.7c0,0,2.6,9.1,14.5,8.9L158.7,316.5z"/>
			<path class="st4" d="M167.8,285.2c0,0.9-0.8,1.6-1.8,1.6c-0.9,0-1.6-0.7-1.6-1.6c0,0,0,0,0-0.1c0.1-0.9,0.8-1.6,1.8-1.6
				C167.1,283.5,167.8,284.3,167.8,285.2C167.8,285.2,167.8,285.2,167.8,285.2z"/>
			<path class="st4" d="M169.2,281.4c-0.2,0.2-1.4-0.8-3.3-1s-3.2,0.7-3.4,0.5c-0.2-0.2,0.1-0.5,0.8-0.9c0.8-0.5,1.8-0.7,2.8-0.6
				c0.9,0.1,1.8,0.4,2.6,1C169.1,280.9,169.3,281.4,169.2,281.4z"/>
			<path class="st4" d="M152.2,284.4c-0.1,0.9-0.8,1.6-1.8,1.6c-0.9,0-1.6-0.7-1.6-1.6c0,0,0,0,0-0.1c0.1-0.9,0.8-1.6,1.8-1.6
				C151.4,282.7,152.2,283.4,152.2,284.4C152.2,284.4,152.2,284.4,152.2,284.4z"/>
			<path class="st4" d="M151.8,279.9c-0.2,0.2-1.4-0.8-3.3-1s-3.2,0.7-3.4,0.5c-0.2-0.2,0.1-0.5,0.8-0.9c0.8-0.5,1.8-0.7,2.8-0.6
				c0.9,0.1,1.8,0.4,2.6,1C151.7,279.4,151.9,279.9,151.8,279.9z"/>
			<path class="st4" d="M156.8,293.9c1-0.2,2-0.3,3-0.3c0.5,0,0.9-0.1,1-0.4c0.1-0.5,0-1-0.2-1.4l-1.1-3.6c-1.6-5.2-2.6-9.5-2.4-9.5
				s1.6,4.1,3.2,9.3c0.4,1.3,0.7,2.5,1.1,3.7c0.3,0.6,0.3,1.2,0.1,1.9c-0.2,0.3-0.5,0.6-0.8,0.6c-0.3,0-0.5,0-0.8,0
				C158.8,294.2,157.8,294.1,156.8,293.9z"/>
			<path class="st4" d="M151.4,294.8c0.3,0,0.2,2,1.8,3.5s3.7,1.5,3.7,1.7s-0.5,0.4-1.4,0.3c-1.2-0.1-2.3-0.5-3.1-1.4
				c-0.8-0.8-1.3-1.8-1.3-2.9C151,295.3,151.2,294.8,151.4,294.8z"/>
			<path class="st4" d="M152.2,274.7c-0.2,0.5-1.8-0.1-3.7-0.2c-1.9-0.1-3.5,0.2-3.7-0.3c-0.1-0.2,0.3-0.6,1-1
				c1.8-0.9,3.9-0.7,5.6,0.4C152,274,152.3,274.5,152.2,274.7z"/>
			<path class="st4" d="M169.1,276.4c-0.3,0.4-1.6,0-3.1,0s-2.8,0.3-3.1-0.1c-0.1-0.2,0.1-0.6,0.6-1c1.5-1,3.5-1,5,0.1
				C169.1,275.8,169.3,276.2,169.1,276.4z"/>
			<path class="st4" d="M171.3,269.6c0,0-2.6-7.7-6-9.7c-4.2-2.4-6.4,2.2-10.4,0.8c-4-1.5-8-3.8-12.5-0.9c-4.9,3.2-2.9,5.8-3.5,11.1
				c-2.7,21.3-7,27.1-7.4,17c0-1.1-3-2.2-3.1-6.9c-0.1-6.1,0.1-13.5,1.8-17.7c1.4-3.5,3.6-5.9,7.5-8.4c6.1-4,14.1-3.5,19.5-2.5
				S172.5,260.3,171.3,269.6z"/>
			<path class="st11" d="M133.7,287.7c0.1-1.8-1.3-3.3-3.1-3.4c-0.1,0-0.1,0-0.2,0c-2.2,0-4.8,1.1-5,5.7c-0.3,8.2,7.9,6.8,7.9,6.6
				S133.6,291.1,133.7,287.7z"/>
			<path class="st12" d="M131.7,293.5c0,0-0.1,0.1-0.4,0.2c-0.3,0.1-0.7,0.1-1,0c-0.9-0.4-1.5-1.8-1.5-3.2c0-0.7,0.2-1.4,0.5-2
				c0.2-0.5,0.6-0.9,1.1-1c0.3-0.1,0.7,0.1,0.8,0.4c0.1,0.2,0,0.4,0.1,0.4c0.1,0,0.2-0.1,0.1-0.5c0-0.2-0.1-0.4-0.3-0.5
				c-0.2-0.2-0.5-0.3-0.8-0.2c-0.7,0.1-1.3,0.6-1.5,1.2c-0.4,0.7-0.6,1.5-0.6,2.3c0,1.6,0.8,3.2,1.9,3.6c0.4,0.2,0.9,0.1,1.3-0.2
				C131.7,293.7,131.8,293.5,131.7,293.5z"/>
			<path class="st4" d="M133.5,271.8c0.9,0.9,2.1,1.5,3.3,1.8c1.3,0.3,2.6-0.4,3.1-1.7c0.1-0.6,0.1-1.2,0.4-1.6
				c0.4-0.4,1.3-0.3,2-0.1c2.4,0.4,4.8-1,5.6-3.4c0.7,0.9,1.9,1.1,2.9,0.5c0.9-0.6,1.7-1.4,2.4-2.2c0.7-0.8,1.8-1.3,2.9-1.2
				c0.6,0.2,1.1,0.4,1.7,0.5c1.1,0,1.7-1.2,1.9-2.3s0.4-2.3,1.4-2.8c0.9-0.5,1.9-0.1,2.9,0.1c1,0.2,2.2,0.1,2.6-0.9
				c0.1-0.5,0-1.1-0.3-1.5c-1.2-2.1-3.7-3.1-6.1-2.4c-0.8-3.8-4.6-6.3-8.4-5.5c-1.9,0.4-3.6,1.6-4.6,3.2c-2.8-2.9-7.3-3-10.2-0.2
				c-0.6,0.6-1.1,1.3-1.5,2.1c-2-0.6-4.2-0.1-5.6,1.5c-1.4,1.6-1.7,3.8-0.9,5.8c-1.6,0.7-2.7,2.1-3,3.8c-0.2,1.7,1.4,3.5,3,3.2
				c-0.8,1.3-0.4,3,0.9,3.9c1.3,0.8,3,0.5,3.9-0.6"/>
			<path class="st7" d="M128.5,268.3c-0.1,0.6,0,1.2,0.4,1.6c0.4,0.5,0.9,0.9,1.6,1.1c0.8,0.2,1.7,0,2.4-0.5l-0.3-0.1
				c0.4,0.8,0.9,1.5,1.5,2.1c0.4,0.4,0.9,0.8,1.4,1c1.4,0.6,3,0.2,4-0.9c0.4-0.5,0.6-1.1,0.8-1.6c0.1-0.2,0.1-0.4,0.1-0.7
				c-0.1,0.2-0.2,0.4-0.3,0.6c-0.2,0.5-0.5,1-0.9,1.5c-1.3,1.3-3.4,1.3-4.7,0c-0.1-0.1-0.2-0.2-0.2-0.2c-0.6-0.6-1-1.3-1.4-2
				l-0.1-0.3l-0.2,0.2c-0.6,0.4-1.3,0.6-2,0.5c-0.6-0.1-1.1-0.4-1.4-0.9C128.8,269.3,128.6,268.8,128.5,268.3z"/>
			<path class="st7" d="M145.2,250.8c0.2,0.1,0.4,0.2,0.6,0.3c0.5,0.3,0.9,0.7,1.2,1.2l0.1,0.2l0.1-0.1c1.1-1.3,2.5-2.3,4.1-2.9
				c1-0.4,2.1-0.5,3.2-0.5c1.2,0.1,2.4,0.5,3.4,1.2c0.8,0.6,1.4,1.3,1.9,2.1c0.4,0.8,0.7,1.6,0.7,2.5v0.3h0.2c1.2-0.2,2.4,0,3.3,0.7
				c0.8,0.5,1.4,1.3,1.7,2.1c0.3,0.8,0.4,1.6,0.3,2.5c0.1-0.2,0.1-0.4,0.1-0.7c0.1-0.6,0-1.3-0.2-1.9c-0.3-0.9-0.9-1.8-1.8-2.3
				c-1.1-0.7-2.4-1-3.6-0.8l0.3,0.2c0-1-0.3-1.9-0.8-2.7c-0.5-0.9-1.2-1.7-2-2.2c-1.1-0.8-2.3-1.2-3.6-1.3c-1.2-0.1-2.3,0.1-3.4,0.5
				c-1.7,0.6-3.1,1.7-4.2,3.1h0.2c-0.3-0.5-0.8-0.9-1.4-1.2C145.6,250.8,145.4,250.8,145.2,250.8z"/>
			<path class="st7" d="M174.6,624.2l-0.8,22.2c0,0,22.3,8.3,22.5,12.4l-43.1-0.1l-0.1-34.7L174.6,624.2z"/>
			<path class="st2" d="M160.4,644.5c-0.9,0.3-1.4,1.1-1.2,2c0.2,0.9,1.1,1.4,2,1.2c0.9-0.3,1.5-1.2,1.3-2.1c-0.3-0.9-1.3-1.4-2.2-1
				"/>
			<path class="st4" d="M153.2,658.7l0.1-3.5l41.3,1.4c0,0,1.9,0.8,1.7,2.2L153.2,658.7z"/>
			<path class="st1" d="M174.5,646.2c0,0.2-1.1,0.3-2.1,1s-1.6,1.6-1.8,1.5c-0.2-0.1,0.1-1.3,1.4-2.1
				C173.2,645.7,174.5,646,174.5,646.2z"/>
			<path class="st1" d="M179,648c0.1,0.2-0.9,0.6-1.6,1.5s-0.9,1.8-1.1,1.8c-0.2,0-0.3-1.2,0.6-2.3C177.8,647.9,179,647.8,179,648z"
				/>
			<path class="st1" d="M181.5,653.5c-0.2,0-0.5-1,0.1-2.2c0.6-1.2,1.5-1.6,1.6-1.4s-0.5,0.8-1,1.8
				C181.7,652.6,181.8,653.4,181.5,653.5z"/>
			<path class="st1" d="M174.1,641.1c-0.1,0.2-1.1-0.1-2.2,0c-1.2,0.1-2.1,0.5-2.2,0.3c-0.1-0.2,0.8-0.9,2.2-1
				S174.2,640.9,174.1,641.1z"/>
			<path class="st7" d="M122.9,625.5l-1.2,26.9l5.2,21.5c0.4,1.5-0.5,3-2,3.3c-0.1,0-0.1,0-0.2,0l0,0c-0.9,0.2-1.8-0.1-2.4-0.8
				c-4-4-18.3-19.1-18.4-20.5c-0.1-2.3-0.8-28.7-0.8-28.7L122.9,625.5z"/>
			<path class="st4" d="M124.6,677.3l-20.9-23.4v1.1c0,1,0.3,1.9,0.9,2.7c1.7,2,6.4,7.6,17.5,18.8
				C122.8,677.2,123.8,677.5,124.6,677.3L124.6,677.3z"/>
			<g class="st13">
				<path class="st1" d="M109.4,645.3c0.7,0.5,0.9,1.5,0.4,2.2c-0.5,0.7-1.4,0.9-2.2,0.4c-0.7-0.6-0.9-1.6-0.4-2.3
					c0.6-0.7,1.6-0.8,2.3-0.2"/>
			</g>
			<path class="st1" d="M118.7,665.4c0.7-0.8,1.5-1.5,2.4-2c1-0.4,2-0.5,3.1-0.5c0-0.1-0.3-0.3-0.9-0.4c-0.8-0.1-1.7,0-2.4,0.4
				c-0.8,0.4-1.4,0.9-1.8,1.6C118.7,665,118.7,665.4,118.7,665.4z"/>
			<path class="st1" d="M120.6,669c0.8-0.4,1.6-0.8,2.4-1.1c0.9-0.1,1.7-0.2,2.6-0.3c-0.8-0.5-1.9-0.6-2.8-0.3
				C121.2,667.8,120.4,669,120.6,669z"/>
			<path class="st1" d="M115.3,660.7c0.1,0.1,1.5-1.2,3.6-2s4-0.7,4-0.8C120,657.3,117,658.3,115.3,660.7L115.3,660.7z"/>
			<path class="st1" d="M115,652.5c0.1,0.2,1.6-0.4,3.5-0.5s3.4,0.5,3.5,0.3C119.8,651.1,117.2,651.2,115,652.5L115,652.5z"/>
			<path class="st1" d="M115.1,644.6c1.2-0.4,2.4-0.6,3.6-0.6c1.2,0.2,2.4,0.5,3.5,1c0-0.1-0.2-0.4-0.8-0.8
				c-0.8-0.5-1.7-0.7-2.7-0.8c-0.9-0.1-1.9,0.1-2.7,0.5C115.4,644.2,115.1,644.6,115.1,644.6z"/>
			<path class="st1" d="M118.7,642.5c0.1-0.3,0.1-0.7,0.1-1c-0.1-0.9-0.3-1.8-0.8-2.7c-0.3-0.6-0.7-1.2-1.3-1.5
				c-0.4-0.2-0.9-0.1-1.2,0.2c-0.3,0.3-0.5,0.8-0.4,1.2c0.1,1.9,1.5,3.4,3.3,3.7c1.8,0.2,3.6-0.7,4.5-2.3c0.2-0.4,0.3-0.9,0.1-1.3
				c-0.2-0.4-0.7-0.7-1.1-0.6c-0.7,0.1-1.3,0.4-1.8,0.9c-0.7,0.6-1.4,1.3-1.9,2c-0.2,0.3-0.4,0.6-0.4,0.9c0.7-1,1.6-1.9,2.6-2.6
				c0.5-0.4,1-0.6,1.6-0.7c0.3,0,0.5,0.1,0.6,0.3c0.1,0.3,0,0.6-0.1,0.9c-0.8,1.4-2.3,2.1-3.9,1.9c-1.6-0.2-2.8-1.5-2.9-3.1
				c0-0.3,0.1-0.6,0.3-0.9c0.2-0.2,0.5-0.2,0.7-0.1c0.5,0.3,0.9,0.7,1.1,1.3C118.2,640.1,118.6,641.3,118.7,642.5z"/>
			<path class="st4" d="M187.9,438.4c2.5,9.1,3.6,18.6,3.3,28c-0.2,6-13.3,171.8-13.3,171.8l-27.2,1.2l1.1-155.4l-2.2,0.6
				c0,0-12,66.7-12.8,77.5c-0.7,9.7-10.2,80.1-10.2,80.1l-24.7-0.7l3.9-90.8l5.5-89.1l2.4-26L187.9,438.4z"/>
			<path class="st7" d="M146.8,468.3c0.4,0.2,0.7,0.4,1.2,0.6c1.1,0.5,2.2,0.8,3.4,1c0.8,0.1,1.7,0.1,2.5-0.1c1-0.2,1.9-0.7,2.6-1.4
				c0.7-0.8,1.2-1.8,1.5-2.8c0.3-1.1,0.4-2.2,0.6-3.3c0.7-4.5,1.1-8.6,1.3-11.6c0.1-1.5,0.2-2.7,0.2-3.5c0.1-0.4,0.1-0.9,0-1.3
				c-0.1,0.4-0.2,0.8-0.2,1.3c-0.1,1-0.2,2.1-0.4,3.5c-0.3,3-0.8,7.1-1.5,11.6c-0.4,2.2-0.6,4.5-1.9,5.9c-1.3,1.1-3,1.7-4.6,1.4
				c-1.2-0.1-2.3-0.4-3.4-0.8C147.6,468.5,147.2,468.4,146.8,468.3z"/>
			<path class="st7" d="M154,446.9c0,0-0.2-0.1-0.6-0.1c-0.5,0-1.1,0.2-1.5,0.5c-0.7,0.5-1.1,1.3-1.1,2.1c0.2,1.5,1.5,2.5,3,2.4
				c0.6-0.1,1.3-0.4,1.7-0.9c0.5-0.7,0.7-1.5,0.4-2.4c-0.1-0.5-0.4-1-0.9-1.3c-0.3-0.2-0.5-0.2-0.5-0.2c0.5,0.4,0.9,1,1,1.6
				c0.1,0.7,0,1.4-0.4,1.9c-0.9,0.9-2.3,0.8-3.1,0c-0.3-0.3-0.5-0.7-0.6-1.2c0-0.7,0.3-1.3,0.8-1.8C152.7,447.2,153.3,447,154,446.9
				z"/>
			<path class="st7" d="M111.5,459.9c0.3,0.1,0.6,0.1,0.9,0.1c0.9,0,1.7,0,2.6-0.1c5.7-0.6,11-3.1,15-7.1c0.6-0.6,1.2-1.2,1.7-1.9
				c0.2-0.2,0.4-0.5,0.5-0.8c-0.1-0.1-0.9,1-2.5,2.4c-4.1,3.8-9.2,6.2-14.8,7C112.8,459.8,111.5,459.8,111.5,459.9z"/>
			<path class="st4" d="M123.3,435.6c0.2,0.1,0.4,0.2,0.6,0.3l1.6,0.6c1.4,0.6,3.5,1.3,6,2.1s5.6,1.7,9.1,2.6
				c3.5,0.9,7.3,1.6,11.4,2.3s8,1,11.5,1.3s6.8,0.3,9.4,0.3s4.9-0.1,6.4-0.2l1.7-0.1c0.2,0,0.4,0,0.6-0.1c-0.2,0-0.4,0-0.6,0h-1.7
				c-1.5,0-3.7,0.1-6.4,0s-5.9-0.2-9.4-0.4s-7.4-0.7-11.4-1.3s-7.9-1.4-11.3-2.2s-6.5-1.7-9.1-2.5c-2.6-0.8-4.6-1.5-6.1-2l-1.6-0.6
				C123.7,435.6,123.5,435.6,123.3,435.6z"/>
			<path class="st6" d="M170,325.2l-12.8-2.2c0,0-0.7,5.8-9.3,5.9c-10,0.2-17-9-17-9s-22.1,6.9-26.5,10.4s9.9,76.9,9.9,76.9
				l1.3,21.9c-1.3,2.2-2,4.8-2.1,7.3c0,3.8-0.1,6.3-0.1,6.3c26.6,8,53,15,77.2,7.2c0,0-0.6-12.9-2-16.4c-1.4-3.5-1.1-3.8-1.1-3.8
				l-4-38.2l-3.8-37.2L170,325.2z"/>
			<path class="st6" d="M170,325.2c0,0,6.3,2.1,10,6.3s11.8,19.1,11.8,19.1l-7.1,24.5l-10.2-5.3L170,325.2z"/>
			<path class="st5" d="M184.9,401.1c-2.4-20.9-4.8-41.8-7.1-62.7"/>
			<path class="st4" d="M177.7,338.4c0.1,0,1.9,14,3.8,31.3c2,17.3,3.4,31.4,3.3,31.4c-0.1,0-1.9-14-3.8-31.3
				C179.1,352.5,177.6,338.4,177.7,338.4z"/>
			<path class="st11" d="M103.7,401.1c0,0,12.1-40.9,13.7-45.6l-1.7-28.2c-5.1,0.7-15.2,2.2-17.8,10.3
				c-3.3,10.2-12.2,39.2-17.4,54.9c-1.7,5.5-1.4,11.4,0.9,16.7c3,6.9,28.6,44,28.6,44l12.3-8C122.3,445.3,112.5,420.8,103.7,401.1z"
				/>
			<path class="st11" d="M137.5,453.7c-0.4-0.1-3.3-0.6-5-2.4c-2.3-2.2-5-4-7.9-5.5l-2.4-0.8l-12.2,8.2l1.9,10
				c3.6,0.5,7.2-0.2,10.4-1.8c3.1-1.6,5.5-4.2,6.6-7.5c0,0,3.9,2.6,6.4,3s4.1-0.7,3.8-1.7S137.5,453.7,137.5,453.7z"/>
			<path class="st6" d="M85.9,367.4l28.7,14.2l7.9-25.2l-6.5-30c0,0-14.5,0.5-19.2,12.4C92.1,350.6,85.9,367.4,85.9,367.4z"/>
			<path class="st4" d="M122.5,355.1c0,0.2-0.1,0.4-0.1,0.5c-0.1,0.4-0.3,0.9-0.5,1.5l-1.9,5.5l-6.4,18.4l-0.1,0.3l-0.3-0.1
				l-1.4-0.7l-18.4-9.2l-5.6-2.8l-1.5-0.8c-0.2-0.1-0.4-0.2-0.5-0.3c0.2,0,0.4,0.1,0.6,0.2l1.5,0.7l5.6,2.7l18.5,9l1.4,0.7l-0.4,0.1
				c2.6-7.2,4.8-13.6,6.5-18.4c0.8-2.3,1.5-4.1,2-5.5c0.2-0.6,0.4-1.1,0.6-1.5C122.3,355.4,122.4,355.2,122.5,355.1z"/>
			<path class="st4" d="M122.5,337.4c-0.1,0.1-0.8-0.7-2.2-1.7c-1.8-1.3-3.7-2.3-5.8-3.1c-2.1-0.7-4.2-1.2-6.4-1.3
				c-1.7-0.1-2.7,0-2.7-0.1c0.2-0.1,0.5-0.1,0.7-0.1c0.7-0.1,1.3-0.1,2-0.1c2.2,0,4.5,0.5,6.6,1.2c2.1,0.8,4.1,1.9,5.8,3.3
				c0.5,0.4,1,0.9,1.5,1.4C122.2,337,122.4,337.2,122.5,337.4z"/>
		</g>
	</g>
</g>
<image style="overflow:visible;" width="200" height="75" xlink:href="logo.png"  transform="matrix(1.4143 0 0 1.4143 231.1614 36)">
</image>
</svg>
