<?xml version="1.0" encoding="utf-8"?>
<!-- Generator: Adobe Illustrator 25.2.1, SVG Export Plug-In . SVG Version: 6.00 Build 0)  -->
<svg version="1.1" id="Layer_1" xmlns="http://www.w3.org/2000/svg" xmlns:xlink="http://www.w3.org/1999/xlink" x="0px" y="0px"
	 viewBox="0 0 750 546.1" style="enable-background:new 0 0 750 546.1;" xml:space="preserve">
<style type="text/css">
	.st0{fill:#EBEBEB;}
	.st1{fill:#FFFFFF;}
	.st2{fill:#E0E0E0;}
	.st3{fill:#F5F5F5;}
	.st4{fill:#263238;}
	.st5{fill:#FAFAFA;}
	.st6{clip-path:url(#SVGID_2_);}
	.st7{fill:#FF725E;}
	.st8{clip-path:url(#SVGID_4_);}
	.st9{fill:#455A64;}
	.st10{clip-path:url(#SVGID_6_);}
	.st11{fill:#FFBF9D;}
	.st12{fill:#FF9A6C;}
	.st13{opacity:0.3;}
	.st14{fill:#AE7461;}
	.st15{fill:#6F4439;}
	.st16{opacity:0.6;}
	
	#lines1 path{animation: right 1s infinite; animation-timing-function: linear;}
	
	@keyframes right {
  0% {
    transform:translatex(0px);
  }
 
  100% {
    transform:translatex(135px);
  }
}

#lines2 path{animation: left 1.5s infinite; animation-timing-function: linear;}
	
	@keyframes left {
  0% {
    transform:translatex(0px);
  }
 
  100% {
    transform:translatex(-140px);
  }
}

#lines3 path{animation: right 1s infinite; animation-timing-function: linear;}
	
	@keyframes right {
  0% {
    transform:translatex(0px);
  }
 
  100% {
    transform:translatex(135px);
  }
}
	
</style>
<g id="freepik--background-complete--inject-53">
	
		<image style="overflow:visible;opacity:0.2;enable-background:new    ;" width="791" height="553" xlink:href="6A22CEE8.png"  transform="matrix(1 0 0 1 -9 9.0714)">
	</image>
	<g>
		<g>
			<circle class="st0" cx="232.3" cy="135.6" r="32.8"/>
			<path class="st1" d="M223.2,135.4v-9.6c0-1.8,1.5-3.2,3.2-3.2c0.6,0,1.1,0.2,1.6,0.4l8.3,4.8l8.3,4.8c1.5,0.9,2.1,2.9,1.2,4.4
				c-0.3,0.5-0.7,0.9-1.2,1.2l-8.3,4.8l-8.3,4.8c-1.5,0.9-3.5,0.4-4.4-1.2c-0.3-0.5-0.4-1-0.4-1.6L223.2,135.4L223.2,135.4z"/>
			<path class="st0" d="M518.5,147.2L518.5,147.2c-10.2,0-18.5-8.3-18.5-18.5v-21.8c0-10.2,8.3-18.5,18.5-18.5l0,0l0,0
				c10.2,0,18.5,8.3,18.5,18.5v21.8C537,138.9,528.7,147.2,518.5,147.2z"/>
			<path class="st0" d="M518.5,158.5c-15.1,0-27.4-12.3-27.4-27.4h2.6c0,13.6,11.1,24.7,24.7,24.7c14.5,0,24.7-10.2,24.7-24.7h2.7
				C545.8,147.2,534.6,158.5,518.5,158.5z"/>
			<rect x="517.2" y="157.1" class="st0" width="2.7" height="13.4"/>
			<rect x="502.3" y="168.6" class="st0" width="32.3" height="2.7"/>
			<path class="st0" d="M491.2,100.5c-1,0-2.5-0.5-4.8-1.5c-4-1.7-5.3-2.5-4.8-3.9l0.2-0.6l0.6-0.3c1.4-0.6,4.9,0.8,5.6,1.1
				s4.1,1.8,4.7,3.2l0.2,0.6l-0.3,0.6l0,0C492.3,100.2,491.7,100.5,491.2,100.5z"/>
			<path class="st0" d="M501.7,86.6c-0.8,0-2.1-0.9-4.8-4.6c-3.2-4.3-3-5.3-2.9-5.7l0.1-0.5l0.9-0.7l0.6,0.1c0.3,0,1.4,0.2,4.5,4.5
				c3.7,5,3.3,6,2.4,6.6l0,0C502.3,86.5,502,86.6,501.7,86.6z"/>
			<path class="st0" d="M518.1,81.6l-0.5-0.4c-0.2-0.2-1-1-1-6s0.8-5.8,1.1-6l0.4-0.4h0.7c0.8,0.1,1.9,0.1,1.8,6.4
				c-0.1,6.3-1.2,6.3-2,6.4H518.1z"/>
			<path class="st0" d="M534.3,85.2l-0.5-0.4c-1.2-1.1-0.1-2.6,2.2-5.6s3.5-4.5,4.8-3.6l0.5,0.3l0.2,0.7c0.3,1.6-2,4.7-2.3,5.1
				s-2.7,3.5-4.2,3.6L534.3,85.2z"/>
			<path class="st0" d="M546.3,100.3c-0.5,0-1-0.3-1.3-0.8c-0.7-1.2,0.7-2.3,1.3-2.8c1-0.7,2-1.4,3-2c4.9-2.8,5.8-2.2,6.3-1.3
				c0.7,1.2-0.7,2.3-1.3,2.8c-1,0.7-2,1.4-3,2C548.7,99.8,547.2,100.3,546.3,100.3z"/>
			<path class="st2" d="M406.4,476.4c-1.7,0-3-1.3-3-3v-43.6c0-1.7,1.4-3,3-3s3,1.4,3,3v43.6C409.4,475.1,408.1,476.4,406.4,476.4
				L406.4,476.4z"/>
			<path class="st2" d="M392.2,469.6c-1.7,0-3-1.3-3-3v-30c0-1.7,1.4-3,3-3s3,1.4,3,3v30C395.2,468.3,393.9,469.6,392.2,469.6
				L392.2,469.6z"/>
			<path class="st2" d="M420.5,469.6c-1.7,0-3-1.3-3-3v-30c0-1.7,1.4-3,3-3s3,1.4,3,3v30C423.6,468.3,422.2,469.6,420.5,469.6
				C420.6,469.6,420.6,469.6,420.5,469.6z"/>
			<path class="st2" d="M434.7,463.5c-1.7,0-3-1.3-3-3v-17.8c0-1.7,1.4-3,3-3s3,1.4,3,3v17.7C437.8,462.1,436.4,463.5,434.7,463.5
				C434.8,463.5,434.7,463.5,434.7,463.5z"/>
			<path class="st2" d="M661.6,476.4c-1.7,0-3-1.3-3-3v-43.6c0-1.7,1.3-3,3-3s3,1.3,3,3v43.6C664.6,475.1,663.3,476.4,661.6,476.4
				L661.6,476.4z"/>
			<path class="st2" d="M647.4,469.6c-1.7,0-3-1.3-3-3v-30c0-1.7,1.4-3,3-3c1.7,0,3,1.4,3,3v30C650.5,468.3,649.1,469.6,647.4,469.6
				C647.5,469.6,647.5,469.6,647.4,469.6z"/>
			<path class="st2" d="M675.8,469.6c-1.7,0-3-1.3-3-3v-30c0-1.7,1.4-3,3-3c1.7,0,3,1.4,3,3v30C678.9,468.3,677.5,469.6,675.8,469.6
				L675.8,469.6z"/>
			<path class="st2" d="M690,463.5c-1.7,0-3-1.3-3-3v-17.8c0-1.7,1.3-3,3-3s3,1.3,3,3v17.7C693,462.1,691.7,463.5,690,463.5
				L690,463.5z"/>
			<path class="st2" d="M448.9,469c-1.7,0-3-1.3-3-3v-28.9c0-1.7,1.4-3,3-3s3,1.4,3,3v28.8C452,467.7,450.6,469,448.9,469
				C449,469,448.9,469,448.9,469z"/>
			<path class="st2" d="M463.1,475.3c-1.7,0-3-1.3-3-3v-41.4c0-1.7,1.4-3,3-3s3,1.4,3,3v41.4C466.1,474,464.8,475.3,463.1,475.3
				L463.1,475.3z"/>
			<path class="st2" d="M477.3,482.9c-1.7,0-3-1.3-3-3v-56.6c0-1.7,1.4-3,3-3s3,1.4,3,3v56.6C480.3,481.5,479,482.9,477.3,482.9
				L477.3,482.9z"/>
			<path class="st2" d="M491.4,475.7c-1.7,0-3-1.3-3-3v-42.1c0-1.7,1.4-3,3-3s3,1.4,3,3v42.1C494.5,474.3,493.2,475.6,491.4,475.7
				C491.5,475.7,491.5,475.7,491.4,475.7z"/>
			<path class="st2" d="M505.6,468.9c-1.7,0-3-1.3-3-3v-28.5c0-1.7,1.3-3,3-3s3,1.3,3,3v28.5C508.6,467.5,507.3,468.9,505.6,468.9
				C505.7,468.9,505.6,468.9,505.6,468.9z"/>
			<path class="st2" d="M519.8,465.2c-1.7,0-3-1.3-3-3v-21.3c0-1.7,1.4-3,3-3c1.7,0,3,1.4,3,3v21.3
				C522.9,463.9,521.5,465.2,519.8,465.2C519.9,465.2,519.8,465.2,519.8,465.2z"/>
			<path class="st2" d="M534,476.1c-1.7,0-3-1.3-3-3v-43c0-1.7,1.3-3,3-3s3,1.3,3,3v43C537,474.8,535.7,476.1,534,476.1z"/>
			<path class="st2" d="M590.7,476.1c-1.7,0-3-1.3-3-3v-43c0-1.7,1.3-3,3-3s3,1.3,3,3v43C593.7,474.8,592.4,476.1,590.7,476.1z"/>
			<path class="st2" d="M548.2,482.9c-1.7,0-3-1.3-3-3v-56.6c0-1.7,1.4-3,3-3c1.7,0,3,1.4,3,3v56.6
				C551.2,481.5,549.9,482.9,548.2,482.9L548.2,482.9z"/>
			<path class="st2" d="M562.3,494.3c-1.7,0-3-1.3-3-3l0,0v-79.4c0-1.7,1.3-3,3-3s3,1.3,3,3v79.4C565.4,493,564,494.3,562.3,494.3
				C562.4,494.3,562.4,494.3,562.3,494.3z"/>
			<path class="st2" d="M576.5,482.9c-1.7,0-3-1.3-3-3v-56.6c0-1.7,1.3-3,3-3s3,1.3,3,3v56.6C579.5,481.5,578.2,482.9,576.5,482.9
				L576.5,482.9z"/>
			<path class="st2" d="M604.9,465.2c-1.7,0-3-1.3-3-3v-21.3c0-1.7,1.3-3,3-3s3,1.3,3,3v21.3C607.9,463.9,606.6,465.2,604.9,465.2
				L604.9,465.2z"/>
			<path class="st2" d="M633.3,465.2c-1.7,0-3-1.3-3-3v-21.3c0-1.7,1.3-3,3-3s3,1.3,3,3v21.3C636.3,463.9,634.9,465.2,633.3,465.2
				L633.3,465.2z"/>
			<path class="st2" d="M619.1,461.7c-1.7,0-3-1.3-3-3v-14.2c0-1.7,1.4-3,3-3c1.7,0,3,1.4,3,3v14.2
				C622.1,460.3,620.8,461.7,619.1,461.7L619.1,461.7z"/>
			<path class="st2" d="M378,465.2c-1.7,0-3-1.3-3-3v-21.3c0-1.7,1.3-3,3-3s3,1.3,3,3v21.3C381,463.9,379.7,465.2,378,465.2
				L378,465.2z"/>
			<path class="st3" d="M240.1,299.8c-1.2,0-2.2-1-2.2-2.2l0,0v-32c0-1.2,1-2.2,2.2-2.2s2.2,1,2.2,2.2v32
				C242.3,298.8,241.3,299.8,240.1,299.8L240.1,299.8z"/>
			<path class="st3" d="M229.7,294.8c-1.2,0-2.2-1-2.2-2.2l0,0v-22c0-1.2,1-2.2,2.2-2.2s2.2,1,2.2,2.2v22
				C231.9,293.8,230.9,294.8,229.7,294.8L229.7,294.8z"/>
			<path class="st3" d="M250.5,294.8c-1.2,0-2.2-1-2.2-2.2l0,0v-22c0-1.2,1-2.2,2.2-2.2s2.2,1,2.2,2.2v22
				C252.7,293.8,251.7,294.8,250.5,294.8L250.5,294.8z"/>
			<path class="st3" d="M260.9,290.3c-1.2,0-2.2-1-2.2-2.2l0,0v-13c0-1.2,1-2.2,2.2-2.2s2.2,1,2.2,2.2v13
				C263.1,289.3,262.1,290.3,260.9,290.3L260.9,290.3z"/>
			<path class="st3" d="M427.4,299.8c-1.2,0-2.2-1-2.2-2.2v-32c0-1.2,1-2.2,2.2-2.2s2.2,1,2.2,2.2v32
				C429.6,298.8,428.6,299.8,427.4,299.8L427.4,299.8z"/>
			<path class="st3" d="M417,294.8c-1.2,0-2.2-1-2.2-2.2l0,0v-22c0-1.2,1-2.2,2.2-2.2s2.2,1,2.2,2.2v22
				C419.2,293.8,418.2,294.8,417,294.8L417,294.8z"/>
			<path class="st3" d="M437.8,294.8c-1.2,0-2.2-1-2.2-2.2l0,0v-22c0-1.2,1-2.2,2.2-2.2s2.2,1,2.2,2.2v22
				C440,293.8,439,294.8,437.8,294.8L437.8,294.8z"/>
			<path class="st3" d="M448.2,290.3c-1.2,0-2.2-1-2.2-2.2l0,0v-13c0.1-1.2,1.1-2.1,2.4-2.1c1.1,0.1,2,1,2.1,2.1v13
				C450.4,289.3,449.5,290.3,448.2,290.3L448.2,290.3z"/>
			<path class="st3" d="M271.3,294.4c-1.2,0-2.2-1-2.2-2.2l0,0V271c0-1.2,1-2.2,2.2-2.2s2.2,1,2.2,2.2v21.2
				C273.5,293.4,272.5,294.4,271.3,294.4z"/>
			<path class="st3" d="M281.7,299c-1.2,0-2.2-1-2.2-2.2l0,0v-30.4c-0.1-1.2,0.8-2.3,2.1-2.4c1.2-0.1,2.3,0.8,2.4,2.1
				c0,0.1,0,0.2,0,0.3v30.4C283.9,298,283,299,281.7,299L281.7,299z"/>
			<path class="st3" d="M292.1,304.6c-1.2,0-2.2-1-2.2-2.2l0,0v-41.5c0-1.2,1-2.2,2.2-2.2s2.2,1,2.2,2.2v41.5
				C294.3,303.6,293.4,304.6,292.1,304.6L292.1,304.6z"/>
			<path class="st3" d="M302.5,299.3c-1.2,0-2.2-1-2.2-2.2l0,0v-30.9c0-1.2,1-2.2,2.2-2.2s2.2,1,2.2,2.2v30.9
				C304.7,298.3,303.8,299.3,302.5,299.3z"/>
			<path class="st3" d="M312.9,294.3c-1.2,0-2.2-1-2.2-2.2l0,0v-21c0-1.2,1-2.2,2.2-2.2s2.2,1,2.2,2.2v21
				C315.1,293.3,314.1,294.3,312.9,294.3z"/>
			<path class="st3" d="M323.3,291.6c-1.2,0-2.2-1-2.2-2.2l0,0v-15.6c0-1.2,1-2.2,2.2-2.2s2.2,1,2.2,2.2v15.6
				C325.6,290.6,324.6,291.6,323.3,291.6C323.4,291.6,323.3,291.6,323.3,291.6z"/>
			<path class="st3" d="M333.8,299.6c-1.2,0-2.2-1-2.2-2.2l0,0v-31.6c0-1.2,1-2.2,2.2-2.2s2.2,1,2.2,2.2v31.6
				C336,298.6,335,299.6,333.8,299.6L333.8,299.6z"/>
			<path class="st3" d="M375.4,299.6c-1.2,0-2.2-1-2.2-2.2l0,0v-31.6c0-1.2,1-2.2,2.2-2.2s2.2,1,2.2,2.2v31.6
				C377.6,298.6,376.6,299.6,375.4,299.6L375.4,299.6z"/>
			<path class="st3" d="M344.1,304.6c-1.2,0-2.2-1-2.2-2.2l0,0v-41.5c0-1.2,1-2.2,2.2-2.2s2.2,1,2.2,2.2v41.5
				C346.4,303.6,345.4,304.6,344.1,304.6C344.2,304.6,344.2,304.6,344.1,304.6z"/>
			<path class="st3" d="M354.6,313c-1.2,0-2.2-1-2.2-2.2l0,0v-58.3c0-1.2,1-2.2,2.2-2.2s2.2,1,2.2,2.2v58.3
				C356.8,312,355.8,313,354.6,313z"/>
			<path class="st3" d="M365,304.6c-1.2,0-2.2-1-2.2-2.2l0,0v-41.5c-0.1-1.2,0.8-2.3,2.1-2.4c1.2-0.1,2.3,0.8,2.4,2.1
				c0,0.1,0,0.2,0,0.3v41.5C367.2,303.6,366.2,304.6,365,304.6L365,304.6z"/>
			<path class="st3" d="M385.8,291.6c-1.2,0-2.2-1-2.2-2.2l0,0v-15.6c0-1.2,1-2.2,2.2-2.2s2.2,1,2.2,2.2v15.6
				C388,290.6,387,291.6,385.8,291.6L385.8,291.6z"/>
			<path class="st3" d="M406.6,291.6c-1.2,0-2.2-1-2.2-2.2l0,0v-15.6c0-1.2,1-2.2,2.2-2.2s2.2,1,2.2,2.2v15.6
				C408.8,290.6,407.8,291.6,406.6,291.6L406.6,291.6z"/>
			<path class="st3" d="M396.2,289c-1.2,0-2.2-1-2.2-2.2v-10.4c0-1.2,1-2.2,2.2-2.2s2.2,1,2.2,2.2v10.4
				C398.4,288,397.5,289,396.2,289L396.2,289z"/>
			<path class="st3" d="M219.3,291.6c-1.2,0-2.2-1-2.2-2.2l0,0v-15.6c0-1.2,1-2.2,2.2-2.2s2.2,1,2.2,2.2v15.6
				C221.5,290.6,220.5,291.6,219.3,291.6L219.3,291.6z"/>
			<path class="st3" d="M312.8,299.8c-1.2,0-2.2-1-2.2-2.2v-32c0-1.2,1-2.2,2.2-2.2s2.2,1,2.2,2.2v32
				C315,298.8,314,299.8,312.8,299.8L312.8,299.8z"/>
			<path class="st3" d="M302.4,294.8c-1.2,0-2.2-1-2.2-2.2l0,0v-22c0-1.2,1-2.2,2.2-2.2s2.2,1,2.2,2.2v22
				C304.6,293.8,303.6,294.8,302.4,294.8L302.4,294.8z"/>
			<path class="st3" d="M323.2,294.8c-1.2,0-2.2-1-2.2-2.2l0,0v-22c0-1.2,1-2.2,2.2-2.2s2.2,1,2.2,2.2v22
				C325.4,293.8,324.4,294.8,323.2,294.8L323.2,294.8z"/>
			<path class="st3" d="M333.6,290.3c-1.2,0-2.2-1-2.2-2.2l0,0v-13c0-1.2,1-2.2,2.2-2.2s2.2,1,2.2,2.2v13
				C335.8,289.3,334.8,290.3,333.6,290.3L333.6,290.3z"/>
			<path class="st3" d="M500.1,299.8c-1.2,0-2.2-1-2.2-2.2l0,0v-32c0-1.2,1-2.2,2.2-2.2s2.2,1,2.2,2.2v32
				C502.3,298.8,501.3,299.8,500.1,299.8z"/>
			<path class="st3" d="M489.7,294.8c-1.2,0-2.2-1-2.2-2.2l0,0v-22c0-1.2,1-2.2,2.2-2.2s2.2,1,2.2,2.2v22
				C491.9,293.8,490.9,294.8,489.7,294.8L489.7,294.8z"/>
			<path class="st3" d="M510.5,294.8c-1.2,0-2.2-1-2.2-2.2l0,0v-22c0-1.2,1-2.2,2.2-2.2s2.2,1,2.2,2.2v22
				C512.7,293.8,511.7,294.8,510.5,294.8L510.5,294.8z"/>
			<path class="st3" d="M520.9,290.3c-1.2,0-2.2-1-2.2-2.2l0,0v-13c0-1.2,1-2.2,2.2-2.2s2.2,1,2.2,2.2v13
				C523.1,289.3,522.1,290.3,520.9,290.3L520.9,290.3z"/>
			<path class="st3" d="M344,294.4c-1.2,0-2.2-1-2.2-2.2V271c0-1.2,1-2.2,2.2-2.2s2.2,1,2.2,2.2v21.2
				C346.2,293.4,345.2,294.4,344,294.4L344,294.4z"/>
			<path class="st3" d="M354.4,299c-1.2,0-2.2-1-2.2-2.2l0,0v-30.4c0-1.2,1-2.2,2.2-2.2s2.2,1,2.2,2.2v30.4
				C356.6,298,355.6,299,354.4,299L354.4,299z"/>
			<path class="st3" d="M364.8,304.6c-1.2,0-2.2-1-2.2-2.2l0,0v-41.5c-0.1-1.2,0.8-2.3,2.1-2.4c1.2-0.1,2.3,0.8,2.4,2.1
				c0,0.1,0,0.2,0,0.3v41.5C367,303.6,366.1,304.6,364.8,304.6L364.8,304.6z"/>
			<path class="st3" d="M375.2,299.3c-1.2,0-2.2-1-2.2-2.2l0,0v-30.9c0-1.2,1-2.2,2.2-2.2s2.2,1,2.2,2.2v30.9
				C377.4,298.3,376.4,299.3,375.2,299.3L375.2,299.3z"/>
			<path class="st3" d="M385.6,294.3c-1.2,0-2.2-1-2.2-2.2l0,0v-21c0-1.2,1-2.2,2.2-2.2s2.2,1,2.2,2.2v21
				C387.8,293.3,386.8,294.3,385.6,294.3z"/>
			<path class="st3" d="M396,291.6c-1.2,0-2.2-1-2.2-2.2l0,0v-15.6c0-1.2,1-2.2,2.2-2.2s2.2,1,2.2,2.2v15.6
				C398.2,290.6,397.2,291.6,396,291.6L396,291.6z"/>
			<path class="st3" d="M406.4,299.6c-1.2,0-2.2-1-2.2-2.2l0,0v-31.6c0-1.2,1-2.2,2.2-2.2s2.2,1,2.2,2.2v31.6
				C408.7,298.6,407.7,299.6,406.4,299.6C406.5,299.6,406.4,299.6,406.4,299.6z"/>
			<path class="st3" d="M448.1,299.6c-1.2,0-2.2-1-2.2-2.2l0,0v-31.6c-0.1-1.2,0.8-2.3,2.1-2.4c1.2-0.1,2.3,0.8,2.4,2.1
				c0,0.1,0,0.2,0,0.3v31.6C450.3,298.6,449.3,299.6,448.1,299.6L448.1,299.6z"/>
			<path class="st3" d="M416.9,304.6c-1.2,0-2.2-1-2.2-2.2l0,0v-41.5c0-1.2,1-2.2,2.2-2.2s2.2,1,2.2,2.2v41.5
				C419.1,303.6,418.1,304.6,416.9,304.6L416.9,304.6z"/>
			<path class="st3" d="M427.2,313c-1.2,0-2.2-1-2.2-2.2v-58.3c0-1.2,1-2.2,2.2-2.2s2.2,1,2.2,2.2v58.3
				C429.5,312,428.5,313,427.2,313z"/>
			<path class="st3" d="M437.7,304.6c-1.2,0-2.2-1-2.2-2.2l0,0v-41.5c0-1.2,1-2.2,2.2-2.2s2.2,1,2.2,2.2v41.5
				C439.9,303.6,438.9,304.6,437.7,304.6L437.7,304.6z"/>
			<path class="st3" d="M458.5,291.6c-1.2,0-2.2-1-2.2-2.2l0,0v-15.6c0-1.2,1-2.2,2.2-2.2s2.2,1,2.2,2.2v15.6
				C460.7,290.6,459.7,291.6,458.5,291.6L458.5,291.6z"/>
			<path class="st3" d="M479.3,291.6c-1.2,0-2.2-1-2.2-2.2l0,0v-15.6c0-1.2,1-2.2,2.2-2.2s2.2,1,2.2,2.2v15.6
				C481.5,290.6,480.5,291.6,479.3,291.6L479.3,291.6z"/>
			<path class="st3" d="M468.9,289c-1.2,0-2.2-1-2.2-2.2l0,0v-10.4c0-1.2,1-2.2,2.2-2.2s2.2,1,2.2,2.2v10.4
				C471.1,288,470.1,289,468.9,289z"/>
			<path class="st3" d="M292,291.6c-1.2,0-2.2-1-2.2-2.2l0,0v-15.6c0-1.2,1-2.2,2.2-2.2s2.2,1,2.2,2.2v15.6
				C294.2,290.6,293.2,291.6,292,291.6L292,291.6z"/>
			<path class="st2" d="M84.7,476.4c-1.7,0-3-1.3-3-3v-43.6c0-1.7,1.3-3,3-3s3,1.3,3,3v43.6C87.7,475.1,86.4,476.4,84.7,476.4
				L84.7,476.4z"/>
			<path class="st2" d="M70.5,469.6c-1.7,0-3-1.3-3-3v-30c0-1.7,1.3-3,3-3s3,1.3,3,3v30C73.5,468.3,72.2,469.6,70.5,469.6z"/>
			<path class="st2" d="M98.9,469.6c-1.7,0-3-1.3-3-3v-30c0-1.7,1.3-3,3-3s3,1.3,3,3v30C101.9,468.3,100.5,469.6,98.9,469.6z"/>
			<path class="st2" d="M113,463.5c-1.7,0-3-1.3-3-3v-17.8c0-1.7,1.3-3,3-3s3,1.3,3,3v17.7C116,462.1,114.7,463.5,113,463.5
				L113,463.5z"/>
			<path class="st2" d="M340,476.4c-1.7,0-3-1.3-3-3v-43.6c0-1.7,1.4-3,3-3s3,1.4,3,3v43.6C343.1,475.1,341.7,476.4,340,476.4
				L340,476.4z"/>
			<path class="st2" d="M325.8,469.6c-1.7,0-3-1.3-3-3v-30c0-1.7,1.4-3,3-3s3,1.4,3,3v30C328.8,468.3,327.5,469.6,325.8,469.6
				L325.8,469.6z"/>
			<path class="st2" d="M354.1,469.6c-1.7,0-3-1.3-3-3v-30c0-1.7,1.3-3,3-3s3,1.3,3,3v30C357.1,468.3,355.8,469.6,354.1,469.6z"/>
			<path class="st2" d="M368.3,463.5c-1.7,0-3-1.3-3-3v-17.8c0-1.7,1.3-3,3-3s3,1.3,3,3v17.7C371.3,462.1,370,463.5,368.3,463.5
				L368.3,463.5z"/>
			<path class="st2" d="M127.2,469c-1.7,0-3-1.3-3-3v-28.9c0-1.7,1.3-3,3-3s3,1.3,3,3v28.8C130.2,467.7,128.9,469,127.2,469
				L127.2,469z"/>
			<path class="st2" d="M141.4,475.3c-1.7,0-3-1.3-3-3v-41.4c0-1.7,1.4-3,3-3c1.7,0,3,1.4,3,3v41.4
				C144.5,474,143.1,475.3,141.4,475.3C141.5,475.3,141.4,475.3,141.4,475.3z"/>
			<path class="st2" d="M155.6,482.9c-1.7,0-3-1.3-3-3v-56.6c0-1.7,1.4-3,3-3c1.7,0,3,1.4,3,3v56.6
				C158.7,481.5,157.3,482.9,155.6,482.9L155.6,482.9z"/>
			<path class="st2" d="M169.8,475.7c-1.7,0-3-1.3-3-3v-42.1c0-1.7,1.3-3,3-3s3,1.3,3,3v42.1C172.8,474.3,171.4,475.6,169.8,475.7
				L169.8,475.7z"/>
			<path class="st2" d="M184,468.9c-1.7,0-3-1.3-3-3v-28.5c0-1.7,1.3-3,3-3s3,1.3,3,3v28.5C187,467.5,185.7,468.9,184,468.9
				L184,468.9z"/>
			<path class="st2" d="M198.1,465.2c-1.7,0-3-1.3-3-3v-21.3c0-1.7,1.3-3,3-3s3,1.3,3,3v21.3C201.1,463.9,199.8,465.2,198.1,465.2
				L198.1,465.2z"/>
			<path class="st2" d="M212.3,476.1c-1.7,0-3-1.3-3-3v-43c0-1.7,1.4-3,3-3c1.7,0,3,1.4,3,3v43C215.4,474.8,214,476.1,212.3,476.1
				L212.3,476.1z"/>
			<path class="st2" d="M269,476.1c-1.7,0-3-1.3-3-3v-43c0-1.7,1.4-3,3-3s3,1.4,3,3v43C272.1,474.8,270.7,476.1,269,476.1L269,476.1
				z"/>
			<path class="st2" d="M226.5,482.9c-1.7,0-3-1.3-3-3v-56.6c0-1.7,1.4-3,3-3c1.7,0,3,1.4,3,3v56.6
				C229.6,481.5,228.2,482.9,226.5,482.9L226.5,482.9z"/>
			<path class="st2" d="M240.7,494.3c-1.7,0-3-1.3-3-3l0,0v-79.4c0-1.7,1.3-3,3-3s3,1.3,3,3v79.4C243.7,493,242.4,494.3,240.7,494.3
				L240.7,494.3z"/>
			<path class="st2" d="M254.9,482.9c-1.7,0-3-1.3-3-3v-56.6c0-1.7,1.3-3,3-3c1.7,0,3,1.3,3,3l0,0v56.6
				C257.9,481.5,256.5,482.9,254.9,482.9L254.9,482.9z"/>
			<path class="st2" d="M283.2,465.2c-1.7,0-3-1.3-3-3v-21.3c0-1.7,1.4-3,3-3s3,1.4,3,3v21.3C286.3,463.9,284.9,465.2,283.2,465.2
				C283.3,465.2,283.2,465.2,283.2,465.2z"/>
			<path class="st2" d="M311.6,465.2c-1.7,0-3-1.3-3-3v-21.3c0-1.7,1.4-3,3-3s3,1.4,3,3v21.3C314.6,463.9,313.3,465.2,311.6,465.2
				L311.6,465.2z"/>
			<path class="st2" d="M297.4,461.7c-1.7,0-3-1.3-3-3v-14.2c0-1.7,1.4-3,3-3s3,1.4,3,3v14.2C300.5,460.3,299.1,461.7,297.4,461.7
				L297.4,461.7z"/>
			<path class="st2" d="M56.3,465.2c-1.7,0-3-1.3-3-3v-21.3c0-1.7,1.4-3,3-3c1.7,0,3,1.4,3,3v21.3C59.4,463.9,58,465.2,56.3,465.2
				C56.4,465.2,56.3,465.2,56.3,465.2z"/>
			<rect x="664.7" y="152" class="st3" width="49.6" height="13.1"/>
			<path class="st2" d="M693.3,179c0-0.1,0-0.2,0-0.2v-0.7c0-0.6,0-1.5,0-2.6c0-2.3,0-5.5-0.1-9.6l0.2,0.2l-49.6,0.1
				c0.1-0.1-0.2,0.2,0.2-0.3l0,0V179l-0.2-0.2l35.4,0.1l10.4,0.1h2.8h0.7H693.3c0.1-0.1,0-0.1-0.2-0.1h-0.7h-2.8l-10.4,0.1
				l-35.5,0.1h-0.2v-13.2l0,0l0.2-0.2l49.6,0.1h0.2v0.1c0,4.2-0.1,7.4-0.1,9.7c0,1.1,0,1.9,0,2.6c0,0.3,0,0.5,0,0.6
				C693.5,179,693.3,179,693.3,179z"/>
			<rect x="360.8" y="62.6" class="st3" width="49.6" height="13.1"/>
			<path class="st2" d="M389.5,89.6c0-0.1,0-0.2,0-0.2v-0.7c0-0.6,0-1.5,0-2.6c0-2.3,0-5.5-0.1-9.6l0.2,0.1L340,76.7l0.2-0.2l0,0
				v13.1l-0.2-0.2l35.4,0.1l10.4,0.1h2.8h0.7L389.5,89.6l-0.2-0.1h-0.7h-2.8l-10.4,0.1l-35.5,0.1h-0.2V76.5l0,0
				c0.5-0.5,0.1-0.1,0.3-0.2l49.6,0.1h0.1v0.1c0,4.2-0.1,7.4-0.1,9.7c0,1.1,0,1.9,0,2.5c0,0.3,0,0.5,0,0.6
				C389.6,89.5,389.5,89.5,389.5,89.6z"/>
			<rect x="67.7" y="329.9" class="st3" width="49.6" height="13.1"/>
			<path class="st2" d="M96.3,356.9c0,0,0-0.1,0-0.2v-0.8v-2.6c0-2.3,0-5.5-0.1-9.6l0.2,0.1l-49.6,0.1l0.2-0.2l0,0v13.1l-0.2-0.2
				l35.3,0.1l10.4,0.1h2.8H96L96.3,356.9l-0.3-0.1h-0.7h-2.8l-10.3,0.1l-35.5,0.3h-0.2v-13.4l0,0l0.2-0.2l49.6,0.1h0.2v0.2
				c0,4.1-0.1,7.4-0.1,9.7c0,1.1,0,1.9,0,2.5c0,0.3,0,0.5,0,0.6C96.4,356.7,96.3,356.8,96.3,356.9z"/>
			<path class="st2" d="M684.1,327.2c0-0.1,0-0.2,0-0.2v-0.7c0-0.6,0-1.5,0-2.6c0-2.3,0-5.5-0.1-9.6l0.2,0.2l-49.6,0.1l0.2-0.3l0,0
				v13.1l-0.2-0.2l35.4,0.1l10.4,0.1h2.8h0.7H684.1c0.1-0.1,0-0.1-0.2-0.1h-0.7h-2.8l-10.4,0.1l-35.5,0.1h-0.2v-13.2l0,0l0.2-0.2
				l49.6,0.1h0.2v0.1c0,4.1-0.1,7.4-0.1,9.7c0,1.1,0,1.9,0,2.5v0.6C684.1,327.1,684.1,327.2,684.1,327.2z"/>
			<path class="st2" d="M690.8,314.1c0,0,0-0.1,0-0.2s0-0.4,0-0.7c0-0.6,0-1.5,0-2.6c0-2.3-0.1-5.6-0.1-9.6l0.2,0.2l-29.9,0.1
				c-0.2,0.2,0.3-0.3,0.2-0.3l0,0v6.8c0,2.2,0,4.3,0,6.4L661,314l21.3,0.1l6.2,0.1h1.7L690.8,314.1c-0.2,0.1-0.4,0.1-0.5,0.1h-1.6
				l-6.2,0.1l-21.5,0.1h-0.2v-0.1c0-2,0-4.2,0-6.4v-6.8l0,0l0.2-0.2l29.8,0.1h0.2v0.2c0,4-0.1,7.3-0.1,9.7c0,1.1,0,2,0,2.6
				C690.9,313.5,690.9,313.8,690.8,314.1z"/>
			<path class="st2" d="M94.2,163c0,0,0-0.1,0-0.2c0-0.2,0-0.4,0-0.7c0-0.6,0-1.5,0-2.6c0-2.3-0.1-5.5-0.1-9.6l0.2,0.2l-49.6,0.1
				l0.2-0.2l0,0v13.1l-0.2-0.2l35.4,0.1l10.4,0.1h2.8H94C94.1,162.9,94.2,162.9,94.2,163c0-0.1,0-0.1-0.2-0.1h-0.7h-2.8l-10.4,0.2
				l-35.5,0.1h-0.2v-13.3l0,0l0.2-0.2l49.6,0.1h0.2v0.1c0,4.2-0.1,7.4-0.1,9.7c0,1.1,0,1.9,0,2.6c0,0.3,0,0.5,0,0.6
				C94.3,163,94.2,163,94.2,163z"/>
			<path class="st2" d="M101,149.9c0,0,0-0.1,0-0.2s0-0.4,0-0.7c0-0.6,0-1.5,0-2.6c0-2.3-0.1-5.6-0.1-9.6l0.2,0.2l-29.8,0.1
				c-0.2,0.2,0.3-0.3,0.2-0.2l0,0v6.7c0,2.2,0,4.3,0,6.4l-0.2-0.2l21.3,0.1l6.2,0.1h1.7L101,149.9c-0.1-0.1-0.3-0.1-0.4-0.1H99
				l-6.2,0.1L71.3,150H71v-0.2c0-2,0-4.2,0-6.4v-6.6l0,0c-0.1,0,0.5-0.5,0.2-0.2l29.8,0.1h0.2v0.2c0,4-0.1,7.3-0.1,9.7
				c0,1.1,0,2,0,2.6C101.2,149.3,101.1,149.6,101,149.9z"/>
		</g>
	</g>
</g>
<g id="freepik--Floor--inject-53">
	
		<image style="overflow:visible;opacity:0.2;enable-background:new    ;" width="728" height="121" xlink:href="6A22CEE9.png"  transform="matrix(1 0 0 1 15 466.0714)">
	</image>
	<g>
		<g>
			<path class="st4" d="M675.5,519.5c0,0.1-135.9,0.3-303.6,0.3s-303.6-0.1-303.6-0.3s135.9-0.3,303.6-0.3S675.5,519.3,675.5,519.5z
				"/>
		</g>
	</g>
</g>
<g id="freepik--Device--inject-53">
	
		<image style="overflow:visible;opacity:0.2;enable-background:new    ;" width="324" height="538" xlink:href="6A22CEF2.png"  transform="matrix(1 0 0 1 224 49.0714)">
	</image>
	<g>
		<g>
			<path class="st4" d="M448.3,520.1l-140.7-0.7c-17-0.1-30.6-14-30.5-31l0,0l1.5-354.9c0-17,13.8-30.7,30.8-30.7l0,0l140.7,0.6
				c17,0.1,30.6,14,30.5,31l0,0l-1.5,354.9C479.1,506.3,465.3,520.1,448.3,520.1z"/>
			<path class="st1" d="M449.9,115.7l-27.3-0.1l-79.6-0.4h-9.6l-23.9-0.1c-11.9,0-21.5,9.6-21.6,21.5L286.4,483
				c-0.1,11.9,9.5,21.6,21.4,21.7l140.4,0.7c11.9,0,21.5-9.6,21.6-21.5l0,0l1.5-346.4C471.4,125.6,461.8,115.8,449.9,115.7
				L449.9,115.7z"/>
			<path class="st2" d="M453.6,141.9c0,1-0.8,1.7-1.7,1.7c-1,0-1.7-0.8-1.7-1.7c0-1,0.8-1.7,1.7-1.7
				C452.8,140.1,453.6,140.9,453.6,141.9z"/>
			<path class="st2" d="M453.6,148.1c0,1-0.8,1.7-1.7,1.7c-1,0-1.7-0.8-1.7-1.7l0,0c0-1,0.8-1.7,1.7-1.7
				C452.8,146.4,453.6,147.2,453.6,148.1z"/>
			<path class="st2" d="M453.6,154.4c0,1-0.8,1.7-1.7,1.7c-1,0-1.7-0.8-1.7-1.7c0-1,0.8-1.7,1.7-1.7l0,0
				C452.8,152.6,453.6,153.4,453.6,154.4z"/>
			<ellipse class="st2" cx="315" cy="147.1" rx="11.5" ry="11.5"/>
			<path class="st2" d="M354.4,145.8h60.2c1.8,0,3.2,1.4,3.2,3.2v1.5c0,1.8-1.4,3.2-3.2,3.2h-60.2c-1.8,0-3.2-1.4-3.2-3.2V149
				C351.2,147.2,352.6,145.8,354.4,145.8z"/>
		</g>
	</g>
</g>
<g id="freepik--voice-chat--inject-53">
	
		<image style="overflow:visible;opacity:0.2;enable-background:new    ;" width="443" height="362" xlink:href="6A22CEF3.png"  transform="matrix(1 0 0 1 168 139.0714)">
	</image>
	<g>
		<g>
			<path class="st5" d="M251.4,193.5h183.7c16.5,0,29.9,13.4,29.9,29.9v3.2c0,16.5-13.4,29.9-29.9,29.9H251.4
				c-16.5,0-29.9-13.4-29.9-29.9v-3.2C221.5,206.9,234.9,193.5,251.4,193.5z"/>
			<path class="st4" d="M435.1,257H251.4c-16.8,0-30.4-13.6-30.4-30.4v-3.2c0-16.8,13.6-30.4,30.4-30.4h183.7
				c16.8,0,30.4,13.6,30.4,30.4v3.2C465.5,243.4,451.9,257,435.1,257z M251.4,194c-16.2,0-29.4,13.2-29.4,29.4v3.2
				c0,16.2,13.2,29.4,29.4,29.4h183.7c16.2,0,29.4-13.2,29.4-29.4v-3.2c0-16.2-13.2-29.4-29.4-29.4H251.4z"/>
			<g>
				<defs>
					<rect id="SVGID_1_" x="277.8" y="195.4" width="173.6" height="59.8"/>
				</defs>
				<clipPath id="SVGID_2_">
					<use xlink:href="#SVGID_1_"  style="overflow:visible;"/>
				</clipPath>
				<g id="lines1" class="st6">
					<path class="st7" d="M296.4,238.5c-0.8,0-1.5-0.7-1.5-1.5v-23c0-0.8,0.7-1.5,1.5-1.5s1.5,0.7,1.5,1.5v23
						C297.9,237.8,297.2,238.5,296.4,238.5z"/>
					<path class="st7" d="M288.9,234.9c-0.8,0-1.5-0.7-1.5-1.5v-15.8c0-0.8,0.7-1.5,1.5-1.5s1.5,0.7,1.5,1.5v15.8
						C290.4,234.2,289.8,234.9,288.9,234.9z"/>
					<path class="st7" d="M303.9,234.9c-0.8,0-1.5-0.7-1.5-1.5v-15.8c0-0.8,0.7-1.5,1.5-1.5s1.5,0.7,1.5,1.5v15.8
						C305.4,234.2,304.7,234.9,303.9,234.9z"/>
					<path class="st7" d="M311.3,231.7c-0.8,0-1.5-0.7-1.5-1.5v-9.3c0-0.8,0.7-1.5,1.5-1.5s1.5,0.7,1.5,1.5v9.3
						C312.8,231,312.2,231.7,311.3,231.7z"/>
					<path class="st7" d="M430.9,238.5c-0.8,0-1.5-0.7-1.5-1.5v-23c0-0.8,0.7-1.5,1.5-1.5s1.5,0.7,1.5,1.5v23
						C432.4,237.8,431.7,238.5,430.9,238.5z"/>
					<path class="st7" d="M423.4,234.9c-0.8,0-1.5-0.7-1.5-1.5v-15.8c0-0.8,0.7-1.5,1.5-1.5s1.5,0.7,1.5,1.5v15.8
						C424.9,234.2,424.2,234.9,423.4,234.9z"/>
					<path class="st7" d="M438.3,234.9c-0.8,0-1.5-0.7-1.5-1.5v-15.8c0-0.8,0.7-1.5,1.5-1.5s1.5,0.7,1.5,1.5v15.8
						C439.8,234.2,439.1,234.9,438.3,234.9z"/>
					<path class="st7" d="M445.8,231.7c-0.8,0-1.5-0.7-1.5-1.5v-9.3c0-0.8,0.7-1.5,1.5-1.5s1.5,0.7,1.5,1.5v9.3
						C447.3,231,446.6,231.7,445.8,231.7z"/>
					<path class="st7" d="M318.8,234.6c-0.8,0-1.5-0.7-1.5-1.5v-15.2c0-0.8,0.7-1.5,1.5-1.5s1.5,0.7,1.5,1.5v15.2
						C320.3,233.9,319.6,234.6,318.8,234.6z"/>
					<path class="st7" d="M326.3,237.9c-0.8,0-1.5-0.7-1.5-1.5v-21.8c0-0.8,0.7-1.5,1.5-1.5s1.5,0.7,1.5,1.5v21.8
						C327.8,237.3,327.1,237.9,326.3,237.9z"/>
					<path class="st7" d="M333.8,241.9c-0.8,0-1.5-0.7-1.5-1.5v-29.8c0-0.8,0.7-1.5,1.5-1.5s1.5,0.7,1.5,1.5v29.8
						C335.2,241.2,334.6,241.9,333.8,241.9z"/>
					<path class="st7" d="M341.2,238.1c-0.8,0-1.5-0.7-1.5-1.5v-22.2c0-0.8,0.7-1.5,1.5-1.5s1.5,0.7,1.5,1.5v22.2
						C342.7,237.4,342.1,238.1,341.2,238.1L341.2,238.1z"/>
					<path class="st7" d="M348.7,234.5c-0.8,0-1.5-0.7-1.5-1.5v-15c0-0.8,0.7-1.5,1.5-1.5s1.5,0.7,1.5,1.5v15
						C350.2,233.9,349.5,234.5,348.7,234.5z"/>
					<path class="st7" d="M356.1,232.6c-0.8,0-1.5-0.7-1.5-1.5v-11.2c0-0.8,0.7-1.5,1.5-1.5s1.5,0.7,1.5,1.5v11.2
						C357.7,231.9,357,232.6,356.1,232.6C356.2,232.6,356.2,232.6,356.1,232.6z"/>
					<path class="st7" d="M363.6,238.3c-0.8,0-1.5-0.7-1.5-1.5v-22.6c0-0.8,0.7-1.5,1.5-1.5s1.5,0.7,1.5,1.5v22.6
						C365.1,237.7,364.4,238.3,363.6,238.3z"/>
					<path class="st7" d="M393.5,238.3c-0.8,0-1.5-0.7-1.5-1.5v-22.6c0-0.8,0.7-1.5,1.5-1.5s1.5,0.7,1.5,1.5v22.6
						C395,237.7,394.3,238.3,393.5,238.3z"/>
					<path class="st7" d="M371.1,241.9c-0.8,0-1.5-0.7-1.5-1.5v-29.8c0-0.8,0.7-1.5,1.5-1.5s1.5,0.7,1.5,1.5v29.8
						C372.6,241.2,371.9,241.9,371.1,241.9z"/>
					<path class="st7" d="M378.6,247.9c-0.8,0-1.5-0.7-1.5-1.5v-41.8c0-0.8,0.7-1.5,1.5-1.5s1.5,0.7,1.5,1.5v41.8
						C380.1,247.3,379.4,247.9,378.6,247.9z"/>
					<path class="st7" d="M386,241.9c-0.8,0-1.5-0.7-1.5-1.5v-29.8c0-0.8,0.7-1.5,1.5-1.5s1.5,0.7,1.5,1.5v29.8
						C387.5,241.2,386.8,241.9,386,241.9z"/>
					<path class="st7" d="M401,232.6c-0.8,0-1.5-0.7-1.5-1.5v-11.2c0-0.8,0.7-1.5,1.5-1.5s1.5,0.7,1.5,1.5v11.2
						C402.5,231.9,401.8,232.6,401,232.6L401,232.6z"/>
					<path class="st7" d="M415.9,232.6c-0.8,0-1.5-0.7-1.5-1.5v-11.2c0-0.8,0.7-1.5,1.5-1.5s1.5,0.7,1.5,1.5v11.2
						C417.4,231.9,416.7,232.6,415.9,232.6L415.9,232.6z"/>
					<path class="st7" d="M408.4,230.8c-0.8,0-1.5-0.7-1.5-1.5v-7.5c0-0.8,0.7-1.5,1.5-1.5s1.5,0.7,1.5,1.5v7.5
						C409.9,230.1,409.3,230.8,408.4,230.8z"/>
					<path class="st7" d="M281.5,232.6c-0.8,0-1.5-0.7-1.5-1.5v-11.2c0-0.8,0.7-1.5,1.5-1.5s1.5,0.7,1.5,1.5v11.2
						C283,231.9,282.3,232.6,281.5,232.6L281.5,232.6z"/>
					<path class="st7" d="M161.9,237.8c-0.8,0-1.5-0.7-1.5-1.5v-23c0-0.8,0.7-1.5,1.5-1.5s1.5,0.7,1.5,1.5v23
						C163.4,237.1,162.7,237.8,161.9,237.8z"/>
					<path class="st7" d="M154.4,234.2c-0.8,0-1.5-0.7-1.5-1.5v-15.8c0-0.8,0.7-1.5,1.5-1.5s1.5,0.7,1.5,1.5v15.8
						C155.9,233.5,155.3,234.2,154.4,234.2z"/>
					<path class="st7" d="M169.4,234.2c-0.8,0-1.5-0.7-1.5-1.5v-15.8c0-0.8,0.7-1.5,1.5-1.5s1.5,0.7,1.5,1.5v15.8
						C170.9,233.5,170.2,234.2,169.4,234.2z"/>
					<path class="st7" d="M176.8,231c-0.8,0-1.5-0.7-1.5-1.5v-9.3c0-0.8,0.7-1.5,1.5-1.5s1.5,0.7,1.5,1.5v9.3
						C178.3,230.3,177.7,231,176.8,231z"/>
					<path class="st7" d="M296.4,237.8c-0.8,0-1.5-0.7-1.5-1.5v-23c0-0.8,0.7-1.5,1.5-1.5s1.5,0.7,1.5,1.5v23
						C297.9,237.1,297.2,237.8,296.4,237.8z"/>
					<path class="st7" d="M288.9,234.2c-0.8,0-1.5-0.7-1.5-1.5v-15.8c0-0.8,0.7-1.5,1.5-1.5s1.5,0.7,1.5,1.5v15.8
						C290.4,233.5,289.7,234.2,288.9,234.2z"/>
					<path class="st7" d="M303.8,234.2c-0.8,0-1.5-0.7-1.5-1.5v-15.8c0-0.8,0.7-1.5,1.5-1.5s1.5,0.7,1.5,1.5v15.8
						C305.3,233.5,304.6,234.2,303.8,234.2z"/>
					<path class="st7" d="M311.3,231c-0.8,0-1.5-0.7-1.5-1.5v-9.3c0-0.8,0.7-1.5,1.5-1.5s1.5,0.7,1.5,1.5v9.3
						C312.8,230.3,312.1,231,311.3,231z"/>
					<path class="st7" d="M184.3,233.9c-0.8,0-1.5-0.7-1.5-1.5v-15.2c0-0.8,0.7-1.5,1.5-1.5s1.5,0.7,1.5,1.5v15.2
						C185.8,233.2,185.1,233.9,184.3,233.9z"/>
					<path class="st7" d="M191.8,237.2c-0.8,0-1.5-0.7-1.5-1.5v-21.8c0-0.8,0.7-1.5,1.5-1.5s1.5,0.7,1.5,1.5v21.8
						C193.3,236.6,192.6,237.2,191.8,237.2z"/>
					<path class="st7" d="M199.3,241.2c-0.8,0-1.5-0.7-1.5-1.5v-29.8c0-0.8,0.7-1.5,1.5-1.5s1.5,0.7,1.5,1.5v29.8
						C200.7,240.5,200.1,241.2,199.3,241.2z"/>
					<path class="st7" d="M206.7,237.4c-0.8,0-1.5-0.7-1.5-1.5v-22.2c0-0.8,0.7-1.5,1.5-1.5s1.5,0.7,1.5,1.5v22.2
						C208.2,236.7,207.6,237.4,206.7,237.4L206.7,237.4z"/>
					<path class="st7" d="M214.2,233.8c-0.8,0-1.5-0.7-1.5-1.5v-15c0-0.8,0.7-1.5,1.5-1.5s1.5,0.7,1.5,1.5v15
						C215.7,233.2,215,233.8,214.2,233.8z"/>
					<path class="st7" d="M221.6,231.9c-0.8,0-1.5-0.7-1.5-1.5v-11.2c0-0.8,0.7-1.5,1.5-1.5s1.5,0.7,1.5,1.5v11.2
						C223.2,231.2,222.5,231.9,221.6,231.9C221.7,231.9,221.7,231.9,221.6,231.9z"/>
					<path class="st7" d="M229.1,237.6c-0.8,0-1.5-0.7-1.5-1.5v-22.6c0-0.8,0.7-1.5,1.5-1.5s1.5,0.7,1.5,1.5v22.6
						C230.6,237,229.9,237.6,229.1,237.6z"/>
					<path class="st7" d="M259,237.6c-0.8,0-1.5-0.7-1.5-1.5v-22.6c0-0.8,0.7-1.5,1.5-1.5s1.5,0.7,1.5,1.5v22.6
						C260.5,237,259.8,237.6,259,237.6z"/>
					<path class="st7" d="M236.6,241.2c-0.8,0-1.5-0.7-1.5-1.5v-29.8c0-0.8,0.7-1.5,1.5-1.5s1.5,0.7,1.5,1.5v29.8
						C238.1,240.5,237.4,241.2,236.6,241.2z"/>
					<path class="st7" d="M244.1,247.2c-0.8,0-1.5-0.7-1.5-1.5v-41.8c0-0.8,0.7-1.5,1.5-1.5s1.5,0.7,1.5,1.5v41.8
						C245.6,246.6,244.9,247.2,244.1,247.2z"/>
					<path class="st7" d="M251.5,241.2c-0.8,0-1.5-0.7-1.5-1.5v-29.8c0-0.8,0.7-1.5,1.5-1.5s1.5,0.7,1.5,1.5v29.8
						C253,240.5,252.3,241.2,251.5,241.2z"/>
					<path class="st7" d="M266.5,231.9c-0.8,0-1.5-0.7-1.5-1.5v-11.2c0-0.8,0.7-1.5,1.5-1.5s1.5,0.7,1.5,1.5v11.2
						C268,231.2,267.3,231.9,266.5,231.9L266.5,231.9z"/>
					<path class="st7" d="M281.4,231.9c-0.8,0-1.5-0.7-1.5-1.5v-11.2c0-0.8,0.7-1.5,1.5-1.5s1.5,0.7,1.5,1.5v11.2
						C282.9,231.2,282.2,231.9,281.4,231.9L281.4,231.9z"/>
					<path class="st7" d="M273.9,230.1c-0.8,0-1.5-0.7-1.5-1.5v-7.5c0-0.8,0.7-1.5,1.5-1.5s1.5,0.7,1.5,1.5v7.5
						C275.4,229.4,274.8,230.1,273.9,230.1z"/>
					<path class="st7" d="M147,231.9c-0.8,0-1.5-0.7-1.5-1.5v-11.2c0-0.8,0.7-1.5,1.5-1.5s1.5,0.7,1.5,1.5v11.2
						C148.5,231.2,147.8,231.9,147,231.9L147,231.9z"/>
				</g>
			</g>
			
				<ellipse id="cir1" transform="matrix(0.1602 -0.9871 0.9871 0.1602 -10.4358 437.3525)" class="st7" cx="251.8" cy="224.8" rx="21.2" ry="21.2"/>
			<path class="st1" d="M246.2,225.5v-6.2c0-1.2,0.9-2.1,2.1-2.1c0.4,0,0.7,0.1,1,0.3l5.4,3.1l5.4,3.1c1,0.6,1.3,1.8,0.8,2.8
				c-0.2,0.3-0.5,0.6-0.8,0.8l-5.4,3.1l-5.4,3.1c-1,0.6-2.3,0.2-2.9-0.8c-0.2-0.3-0.3-0.7-0.3-1L246.2,225.5z"/>
			<path class="st5" d="M263.9,369.8h183.7c16.5,0,29.9,13.4,29.9,29.9v3.2c0,16.5-13.4,29.9-29.9,29.9H263.9
				c-16.5,0-29.9-13.4-29.9-29.9v-3.2C234,383.2,247.4,369.8,263.9,369.8z"/>
			<path class="st4" d="M447.6,433.3H263.9c-16.8,0-30.4-13.6-30.4-30.4v-3.2c0-16.8,13.6-30.4,30.4-30.4h183.7
				c16.8,0,30.4,13.6,30.4,30.4v3.2C478,419.7,464.4,433.3,447.6,433.3z M263.9,370.3c-16.2,0-29.4,13.2-29.4,29.4v3.2
				c0,16.2,13.2,29.4,29.4,29.4h183.7c16.2,0,29.4-13.2,29.4-29.4v-3.2c0-16.2-13.2-29.4-29.4-29.4H263.9z"/>
			<g>
				<defs>
					<rect id="SVGID_3_" x="293.8" y="371.5" width="173.6" height="59.8"/>
				</defs>
				<clipPath id="SVGID_4_">
					<use xlink:href="#SVGID_3_"  style="overflow:visible;"/>
				</clipPath>
				<g id="lines3" class="st8">
					<path class="st2" d="M346.4,414.8c-0.8,0-1.5-0.7-1.5-1.5v-23c0-0.8,0.7-1.5,1.5-1.5s1.5,0.7,1.5,1.5v23
						C347.9,414.1,347.2,414.8,346.4,414.8z"/>
					<path class="st2" d="M338.9,411.2c-0.8,0-1.5-0.7-1.5-1.5v-15.8c0-0.8,0.7-1.5,1.5-1.5s1.5,0.7,1.5,1.5v15.8
						C340.4,410.5,339.7,411.2,338.9,411.2z"/>
					<path class="st2" d="M353.8,411.2c-0.8,0-1.5-0.7-1.5-1.5v-15.8c0-0.8,0.7-1.5,1.5-1.5s1.5,0.7,1.5,1.5v15.8
						C355.3,410.5,354.6,411.2,353.8,411.2z"/>
					<path class="st2" d="M361.3,408c-0.8,0-1.5-0.7-1.5-1.5v-9.4c0-0.8,0.7-1.5,1.5-1.5s1.5,0.7,1.5,1.5v9.3
						C362.8,407.3,362.1,408,361.3,408L361.3,408z"/>
					<path class="st2" d="M256.7,414.4c-0.8,0-1.5-0.7-1.5-1.5v-22.2c0-0.8,0.7-1.5,1.5-1.5s1.5,0.7,1.5,1.5v22.2
						C258.2,413.7,257.5,414.4,256.7,414.4z"/>
					<path class="st2" d="M264.2,410.8c-0.8,0-1.5-0.7-1.5-1.5v-15c0-0.8,0.7-1.5,1.5-1.5s1.5,0.7,1.5,1.5v15
						C265.7,410.1,265,410.8,264.2,410.8z"/>
					<path class="st2" d="M271.7,408.9c-0.8,0-1.5-0.7-1.5-1.5v-11.2c0-0.8,0.7-1.5,1.5-1.5s1.5,0.7,1.5,1.5v11.2
						C273.2,408.2,272.5,408.9,271.7,408.9z"/>
					<path class="st2" d="M279.1,414.6c-0.8,0-1.5-0.7-1.5-1.5v-22.7c0-0.8,0.7-1.5,1.5-1.5s1.5,0.7,1.5,1.5V413
						C280.6,413.9,280,414.6,279.1,414.6L279.1,414.6z"/>
					<path class="st2" d="M309,414.6c-0.8,0-1.5-0.7-1.5-1.5v-22.7c0-0.8,0.7-1.5,1.5-1.5s1.5,0.7,1.5,1.5V413
						C310.5,413.9,309.8,414.6,309,414.6L309,414.6z"/>
					<path class="st2" d="M286.6,418.2c-0.8,0-1.5-0.7-1.5-1.5v-29.8c0-0.8,0.7-1.5,1.5-1.5s1.5,0.7,1.5,1.5v29.8
						C288.1,417.5,287.4,418.2,286.6,418.2z"/>
					<path class="st2" d="M294.1,424.2c-0.8,0-1.5-0.7-1.5-1.5v-41.8c0-0.8,0.7-1.5,1.5-1.5s1.5,0.7,1.5,1.5v41.8
						C295.6,423.6,294.9,424.2,294.1,424.2z"/>
					<path class="st2" d="M301.5,418.2c-0.8,0-1.5-0.7-1.5-1.5v-29.8c0-0.8,0.7-1.5,1.5-1.5s1.5,0.7,1.5,1.5v29.8
						C303,417.5,302.4,418.2,301.5,418.2z"/>
					<path class="st2" d="M316.5,408.9c-0.8,0-1.5-0.7-1.5-1.5v-11.2c0-0.8,0.7-1.5,1.5-1.5s1.5,0.7,1.5,1.5v11.2
						C318,408.2,317.3,408.9,316.5,408.9z"/>
					<path class="st2" d="M331.4,408.9c-0.8,0-1.5-0.7-1.5-1.5v-11.2c0-0.8,0.7-1.5,1.5-1.5s1.5,0.7,1.5,1.5v11.2
						C332.9,408.2,332.2,408.9,331.4,408.9z"/>
					<path class="st2" d="M323.9,407c-0.8,0-1.5-0.7-1.5-1.5v-7.4c0-0.8,0.7-1.5,1.5-1.5s1.5,0.7,1.5,1.5v7.5
						C325.4,406.4,324.8,407,323.9,407z"/>
					<path class="st2" d="M452,413.3c-0.8,0-1.5-0.7-1.5-1.5v-23c0-0.8,0.7-1.5,1.5-1.5s1.5,0.7,1.5,1.5v23
						C453.5,412.6,452.8,413.3,452,413.3z"/>
					<path class="st2" d="M444.5,409.6c-0.8,0-1.5-0.7-1.5-1.5v-15.8c0-0.8,0.7-1.5,1.5-1.5s1.5,0.7,1.5,1.5v15.8
						C446,408.9,445.3,409.6,444.5,409.6z"/>
					<path class="st2" d="M459.4,409.6c-0.8,0-1.5-0.7-1.5-1.5v-15.8c0-0.8,0.7-1.5,1.5-1.5s1.5,0.7,1.5,1.5v15.8
						C460.9,408.9,460.2,409.6,459.4,409.6z"/>
					<path class="st2" d="M466.9,406.4c-0.8,0-1.5-0.7-1.5-1.5v-9.4c0-0.8,0.7-1.5,1.5-1.5s1.5,0.7,1.5,1.5v9.3
						C468.4,405.8,467.7,406.4,466.9,406.4L466.9,406.4z"/>
					<path class="st2" d="M371.3,412.9c-0.8,0-1.5-0.7-1.5-1.5v-22.2c0-0.8,0.7-1.5,1.5-1.5s1.5,0.7,1.5,1.5v22.2
						C372.8,412.1,372.1,412.9,371.3,412.9z"/>
					<path class="st2" d="M378.8,409.3c-0.8,0-1.5-0.7-1.5-1.5v-15c0-0.8,0.7-1.5,1.5-1.5s1.5,0.7,1.5,1.5v15
						C380.3,408.6,379.6,409.3,378.8,409.3z"/>
					<path class="st2" d="M386.3,407.4c-0.8,0-1.5-0.7-1.5-1.5v-11.2c0-0.8,0.7-1.5,1.5-1.5s1.5,0.7,1.5,1.5v11.2
						C387.8,406.6,387.1,407.4,386.3,407.4z"/>
					<path class="st2" d="M393.7,413.1c-0.8,0-1.5-0.7-1.5-1.5v-22.7c0-0.8,0.7-1.5,1.5-1.5s1.5,0.7,1.5,1.5v22.6
						C395.2,412.4,394.6,413.1,393.7,413.1L393.7,413.1z"/>
					<path class="st2" d="M423.6,413.1c-0.8,0-1.5-0.7-1.5-1.5v-22.7c0-0.8,0.7-1.5,1.5-1.5s1.5,0.7,1.5,1.5v22.6
						C425.1,412.4,424.4,413.1,423.6,413.1L423.6,413.1z"/>
					<path class="st2" d="M401.2,416.6c-0.8,0-1.5-0.7-1.5-1.5v-29.8c0-0.8,0.7-1.5,1.5-1.5s1.5,0.7,1.5,1.5v29.8
						C402.7,415.9,402,416.6,401.2,416.6z"/>
					<path class="st2" d="M408.7,422.6c-0.8,0-1.5-0.7-1.5-1.5v-41.8c0-0.8,0.7-1.5,1.5-1.5s1.5,0.7,1.5,1.5v41.8
						C410.2,422.1,409.5,422.6,408.7,422.6z"/>
					<path class="st2" d="M366.5,409.8c-0.8,0-1.5-0.7-1.5-1.5v-15c0-0.8,0.7-1.5,1.5-1.5s1.5,0.7,1.5,1.5v15
						C368,409.1,367.3,409.8,366.5,409.8z"/>
					<path class="st2" d="M416.1,416.6c-0.8,0-1.5-0.7-1.5-1.5v-29.8c0-0.8,0.7-1.5,1.5-1.5s1.5,0.7,1.5,1.5v29.8
						C417.6,415.9,417,416.6,416.1,416.6z"/>
					<path class="st2" d="M431.1,407.4c-0.8,0-1.5-0.7-1.5-1.5v-11.2c0-0.8,0.7-1.5,1.5-1.5s1.5,0.7,1.5,1.5v11.2
						C432.6,406.6,431.9,407.4,431.1,407.4z"/>
					<path class="st2" d="M438,407.4c-0.8,0-1.5-0.7-1.5-1.5v-11.2c0-0.8,0.7-1.5,1.5-1.5s1.5,0.7,1.5,1.5v11.2
						C439.5,406.6,438.8,407.4,438,407.4z"/>
					<path class="st7" d="M211.9,414.8c-0.8,0-1.5-0.7-1.5-1.5v-23c0-0.8,0.7-1.5,1.5-1.5s1.5,0.7,1.5,1.5v23
						C213.4,414.1,212.7,414.8,211.9,414.8z"/>
					<path class="st7" d="M204.4,411.2c-0.8,0-1.5-0.7-1.5-1.5v-15.8c0-0.8,0.7-1.5,1.5-1.5s1.5,0.7,1.5,1.5v15.8
						C205.9,410.5,205.3,411.2,204.4,411.2z"/>
					<path class="st7" d="M219.4,411.2c-0.8,0-1.5-0.7-1.5-1.5v-15.8c0-0.8,0.7-1.5,1.5-1.5s1.5,0.7,1.5,1.5v15.8
						C220.9,410.5,220.2,411.2,219.4,411.2z"/>
					<path class="st7" d="M226.8,408c-0.8,0-1.5-0.7-1.5-1.5v-9.4c0-0.8,0.7-1.5,1.5-1.5s1.5,0.7,1.5,1.5v9.3
						C228.4,407.3,227.7,408,226.8,408C226.9,408,226.8,408,226.8,408z"/>
					<path class="st7" d="M234.3,410.9c-0.8,0-1.5-0.7-1.5-1.5v-15.2c0-0.8,0.7-1.5,1.5-1.5s1.5,0.7,1.5,1.5v15.2
						C235.8,410.2,235.1,410.9,234.3,410.9z"/>
					<path class="st7" d="M241.8,414.2c-0.8,0-1.5-0.7-1.5-1.5v-21.8c0-0.8,0.7-1.5,1.5-1.5s1.5,0.7,1.5,1.5v21.8
						C243.3,413.5,242.6,414.2,241.8,414.2z"/>
					<path class="st7" d="M249.2,418.2c-0.8,0-1.5-0.7-1.5-1.5v-29.8c0-0.8,0.7-1.5,1.5-1.5s1.5,0.7,1.5,1.5v29.8
						C250.8,417.5,250.1,418.2,249.2,418.2z"/>
					<path class="st7" d="M197,408.9c-0.8,0-1.5-0.7-1.5-1.5v-11.2c0-0.8,0.7-1.5,1.5-1.5s1.5,0.7,1.5,1.5v11.2
						C198.5,408.2,197.8,408.9,197,408.9z"/>
					<path class="st7" d="M153.3,414.4c-0.8,0-1.5-0.7-1.5-1.5v-23c0-0.8,0.7-1.5,1.5-1.5s1.5,0.7,1.5,1.5v23
						C154.8,413.7,154.1,414.4,153.3,414.4z"/>
					<path class="st7" d="M168.2,407.6c-0.8,0-1.5-0.7-1.5-1.5v-9.4c0-0.8,0.7-1.5,1.5-1.5s1.5,0.7,1.5,1.5v9.3
						C169.8,406.9,169.1,407.6,168.2,407.6C168.3,407.6,168.2,407.6,168.2,407.6z"/>
					<path class="st7" d="M175.7,410.5c-0.8,0-1.5-0.7-1.5-1.5v-15.2c0-0.8,0.7-1.5,1.5-1.5s1.5,0.7,1.5,1.5V409
						C177.2,409.8,176.5,410.5,175.7,410.5z"/>
					<path class="st7" d="M183.2,413.8c-0.8,0-1.5-0.7-1.5-1.5v-21.8c0-0.8,0.7-1.5,1.5-1.5s1.5,0.7,1.5,1.5v21.8
						C184.7,413.1,184,413.8,183.2,413.8z"/>
					<path class="st7" d="M190.6,417.8c-0.8,0-1.5-0.7-1.5-1.5v-29.8c0-0.8,0.7-1.5,1.5-1.5s1.5,0.7,1.5,1.5v29.8
						C192.2,417.1,191.5,417.8,190.6,417.8z"/>
					<path class="st7" d="M138.4,408.5c-0.8,0-1.5-0.7-1.5-1.5v-11.2c0-0.8,0.7-1.5,1.5-1.5s1.5,0.7,1.5,1.5V407
						C139.9,407.8,139.2,408.5,138.4,408.5z"/>
					<path class="st7" d="M161.7,411.2c-0.8,0-1.5-0.7-1.5-1.5v-15.8c0-0.8,0.7-1.5,1.5-1.5s1.5,0.7,1.5,1.5v15.8
						C163.2,410.5,162.5,411.2,161.7,411.2z"/>
				</g>
			</g>
			<circle id="cir3" class="st7" cx="264.3" cy="401.1" r="21.2"/>
			<path class="st1" d="M258.7,401.8v-6.2c0-1.1,0.9-2.1,2.1-2.1c0.4,0,0.7,0.1,1.1,0.3l5.4,3.1l5.3,3.1c1,0.6,1.3,1.9,0.8,2.9
				c-0.2,0.3-0.4,0.6-0.8,0.8l-5.3,3.1l-5.4,3.1c-1,0.6-2.3,0.2-2.8-0.7c-0.2-0.3-0.3-0.7-0.3-1.1v-6.3H258.7z"/>
			<path class="st5" d="M329.6,285h183.7c16.5,0,29.9,13.4,29.9,29.9v3.2c0,16.5-13.4,29.9-29.9,29.9H329.6
				c-16.5,0-29.9-13.4-29.9-29.9v-3.2C299.7,298.4,313.1,285,329.6,285z"/>
			<path class="st4" d="M513.2,348.5H329.6c-16.8,0-30.4-13.6-30.4-30.4v-3.2c0-16.8,13.6-30.4,30.4-30.4h183.7
				c16.8,0,30.4,13.6,30.4,30.4v3.2C543.6,334.8,530,348.4,513.2,348.5z M329.6,285.5c-16.2,0-29.4,13.2-29.4,29.4v3.2
				c0,16.2,13.2,29.4,29.4,29.4h183.7c16.2,0,29.4-13.2,29.4-29.4v-3.2c0-16.2-13.2-29.4-29.4-29.4H329.6z"/>
			<circle id="cir2" class="st9" cx="329.9" cy="316.4" r="21.2"/>
			<path class="st1" d="M324.3,317v-6.2c0-1.1,0.9-2.1,2.1-2.1c0.4,0,0.7,0.1,1.1,0.3l5.4,3.1l5.3,3.1c1,0.6,1.3,1.9,0.8,2.9
				c-0.2,0.3-0.4,0.6-0.8,0.8l-5.3,3.1l-5.4,3.1c-1,0.6-2.3,0.2-2.8-0.7c-0.2-0.3-0.3-0.7-0.3-1.1V317H324.3z"/>
			<g>
				<defs>
					<rect id="SVGID_5_" x="353.8" y="286.3" width="173.6" height="59.8"/>
				</defs>
				<clipPath id="SVGID_6_">
					<use xlink:href="#SVGID_5_"  style="overflow:visible;"/>
				</clipPath>
				<g id="lines2" class="st10">
					<path class="st9" d="M374.3,330.5c-0.8,0-1.5-0.7-1.5-1.5v-24c0-0.8,0.7-1.5,1.5-1.5s1.5,0.7,1.5,1.5v24
						C375.8,329.8,375.2,330.5,374.3,330.5z"/>
					<path class="st9" d="M537.3,326.9c-0.8,0-1.5-0.7-1.5-1.5v-16.5c0-0.8,0.7-1.5,1.5-1.5s1.5,0.7,1.5,1.5v16.5
						C538.7,326.3,538.1,326.9,537.3,326.9z"/>
					<path class="st9" d="M639.7,330.7c-0.8,0-1.5-0.7-1.5-1.5v-24c0-0.8,0.7-1.5,1.5-1.5s1.5,0.7,1.5,1.5v24
						C641.1,330,640.5,330.7,639.7,330.7z"/>
					<path class="st9" d="M631.8,326.9c-0.8,0-1.5-0.7-1.5-1.5v-16.5c0-0.8,0.7-1.5,1.5-1.5s1.5,0.7,1.5,1.5v16.5
						C633.3,326.3,632.6,326.9,631.8,326.9z"/>
					<path class="st9" d="M647.5,326.9c-0.8,0-1.5-0.7-1.5-1.5v-16.5c0-0.8,0.7-1.5,1.5-1.5s1.5,0.7,1.5,1.5v16.5
						C649,326.3,648.3,326.9,647.5,326.9z"/>
					<path class="st9" d="M655.4,323.6c-0.8,0-1.5-0.7-1.5-1.5v-9.7c0-0.8,0.7-1.5,1.5-1.5s1.5,0.7,1.5,1.5v9.7
						C656.9,322.9,656.2,323.6,655.4,323.6z"/>
					<path class="st9" d="M670.9,330.7c-0.8,0-1.5-0.7-1.5-1.5v-24c0-0.8,0.7-1.5,1.5-1.5s1.5,0.7,1.5,1.5v24
						C672.4,330,671.8,330.7,670.9,330.7z"/>
					<path class="st9" d="M663.1,326.9c-0.8,0-1.5-0.7-1.5-1.5v-16.5c0-0.8,0.7-1.5,1.5-1.5s1.5,0.7,1.5,1.5v16.5
						C664.6,326.3,663.9,326.9,663.1,326.9z"/>
					<path class="st9" d="M678.8,326.9c-0.8,0-1.5-0.7-1.5-1.5v-16.5c0-0.8,0.7-1.5,1.5-1.5s1.5,0.7,1.5,1.5v16.5
						C680.3,326.3,679.6,326.9,678.8,326.9z"/>
					<path class="st9" d="M686.7,323.6c-0.8,0-1.5-0.7-1.5-1.5v-9.7c0-0.8,0.7-1.5,1.5-1.5s1.5,0.7,1.5,1.5v9.7
						C688.2,322.9,687.5,323.6,686.7,323.6z"/>
					<path class="st9" d="M693.8,322.2c-0.8,0-1.5-0.7-1.5-1.5v-5.4c0-0.8,0.7-1.5,1.5-1.5s1.5,0.7,1.5,1.5v5.4
						C695.3,321.5,694.6,322.2,693.8,322.2z"/>
					<path class="st9" d="M576.6,330.5c-0.8,0-1.5-0.7-1.5-1.5v-23.7c0-0.8,0.7-1.5,1.5-1.5s1.5,0.7,1.5,1.5v23.6
						C578.2,329.8,577.5,330.5,576.6,330.5C576.7,330.5,576.6,330.5,576.6,330.5z"/>
					<path class="st9" d="M553,334.2c-0.8,0-1.5-0.7-1.5-1.5v-31.1c0-0.8,0.7-1.5,1.5-1.5s1.5,0.7,1.5,1.5l0,0v31.1
						C554.5,333.6,553.8,334.2,553,334.2z"/>
					<path class="st9" d="M560.9,340.5c-0.8,0-1.5-0.7-1.5-1.5v-43.7c0-0.8,0.7-1.5,1.5-1.5s1.5,0.7,1.5,1.5l0,0V339
						C562.4,339.8,561.7,340.5,560.9,340.5z"/>
					<path class="st9" d="M568.8,334.2c-0.8,0-1.5-0.7-1.5-1.5v-31.1c0-0.8,0.7-1.5,1.5-1.5s1.5,0.7,1.5,1.5l0,0v31.1
						C570.3,333.6,569.6,334.2,568.8,334.2z"/>
					<path class="st9" d="M592.4,330.7c-0.8,0-1.5-0.7-1.5-1.5v-24c0-0.8,0.7-1.5,1.5-1.5s1.5,0.7,1.5,1.5v24
						C593.9,330,593.2,330.7,592.4,330.7z"/>
					<path class="st9" d="M584.5,326.9c-0.8,0-1.5-0.7-1.5-1.5v-16.5c0-0.8,0.7-1.5,1.5-1.5s1.5,0.7,1.5,1.5v16.5
						C586,326.3,585.3,326.9,584.5,326.9z"/>
					<path class="st9" d="M623.9,330.5c-0.8,0-1.5-0.7-1.5-1.5v-23.7c0-0.8,0.7-1.5,1.5-1.5s1.5,0.7,1.5,1.5v23.6
						C625.4,329.8,624.8,330.5,623.9,330.5L623.9,330.5z"/>
					<path class="st9" d="M600.3,334.2c-0.8,0-1.5-0.7-1.5-1.5v-31.1c0-0.8,0.7-1.5,1.5-1.5s1.5,0.7,1.5,1.5l0,0v31.1
						C601.8,333.6,601.1,334.2,600.3,334.2z"/>
					<path class="st9" d="M608.1,340.5c-0.8,0-1.5-0.7-1.5-1.5v-43.7c0-0.8,0.7-1.5,1.5-1.5s1.5,0.7,1.5,1.5l0,0V339
						C609.6,339.8,609,340.5,608.1,340.5z"/>
					<path class="st9" d="M616,334.2c-0.8,0-1.5-0.7-1.5-1.5v-31.1c0-0.8,0.7-1.5,1.5-1.5s1.5,0.7,1.5,1.5l0,0v31.1
						C617.5,333.6,616.8,334.2,616,334.2z"/>
					<path class="st9" d="M529.4,324.5c-0.8,0-1.5-0.7-1.5-1.5v-11.7c0-0.8,0.7-1.5,1.5-1.5s1.5,0.7,1.5,1.5V323
						C530.9,323.8,530.2,324.5,529.4,324.5L529.4,324.5z"/>
					<path class="st9" d="M545.1,330.7c-0.8,0-1.5-0.7-1.5-1.5v-24c0-0.8,0.7-1.5,1.5-1.5s1.5,0.7,1.5,1.5v24
						C546.6,330,546,330.7,545.1,330.7z"/>
					<path class="st9" d="M366.5,326.7c-0.8,0-1.5-0.7-1.5-1.5v-16.5c0-0.8,0.7-1.5,1.5-1.5s1.5,0.7,1.5,1.5v16.5
						C367.9,326.1,367.3,326.7,366.5,326.7z"/>
					<path class="st9" d="M468.9,330.5c-0.8,0-1.5-0.7-1.5-1.5v-24c0-0.8,0.7-1.5,1.5-1.5s1.5,0.7,1.5,1.5v24
						C470.3,329.8,469.7,330.5,468.9,330.5z"/>
					<path class="st9" d="M461,326.7c-0.8,0-1.5-0.7-1.5-1.5v-16.5c0-0.8,0.7-1.5,1.5-1.5s1.5,0.7,1.5,1.5v16.5
						C462.5,326.1,461.8,326.7,461,326.7z"/>
					<path class="st9" d="M476.7,326.7c-0.8,0-1.5-0.7-1.5-1.5v-16.5c0-0.8,0.7-1.5,1.5-1.5s1.5,0.7,1.5,1.5v16.5
						C478.2,326.1,477.5,326.7,476.7,326.7z"/>
					<path class="st9" d="M484.6,323.4c-0.8,0-1.5-0.7-1.5-1.5v-9.7c0-0.8,0.7-1.5,1.5-1.5s1.5,0.7,1.5,1.5v9.7
						C486.1,322.7,485.4,323.4,484.6,323.4z"/>
					<path class="st9" d="M500.1,330.5c-0.8,0-1.5-0.7-1.5-1.5v-24c0-0.8,0.7-1.5,1.5-1.5s1.5,0.7,1.5,1.5v24
						C501.6,329.8,501,330.5,500.1,330.5z"/>
					<path class="st9" d="M492.3,326.7c-0.8,0-1.5-0.7-1.5-1.5v-16.5c0-0.8,0.7-1.5,1.5-1.5s1.5,0.7,1.5,1.5v16.5
						C493.8,326.1,493.1,326.7,492.3,326.7z"/>
					<path class="st9" d="M508,326.7c-0.8,0-1.5-0.7-1.5-1.5v-16.5c0-0.8,0.7-1.5,1.5-1.5s1.5,0.7,1.5,1.5v16.5
						C509.5,326.1,508.8,326.7,508,326.7z"/>
					<path class="st9" d="M515.9,323.4c-0.8,0-1.5-0.7-1.5-1.5v-9.7c0-0.8,0.7-1.5,1.5-1.5s1.5,0.7,1.5,1.5v9.7
						C517.4,322.7,516.7,323.4,515.9,323.4z"/>
					<path class="st9" d="M523,322c-0.8,0-1.5-0.7-1.5-1.5v-5.4c0-0.8,0.7-1.5,1.5-1.5s1.5,0.7,1.5,1.5v5.4
						C524.5,321.3,523.8,322,523,322z"/>
					<path class="st9" d="M405.8,330.3c-0.8,0-1.5-0.7-1.5-1.5v-23.7c0-0.8,0.7-1.5,1.5-1.5s1.5,0.7,1.5,1.5v23.6
						C407.4,329.6,406.7,330.3,405.8,330.3C405.9,330.3,405.8,330.3,405.8,330.3z"/>
					<path class="st9" d="M382.2,334c-0.8,0-1.5-0.7-1.5-1.5v-31.1c0-0.8,0.7-1.5,1.5-1.5s1.5,0.7,1.5,1.5l0,0v31.1
						C383.7,333.4,383,334,382.2,334z"/>
					<path class="st9" d="M390.1,340.3c-0.8,0-1.5-0.7-1.5-1.5v-43.7c0-0.8,0.7-1.5,1.5-1.5s1.5,0.7,1.5,1.5l0,0v43.7
						C391.6,339.6,390.9,340.3,390.1,340.3z"/>
					<path class="st9" d="M398,334c-0.8,0-1.5-0.7-1.5-1.5v-31.1c0-0.8,0.7-1.5,1.5-1.5s1.5,0.7,1.5,1.5l0,0v31.1
						C399.5,333.4,398.8,334,398,334z"/>
					<path class="st9" d="M421.6,330.5c-0.8,0-1.5-0.7-1.5-1.5v-24c0-0.8,0.7-1.5,1.5-1.5s1.5,0.7,1.5,1.5v24
						C423.1,329.8,422.4,330.5,421.6,330.5z"/>
					<path class="st9" d="M413.7,326.7c-0.8,0-1.5-0.7-1.5-1.5v-16.5c0-0.8,0.7-1.5,1.5-1.5s1.5,0.7,1.5,1.5v16.5
						C415.2,326.1,414.5,326.7,413.7,326.7z"/>
					<path class="st9" d="M453.1,330.3c-0.8,0-1.5-0.7-1.5-1.5v-23.7c0-0.8,0.7-1.5,1.5-1.5s1.5,0.7,1.5,1.5v23.6
						C454.6,329.6,454,330.3,453.1,330.3L453.1,330.3z"/>
					<path class="st9" d="M429.5,334c-0.8,0-1.5-0.7-1.5-1.5v-31.1c0-0.8,0.7-1.5,1.5-1.5s1.5,0.7,1.5,1.5l0,0v31.1
						C431,333.4,430.3,334,429.5,334z"/>
					<path class="st9" d="M437.3,340.3c-0.8,0-1.5-0.7-1.5-1.5v-43.7c0-0.8,0.7-1.5,1.5-1.5s1.5,0.7,1.5,1.5l0,0v43.7
						C438.8,339.6,438.2,340.3,437.3,340.3z"/>
					<path class="st9" d="M445.2,334c-0.8,0-1.5-0.7-1.5-1.5v-31.1c0-0.8,0.7-1.5,1.5-1.5s1.5,0.7,1.5,1.5l0,0v31.1
						C446.7,333.4,446,334,445.2,334z"/>
					<path class="st9" d="M358.6,324.3c-0.8,0-1.5-0.7-1.5-1.5v-11.7c0-0.8,0.7-1.5,1.5-1.5s1.5,0.7,1.5,1.5v11.7
						C360.1,323.6,359.4,324.3,358.6,324.3L358.6,324.3z"/>
				</g>
			</g>
		</g>
	</g>
</g>
<g id="freepik--character-2--inject-53">
	
		<image style="overflow:visible;opacity:0.2;enable-background:new    ;" width="296" height="541" xlink:href="6A22CEF4.png"  transform="matrix(1 0 0 1 435 62.0714)">
	</image>
	<g>
		<g>
			<path class="st11" d="M511.7,215c1.5,2,3.2,3.9,5,5.5c2,1.5,3.7,1.5,5.5,4.6s3.9,6.4,3.9,6.4s14.8,6.8,14.5,7l-9,13.7l-15.6-12
				l-17.5-5.1l-9.1-9.4l0.3-1l-1.2-2c0,0,0.6-2.8,3-1.4c0,0-1-2.9,2.6-1.6s10.5,5.2,11,5.1c0.5,0,6.6,0.8,6.6,0.8l2.7-1
				c-1.5-0.6-2.7-1.6-3.5-2.9c-1.1-2-2.8-3-2-5C509.3,215.5,510.5,214.8,511.7,215z"/>
			<path class="st12" d="M516.9,231.9c-0.3,0-0.7-0.1-1-0.2c-0.9-0.1-1.8-0.2-2.7-0.1c-3.1,0.2-6.1,0.8-9,1.7h-0.1H504l-1.9-0.7
				l-1-0.4H501v-0.1c-0.7-1.2-1.5-2.3-2.1-3.4c-0.3-0.5-0.7-0.9-1.2-1.1c-0.5-0.1-1-0.1-1.4,0.2l0.1-0.2c0.9,3.8,1.3,6.3,1.1,6.4
				c-0.2,0-0.1-0.6-0.4-1.7s-0.6-2.7-1.1-4.5v-0.1l0.1-0.1c0.5-0.4,1.2-0.5,1.8-0.4c0.6,0.3,1.1,0.7,1.5,1.3l2.1,3.4l-0.1-0.1l1,0.4
				l1.9,0.7h-0.2c3-0.9,6-1.5,9.1-1.6c0.9,0,1.8,0.1,2.7,0.3C516.3,231.7,516.6,231.8,516.9,231.9z"/>
			<path class="st12" d="M502.9,227.7c-2-0.9-3.9-1.9-5.8-3.1c-1.9-1-3.8-2.2-5.5-3.5c2,0.9,3.9,1.9,5.8,3.1
				C499.3,225.2,501.2,226.4,502.9,227.7z"/>
			<path class="st12" d="M495.5,227.8c0,0.1-0.4-0.2-0.8-0.7c-0.6-0.6-1.2-1.2-1.9-1.6c-0.7-0.5-1.4-0.8-2.2-0.9c-0.6-0.1-1,0-1-0.1
				c0,0,0.4-0.3,1-0.3c0.9,0,1.8,0.3,2.5,0.8s1.3,1.1,1.9,1.8C495.3,227.4,495.5,227.8,495.5,227.8z"/>
			<path class="st12" d="M506.4,225.8c-0.9,0.7-1.8,1.5-2.5,2.5c-0.6,1-1,2.1-1.3,3.2c-0.1,0-0.1-0.4,0-1.1c0.1-0.9,0.4-1.7,0.9-2.4
				c0.5-0.7,1.1-1.4,1.9-1.8C506,225.9,506.4,225.8,506.4,225.8z"/>
			<path class="st9" d="M568,196l-1.8,0.4c-4.7,3.2-7.7,8.2-8.2,13.9c-0.6,5.6-3.1,33.3-3.1,33.3l-17-8.7l-11.5,20.9
				c0,0,24.5,20.9,29.7,22.8c10.2,3.9,16.4-5.2,16.4-5.2L568,196z"/>
			<path class="st9" d="M541.3,234.7c-2-0.8-3.9-1.7-5.6-0.5c-1.7,1.3-3,2.9-4,4.8c-3.2,5.4-5.4,9.4-8.7,14.8l3.4,3.4
				c2.7,2.3,6.3,2.8,7.8-0.1c1.2-2.1,1.6-2.2,2.8-4.3l6.5-11.2c0.7-1,1.1-2.1,1.3-3.3C545.1,236.4,543.2,235.5,541.3,234.7z"/>
			<path class="st4" d="M544.3,239.1c0,0.3-0.1,0.6-0.3,0.9c-0.2,0.6-0.5,1.4-0.9,2.5c-0.8,2.1-2.1,4.9-3.7,7.9
				c-0.8,1.5-1.5,2.9-2.4,4.2c-0.7,1.1-1.6,2.1-2.5,3c-0.7,0.6-1.5,1.1-2.3,1.4c-0.3,0.1-0.7,0.2-1,0.2c1.1-0.4,2.1-1.1,3-1.9
				c0.9-0.9,1.7-1.9,2.4-3c0.8-1.2,1.5-2.7,2.3-4.2c1.6-3,2.9-5.8,3.8-7.8C543.2,241.3,543.7,240.2,544.3,239.1z"/>
			<path class="st4" d="M559.1,263.1c-0.1,0,0-1.2,0-3.1c-0.1-2.5-0.4-4.9-0.9-7.3c-0.6-2.4-1.4-4.7-2.4-6.9
				c-0.5-0.9-0.9-1.8-1.3-2.8c0,0,0.2,0.2,0.5,0.7c0.4,0.6,0.8,1.3,1.1,1.9c1.2,2.2,2,4.6,2.6,7s0.8,4.9,0.8,7.4
				c0,0.8-0.1,1.5-0.2,2.2C559.3,262.6,559.2,262.9,559.1,263.1z"/>
			<path class="st9" d="M591.2,485.3l1,22.4c0,0-22.4,8.6-22.6,12.7l43.4-0.5l-0.2-34.9L591.2,485.3z"/>
			<path class="st2" d="M605.6,505.7c0.9,0.3,1.4,1.1,1.2,2s-1.1,1.4-2,1.3c-0.9-0.3-1.5-1.2-1.3-2.1c0.3-0.9,1.3-1.4,2.2-1.1"/>
			<path class="st4" d="M613.1,520l-0.2-3.5l-41.6,1.8c0,0-1.9,0.9-1.7,2.2L613.1,520z"/>
			<path class="st1" d="M591.5,507.5c0,0.2,1.1,0.3,2.1,1s1.6,1.6,1.8,1.5s-0.1-1.3-1.4-2.1C592.7,507.1,591.5,507.3,591.5,507.5z"
				/>
			<path class="st1" d="M587,509.4c0,0.2,0.9,0.6,1.6,1.5s1,1.8,1.2,1.8s0.3-1.2-0.6-2.3C588.2,509.3,587,509.2,587,509.4z"/>
			<path class="st1" d="M584.4,514.9c0.2,0,0.5-1-0.1-2.2c-0.6-1.2-1.5-1.6-1.6-1.4s0.5,0.8,1,1.8
				C584.2,514,584.2,514.9,584.4,514.9z"/>
			<path class="st1" d="M591.8,502.4c0.1,0.2,1.1-0.1,2.3,0s2.1,0.4,2.2,0.2s-0.8-0.9-2.2-1S591.7,502.2,591.8,502.4z"/>
			<path class="st9" d="M642.1,482.9l2.3,27l-4.3,21.9c-0.3,1.5,0.7,3,2.2,3.3c0.1,0,0.1,0,0.2,0l0,0c0.9,0.1,1.8-0.2,2.4-0.9
				c3.9-4.2,17.6-20,17.6-21.5c0-2.3-0.5-29-0.5-29L642.1,482.9z"/>
			<path class="st4" d="M642.5,535.1l20-24.5l0.1,1.1c0,1-0.2,2-0.8,2.8c-1.6,2.1-6.1,7.9-16.8,19.7
				C644.3,534.9,643.4,535.3,642.5,535.1L642.5,535.1z"/>
			<path class="st2" d="M656.4,502.3c-0.7,0.5-0.8,1.5-0.3,2.2s1.5,0.8,2.2,0.3c0.7-0.6,0.8-1.6,0.3-2.3c-0.6-0.6-1.7-0.7-2.3-0.1"
				/>
			<path class="st1" d="M647.9,522.9c-0.7-0.8-1.6-1.5-2.5-2c-1-0.3-2.1-0.5-3.2-0.4c0-0.1,0.3-0.3,0.9-0.4c1.7-0.3,3.4,0.4,4.4,1.8
				C647.9,522.5,648,522.9,647.9,522.9z"/>
			<path class="st1" d="M646.2,526.6c-0.8-0.4-1.6-0.7-2.5-1c-0.9-0.1-1.8-0.2-2.7-0.2c0.8-0.6,1.9-0.7,2.8-0.4
				C645.5,525.4,646.4,526.6,646.2,526.6z"/>
			<path class="st1" d="M651.2,518c-1.2-0.7-2.4-1.3-3.7-1.8c-2.2-0.7-4.1-0.5-4.1-0.7c1.4-0.5,2.9-0.4,4.2,0.1
				C650,516.4,651.3,517.9,651.2,518z"/>
			<path class="st1" d="M651.2,509.8c-0.1,0.2-1.6-0.4-3.5-0.3s-3.5,0.6-3.5,0.5c1-0.8,2.3-1.1,3.5-1
				C648.9,508.7,650.2,509.1,651.2,509.8z"/>
			<path class="st1" d="M650.7,501.8c-1.2-0.3-2.4-0.4-3.7-0.4c-2,0.2-3.4,1.3-3.5,1.1s0.2-0.4,0.8-0.8c0.8-0.5,1.7-0.8,2.7-0.9
				c0.9-0.1,1.9,0,2.8,0.4C650.4,501.5,650.7,501.8,650.7,501.8z"/>
			<path class="st1" d="M647,499.9c-0.1-0.3-0.1-0.7-0.1-1c0-0.9,0.3-1.9,0.6-2.7c0.2-0.7,0.7-1.2,1.3-1.6c0.4-0.2,0.9-0.2,1.3,0.2
				c0.3,0.3,0.5,0.8,0.5,1.2c0,1.9-1.4,3.5-3.2,3.8s-3.6-0.5-4.6-2.1c-0.2-0.4-0.3-0.9-0.2-1.3c0.2-0.4,0.6-0.7,1.1-0.7
				c0.7,0.1,1.3,0.4,1.8,0.8c0.8,0.5,1.5,1.2,2,2c0.2,0.3,0.4,0.6,0.5,0.9c-0.8-1-1.7-1.8-2.7-2.5c-0.5-0.4-1-0.6-1.6-0.7
				c-0.3,0-0.5,0.1-0.6,0.3c-0.1,0.3,0,0.6,0.2,0.9c0.9,1.3,2.4,2,4,1.8c1.6-0.3,2.7-1.6,2.8-3.2c0-0.3-0.1-0.6-0.3-0.8
				s-0.5-0.2-0.7-0.1c-0.5,0.3-0.9,0.8-1.1,1.3C647.4,497.5,647.1,498.7,647,499.9z"/>
			<path class="st4" d="M663.5,500.1l-8-93.2l-9.3-89.5l-3.5-26l-74.7,6c-2.1,9.3-2.8,18.8-2.1,28.3c0,0.3,0.1,1.1,0.2,2.2l-0.5-0.2
				c0,0,1.5,45.3,3.3,57.7c1.7,12.4,4.8,31.4,7,39c2.3,8,3.2,35.2,3.4,42.3c0.1,3.9,0.7,14.8,2.8,21.5c1.2,3.8,4.5,6.5,8.5,6.9l0,0
				l0.9,5.8L614,498l-7-139.6c0-1.1,1.3-1.1,2.3-1.3c0.4-0.1,0.8,0,1.1,0.3c2.8,23.4,8,65.9,9.7,70.6c2.3,6.4,7,48.6,10.6,58.2
				c2.8,7.4,10.4,10.1,10.4,10.1l0.6,3.6L663.5,500.1z"/>
			<path class="st9" d="M645.7,416.7c-2-1.9-3.9-3.9-5.6-6c-1.9-2-3.6-4.1-5.2-6.3c2,1.9,3.9,3.9,5.6,6
				C642.3,412.4,644,414.5,645.7,416.7z"/>
			<path class="st9" d="M590.7,408.4c-0.7,1.5-1.5,3-2.5,4.3c-0.8,1.4-1.8,2.8-2.9,4c0.7-1.5,1.5-3,2.5-4.3
				C588.6,411,589.5,409.6,590.7,408.4z"/>
			<path class="st4" d="M573.9,129.7c0.9-2.1,2.3-3.9,3.9-5.4c1.7-1.5,4-2.3,6.2-2c2.3,0.4,4,2.2,4.3,4.5l1.6,0.6
				c-3.2,1.8-5.2,5.2-6.6,8.6c-1.4,3.4-1.5,6.7-3.8,9.5c-1.7-2.3-3.7-4.8-3.8-7.7c-1,1.7-1.4,3.7-1,5.6c-2-1.6-3-4.1-2.9-6.6
				C572,134.3,572.7,131.9,573.9,129.7z"/>
			<path class="st4" d="M586.3,124.1c1.7-7.6,11.5-8.5,17.8-8.3s12.1,3.5,16.4,8c4.3,4.5,7.2,10,9.6,15.6l-4.5,0.5
				c1.3-0.1,2.6,0.7,3,2c0.3,1.2,0.4,2.5,0.1,3.8c-0.4,3-1.1,6.1-1.9,9c-2.4,7.7-7.1,14.4-11.8,21c-1.1-6,0.1-12.2,1.5-18.1
				c0.5-2.1,1-4.4,0.2-6.4c-0.8-1.8-2.2-3.3-4-4.2c-1.7-1-3.6-1.6-5.3-2.6c-3.8-2.2-6.6-5.9-7.7-10.2L586.3,124.1z"/>
			<path class="st11" d="M619.4,145.7l-3.2,45.5c-0.5,7.7-2.9,19-15.1,17.6l0,0c-10.5-2-12.5-12.3-11.9-19.5
				c0.2-3.4,0.4-6.3,0.5-6.6c0,0-11.5-1.9-11.5-13.4c0-5.6,0.9-17,1.8-27.4c1-11.1,10.4-19.6,21.6-19.5h1.1
				C614.5,123.1,620.5,133.7,619.4,145.7z"/>
			<path class="st12" d="M589.5,182.6c5.3,0,10.5-1.5,15-4.3c0,0-3.8,8.4-15.2,7.2L589.5,182.6z"/>
			<path class="st4" d="M599,148.1c0.2,0.2,1.6-0.7,3.5-0.6s3.3,1.2,3.5,0.9c0.2-0.2-0.1-0.6-0.7-1c-0.8-0.6-1.8-1-2.8-1
				c-1-0.1-2,0.2-2.8,0.8C599.1,147.6,598.9,148,599,148.1z"/>
			<path class="st4" d="M598,153.2c0,0.8,0.6,1.5,1.5,1.6c0.8,0.1,1.5-0.5,1.6-1.3l0,0c0-0.8-0.6-1.6-1.5-1.6
				C598.9,151.8,598.1,152.4,598,153.2C598.1,153.2,598.1,153.2,598,153.2z"/>
			<path class="st4" d="M593.1,161c-0.9-0.3-1.9-0.5-2.9-0.6c-0.5,0-0.9-0.1-1-0.4c0-0.5,0.1-0.9,0.3-1.3c0.4-1.1,0.9-2.2,1.4-3.4
				c1.9-4.9,3.3-8.9,3.1-9s-1.9,3.8-3.8,8.7c-0.5,1.2-0.9,2.4-1.3,3.5c-0.3,0.5-0.4,1.2-0.3,1.8c0.1,0.3,0.4,0.6,0.7,0.7
				s0.5,0.1,0.8,0.1C591.1,161.1,592.1,161.1,593.1,161z"/>
			<path class="st4" d="M600.4,141c0.2,0.4,1.7,0.2,3.5,0.5s3.3,0.8,3.5,0.4c0.1-0.2-0.1-0.6-0.7-1c-1.6-1.1-3.6-1.3-5.4-0.7
				C600.7,140.4,600.4,140.7,600.4,141z"/>
			<path class="st4" d="M581.9,143c0.2,0.4,1.7,0.1,3.5,0.2s3.3,0.5,3.5,0.1c0.1-0.2-0.2-0.5-0.8-0.8c-0.8-0.4-1.7-0.6-2.6-0.7
				c-0.9-0.1-1.9,0.1-2.7,0.4C582.2,142.5,581.9,142.8,581.9,143z"/>
			<path class="st11" d="M618.3,154.2c0.2-0.1,7.9-2.2,7.6,5.6s-8.2,5.9-8.2,5.7C617.8,165.3,618.3,154.2,618.3,154.2z"/>
			<path class="st12" d="M620.3,162.6c0,0,0.1,0.1,0.4,0.2c0.3,0.1,0.7,0.2,1,0.1c0.8-0.3,1.6-1.6,1.7-3c0.1-0.7-0.1-1.4-0.3-2
				c-0.1-0.5-0.5-0.9-1-1.1c-0.3-0.1-0.7,0-0.8,0.3c-0.1,0.2-0.1,0.4-0.1,0.4s-0.2-0.1-0.1-0.5c0.1-0.2,0.2-0.4,0.3-0.5
				c0.2-0.2,0.5-0.2,0.8-0.2c0.6,0.2,1.2,0.6,1.4,1.3c0.3,0.7,0.4,1.5,0.4,2.2c-0.1,1.6-1,3-2.1,3.3c-0.4,0.1-0.9,0-1.2-0.3
				C620.3,162.8,620.3,162.6,620.3,162.6z"/>
			<path class="st4" d="M581.5,147.3c0.2,0.2,1.6-0.7,3.5-0.6s3.3,1.2,3.5,0.9c0.2-0.2-0.1-0.5-0.7-1c-0.8-0.6-1.8-1-2.8-1
				c-1-0.1-2,0.2-2.8,0.8C581.6,146.8,581.4,147.2,581.5,147.3z"/>
			<path class="st4" d="M582.9,152.6c0,0.8,0.6,1.5,1.5,1.6c0.8,0.1,1.5-0.5,1.6-1.3c0,0,0,0,0-0.1c0-0.8-0.6-1.5-1.5-1.6
				C583.7,151.2,583,151.8,582.9,152.6L582.9,152.6z"/>
			<path class="st4" d="M586,128.1c-1.2-4.8,2.7-7,6.9-9.7c4.3-2.7,9.9-2.5,14,0.5c2.1,1.6,3.5,3.8,5.3,5.7c1.8,1.9,4.2,3.5,6.8,3.4
				c-2.8,2.7-7,3.3-10.5,1.6c2.9,3.6,6.7,6.2,11.1,7.6c-3.5,2.1-8,1.4-10.7-1.7c1,3.7,2.9,7.2,5.6,10c0.4,0.5,1,1.1,0.8,1.7
				s-1,0.8-1.7,0.8c-4,0.1-7.7-1.9-9.7-5.3c-2.1-3.6-3.4-7.4-5.3-11.1c-0.9-1.8-3.8-4.9-6.2-5c-2-0.1-5.7,0.5-6.6,2.3"/>
			<path class="st4" d="M603.8,124.1c0.4-0.5,1-0.8,1.7-0.9c4.3-0.7,8.7,2,11.2,5.6c2.5,3.6,3.3,8.1,3.9,12.5
				c0.5,3.5,0.7,7.2-0.5,10.6l-2.1,2.8c-0.5,0.9-0.8,1.9-0.9,3c-0.3,1-1.1,2.1-2.1,1.9c-0.8-0.2-1.3-0.8-1.5-1.6
				c-0.7-2.2,0.3-4.7-0.5-6.9c-0.5-1.5-1.7-2.6-2.6-3.9c-1.5-2.3-2.5-4.9-3-7.6l-3.6-13.5C603.5,125.5,603.5,124.8,603.8,124.1z"/>
			<path class="st4" d="M586,128.1c-1.2-4.8,2.7-7,6.9-9.7c4.3-2.7,9.9-2.5,14,0.5c2.1,1.6,3.5,3.8,5.3,5.7c1.8,1.9,4.2,3.5,6.8,3.4
				c-2.8,2.7-7,3.3-10.5,1.6c2.9,3.6,6.7,6.2,11.1,7.6c-3.5,2.1-8,1.4-10.7-1.7c1,3.7,2.9,7.2,5.6,10c0.4,0.5,1,1.1,0.8,1.7
				s-1,0.8-1.7,0.8c-4,0.1-7.7-1.9-9.7-5.3c-2.1-3.6-3.4-7.4-5.3-11.1c-0.9-1.8-3.8-4.9-6.2-5c-2-0.1-5.7,0.5-6.6,2.3"/>
			<path class="st9" d="M610.8,127.2c0,0-0.4-0.1-1-0.4c-0.9-0.4-1.8-1-2.5-1.7c-1-0.8-2-2-3.2-3.2c-0.7-0.6-1.4-1.2-2.2-1.7
				c-0.9-0.5-1.8-0.9-2.8-1c-1.9-0.3-3.8,0.1-5.6,0.9c-1.4,0.7-2.7,1.6-3.8,2.7c-0.7,0.7-1.4,1.5-2,2.3c-0.3,0.3-0.5,0.6-0.6,0.9
				c0.1,0.1,1-1.2,2.9-3c1.1-1,2.3-1.9,3.7-2.5c1.6-0.8,3.5-1.1,5.3-0.8c1.8,0.4,3.4,1.2,4.7,2.6c1.2,1.2,2.3,2.3,3.3,3.1
				c0.8,0.7,1.7,1.2,2.7,1.6C610.1,127.2,610.5,127.2,610.8,127.2z"/>
			<path class="st9" d="M604.9,133.9c0,0-0.8-1-1.8-2.8c-0.5-0.9-1.1-1.9-1.9-3c-0.8-1.3-1.9-2.3-3.2-3.1c-1.3-0.8-2.8-1.2-4.3-1.3
				c-1.2,0-2.5,0.2-3.6,0.7c-0.8,0.3-1.5,0.7-2.1,1.3c-0.4,0.4-0.6,0.6-0.6,0.7c0.9-0.6,1.8-1.2,2.8-1.6c1.1-0.4,2.3-0.6,3.4-0.6
				c1.4,0.1,2.8,0.5,4,1.2c1.2,0.8,2.3,1.8,3.1,3c0.8,1.1,1.4,2.1,2,3c0.4,0.7,0.9,1.4,1.5,2C604.6,133.7,604.8,134,604.9,133.9z"/>
			<path class="st9" d="M578.1,132.9c0.3-0.5,0.6-1.1,0.8-1.7c0.6-1.3,1.5-2.5,2.6-3.5c1.1-0.9,2.5-1.5,3.9-1.7
				c1.1-0.1,1.8,0.1,1.8,0c-0.6-0.3-1.2-0.4-1.9-0.3c-1.5,0.1-3,0.7-4.2,1.7c-1.1,1-2,2.3-2.6,3.7
				C578.3,131.6,578.1,132.2,578.1,132.9z"/>
			<path class="st9" d="M610.3,146.8c0.1,0,0.2,0.1,0.3,0.1c0.3,0.1,0.7,0.1,1,0.1c1.3,0.1,2.6-0.1,3.8-0.5c0.9-0.2,1.7-0.7,2.3-1.4
				c0.4-0.4,0.5-1.1,0.2-1.6s-0.8-0.9-1.3-1.1s-1.1-0.4-1.7-0.5c-0.6-0.2-1.1-0.5-1.7-0.8c-1.2-0.6-2.2-1.5-3.1-2.5l-0.3,0.3
				c2.4,1.3,5.4,0.9,7.4-1l0.2-0.2l-0.3-0.1c-2.1-1-3.9-2.6-5.3-4.5l-0.3,0.4c2.9,1.1,6.2,0.6,8.7-1.4l0.3-0.2l0.3-0.3l-0.4-0.1
				c-1.3-0.5-2.4-1.4-3.3-2.5c-0.8-1.1-1.6-2.2-2.3-3.4c-0.7-1.2-1.5-2.3-2.4-3.3c-6.1-7-16.8-7.7-23.8-1.6c0,0,0,0-0.1,0
				c-0.9,0.7-1.6,1.5-2.2,2.4c0.7-0.8,1.5-1.6,2.3-2.3c2.3-1.9,5.1-3.2,8-3.7c2-0.4,4.1-0.3,6.1,0.1c2.3,0.5,4.5,1.4,6.4,2.8
				c2.1,1.5,3.9,3.5,5.1,5.8c0.7,1.2,1.5,2.4,2.4,3.5c0.9,1.2,2.1,2.1,3.5,2.6l-0.1-0.4l-0.3,0.2c-2.3,1.9-5.4,2.4-8.2,1.3l-0.8-0.3
				l0.5,0.7c1.4,2,3.3,3.5,5.4,4.6l-0.1-0.4c-1.8,1.8-4.6,2.2-6.9,1l-1-0.6l0.7,0.9c0.9,1.1,2,1.9,3.2,2.6c0.6,0.3,1.1,0.6,1.8,0.8
				c0.6,0.2,1.2,0.3,1.7,0.5c0.5,0.1,0.9,0.5,1.2,0.9c0.2,0.4,0.1,0.9-0.2,1.3c-0.6,0.7-1.4,1.1-2.2,1.4c-1.2,0.4-2.4,0.6-3.7,0.6
				C610.7,146.8,610.3,146.7,610.3,146.8z"/>
			<path class="st12" d="M592.1,165.8l5.6-2.5c0.5,0.7,0.9,1.5,1.1,2.4c0.3,0.8,0.2,1.8-0.3,2.5s-1.2,1.1-2,1.4
				c-0.7,0.3-1.4,0.4-2.1,0.3c-0.8-0.3-1.5-0.9-1.8-1.6C592.3,167.5,592.2,166.7,592.1,165.8"/>
			<path class="st4" d="M594.4,169.9c0.2,0.1,0.4,0.2,0.6,0.1c0.6,0,1.2-0.1,1.7-0.4c0.9-0.3,1.6-0.8,2.1-1.6c0.5-1,0.5-2.2,0-3.2
				c-0.3-0.6-0.6-1.1-0.9-1.7l-0.1-0.2l-0.2,0.1c-1.6,0.7-3,1.4-4,1.9c-0.5,0.2-1.1,0.5-1.5,0.9c0.6-0.1,1.1-0.3,1.7-0.6
				c1-0.4,2.5-1,4.1-1.7l-0.3-0.1c0.3,0.5,0.6,1.1,0.9,1.6c0.4,0.9,0.5,1.9,0.1,2.8c-0.4,0.7-1.1,1.2-1.9,1.5
				c-0.5,0.2-1,0.4-1.6,0.5C594.8,169.8,594.6,169.9,594.4,169.9z"/>
			<polygon class="st9" points="640.9,278 641.4,247.6 639.3,196.9 620.7,190.4 615.7,184.2 603.5,196.4 596.8,212.8 591,196.1 
				588.3,186.6 584.6,189.4 566.1,196.4 565.6,235.6 565.3,283.8 564.6,319.9 563.8,332.4 590.9,334.4 593,321.2 596.5,333.3 
				649.7,333.6 647.3,316.5 			"/>
			<g class="st13">
				<path d="M617.3,268.8c1.9,1.6,3.9,3.2,6.4,3.6c3.3,0.6,6.7-1.2,9.3-3.3c2.6-2.2,4.9-4.8,7.9-6.5l-0.6,2.2
					c-2.6,6.2-6.6,11.8-11.5,16.4c-2.2,2-4.7,3.9-7.7,4.1c-4.5,0.4-8.5-3.2-10.8-7.1c-2.3-4-3.5-8.5-6-12.3
					c-3.2-3.8-5.3-8.4-6.1-13.3s-1.1-9.8-1-14.7C601,249.9,608,260.5,617.3,268.8z"/>
			</g>
			<path class="st9" d="M601.3,250.7c-2,2.3-1.6,3.1-0.7,6.3c0.3,1.1,1.4,1.8,2.5,1.9c3.8,6.5,10.8,18.8,18.1,19.1
				c9.1,0.4,18.8-9.5,22.7-21.5c0,0,9.8-33.7,6.9-45.8c-1.4-6.1-5.6-11.3-11.4-13.8l-18.5,42l-7.6-3.8L601.3,250.7z"/>
			<path class="st4" d="M623.3,242.2c0,0,0.1-0.2,0.2-0.6c0.1-0.5,0.1-1.1,0-1.6c-0.2-0.8-0.4-1.6-0.9-2.3c-0.5-0.9-1.1-1.7-1.8-2.4
				c-0.7-0.7-1.6-1.3-2.5-1.7c-0.8-0.3-1.6-0.4-2.5-0.2c-0.5,0.1-1.1,0.3-1.5,0.6c-0.3,0.2-0.5,0.3-0.5,0.4c0.7-0.2,1.4-0.5,2.1-0.6
				c0.8-0.1,1.5,0,2.2,0.3c0.9,0.4,1.7,0.9,2.3,1.6c1.2,1.2,2.2,2.7,2.7,4.4C623.3,240.8,623.3,241.5,623.3,242.2z"/>
			<path class="st4" d="M621.8,237.5c0.1,0,2.1-5.5,4.4-12.4c2.3-6.9,4.1-12.6,4-12.6s-2.1,5.5-4.4,12.4
				C623.5,231.8,621.7,237.5,621.8,237.5z"/>
			<path class="st4" d="M601.3,250.7l-0.1,0.1c-0.1,0.1-0.2,0.2-0.3,0.4c-0.5,0.5-0.8,1.1-1,1.8c-0.1,1.1,0,2.2,0.4,3.2
				c0.1,0.3,0.2,0.6,0.3,0.9s0.3,0.7,0.5,1c0.5,0.6,1.3,1,2.1,1l-0.1-0.1c1.8,3.3,3.8,6.5,6,9.6c1.3,1.8,2.7,3.6,4.2,5.2
				c1.7,1.8,3.7,3.2,6,4.1c0.6,0.2,1.2,0.3,1.8,0.4c0.6,0,1.2,0,1.8,0s1.2-0.2,1.8-0.3s1.1-0.3,1.7-0.5c2.1-0.8,4.1-1.8,5.8-3.2
				c3-2.3,5.5-5.2,7.5-8.4c1.4-2.1,2.5-4.4,3.4-6.8c0.3-0.8,0.5-1.5,0.7-1.9c0.1-0.2,0.1-0.5,0.2-0.7c-0.1,0.2-0.2,0.4-0.3,0.6
				c-0.2,0.4-0.4,1.1-0.8,1.9c-1,2.3-2.2,4.5-3.5,6.6c-2,3.1-4.5,5.9-7.5,8.2c-1.7,1.3-3.7,2.4-5.7,3.1c-0.5,0.1-1.1,0.3-1.6,0.5
				s-1.1,0.2-1.7,0.2c-0.6,0-1.2,0-1.7,0c-0.6,0-1.2-0.2-1.7-0.4c-2.2-0.9-4.2-2.2-5.8-4c-1.5-1.6-2.9-3.3-4.2-5.1
				c-2.5-3.4-4.4-6.7-6-9.5v-0.1h-0.1c-0.7,0-1.4-0.3-1.9-0.8c-0.4-0.5-0.6-1.1-0.7-1.8c-0.4-1-0.5-2-0.4-3.1
				c0.2-0.6,0.5-1.2,0.9-1.8C601.2,250.9,601.3,250.7,601.3,250.7z"/>
			<path class="st4" d="M603.1,258.8c0.3-0.1,0.7-0.2,1-0.4c0.6-0.3,1.5-0.7,2.5-1.3c2.7-1.5,5.3-3.3,7.8-5.2
				c2.5-1.9,4.8-4.1,6.8-6.5c0.6-0.7,1.2-1.5,1.7-2.3c0.2-0.3,0.4-0.6,0.5-0.9c-0.1,0-0.8,1.2-2.4,3c-2.1,2.3-4.4,4.4-6.8,6.3
				c-2.4,1.9-5,3.7-7.7,5.3C604.3,258.1,603,258.8,603.1,258.8z"/>
			<path class="st4" d="M623,242.3c1.4,0.6,2.7,1.4,3.8,2.4c1,1.1,1.8,2.4,2.4,3.8c0-0.5-0.1-0.9-0.3-1.4c-0.8-2.1-2.5-3.8-4.6-4.6
				C623.9,242.3,623.5,242.2,623,242.3z"/>
			<path class="st4" d="M590.5,220.2c0,0.1,0,0.2,0,0.3c0,0.2,0,0.5,0,0.8c0,0.8,0,1.8,0.1,3.1c0.1,2.8,0.2,6.7,0.4,11.6
				c0.3,9.8,0.6,23.3,0.9,38.2c0.2,14.9,0.5,28.4,0.6,38.2c0.1,4.9,0.2,8.8,0.3,11.6c0,1.3,0.1,2.4,0.1,3.1c0,0.3,0,0.6,0,0.8
				c0,0.1,0,0.2,0,0.3c0-0.1,0-0.2,0-0.3v-0.8c0-0.8,0-1.8,0-3.1c0-2.8-0.1-6.7-0.1-11.6c-0.1-9.8-0.3-23.3-0.5-38.2
				c-0.2-14.9-0.6-28.4-1-38.2c-0.2-4.9-0.4-8.8-0.6-11.6l-0.2-3.1c0-0.3,0-0.6-0.1-0.8C590.5,220.4,590.5,220.3,590.5,220.2z"/>
			<path class="st4" d="M578.1,282.7c0,0.1,6.4,2.7,14.4,5.7s14.6,5.4,14.6,5.3s-6.4-2.7-14.4-5.7S578.1,282.5,578.1,282.7z"/>
			<path class="st4" d="M600.8,204.6c0.4-0.6,0.8-1.2,1.2-1.9l2.9-5.2h-0.3l4.4,6.2l0.2,0.2l0.2-0.2l0.6-0.7c3-3.5,5.8-6.6,7.7-8.9
				l2.3-2.7c0.3-0.3,0.6-0.6,0.8-1c-0.3,0.3-0.7,0.6-0.9,0.9l-2.4,2.6c-2,2.2-4.8,5.4-7.8,8.8l-0.6,0.7h0.4l-4.4-6.2l-0.2-0.3
				l-0.2,0.3l-2.7,5.2C601.3,203.2,601,203.9,600.8,204.6z"/>
			<path class="st4" d="M576.9,289.4c-0.1,0.1,10.1,6.3,22.8,13.8s23,13.4,23.1,13.3s-10.2-6.3-22.8-13.8S576.9,289.3,576.9,289.4z"
				/>
			<path class="st4" d="M586.1,281.1c0.1-0.6,0.4-1,0.9-1.4c0.5-0.3,1.1-0.4,1.7-0.2c0.9,0.3,1.3,1.3,1,2.2c-0.2,0.5-0.5,0.8-1,1
				s-1.2,0.1-1.7-0.2C586.6,282.2,586.3,281.7,586.1,281.1c0,0-0.1,0.2,0,0.5c0.1,0.5,0.3,0.9,0.7,1.2c0.6,0.5,1.3,0.6,2,0.4
				c1.1-0.4,1.7-1.6,1.3-2.7c-0.2-0.6-0.7-1.1-1.3-1.3c-0.7-0.2-1.4-0.1-2,0.4c-0.4,0.3-0.6,0.7-0.7,1.2
				C586,281,586.1,281.1,586.1,281.1z"/>
			<path class="st4" d="M584.4,251.3c0.1-0.5,0.4-1,0.9-1.4c0.5-0.3,1.1-0.4,1.7-0.2c0.9,0.3,1.3,1.3,1,2.2c-0.2,0.5-0.5,0.8-1,1
				c-0.6,0.2-1.2,0.1-1.7-0.2C584.9,252.3,584.6,251.8,584.4,251.3c0,0-0.1,0.2,0,0.5c0.1,0.5,0.3,0.9,0.7,1.2
				c0.6,0.5,1.3,0.6,2,0.4c1.1-0.4,1.7-1.6,1.3-2.7c-0.2-0.6-0.7-1.1-1.3-1.3c-0.7-0.2-1.4-0.1-2,0.4c-0.4,0.3-0.6,0.7-0.7,1.2
				C584.4,251.1,584.4,251.3,584.4,251.3z"/>
			<g class="st13">
				<path d="M605.2,292.9c-9.2,0.4-19.3-3.2-25.7-9.7C587.8,286.5,597.1,289.4,605.2,292.9"/>
			</g>
			<path class="st12" d="M577.9,188.9c-1.4,1-4,2.6-4,2.6l-0.6,7.3l4.4,0.9l0.2-8.3c0,0,2.8-0.9,2.7-2v-0.1
				C580.3,188,579,188.1,577.9,188.9z"/>
			<path class="st4" d="M602.4,187.4l-17,12.9c-0.2,0.2-0.5,0.3-0.8,0.3h-15.9c-0.8,0-1.4-0.6-1.4-1.4l0,0v-0.1
				c0-0.4,0.2-0.9,0.6-1.1l17.5-12.8c0.2-0.2,0.5-0.3,0.8-0.3h15.3c0.7,0,1.3,0.5,1.4,1.2l0,0C603,186.7,602.8,187.1,602.4,187.4z"
				/>
			<path class="st2" d="M601.3,185.6l-0.4,0.3c-2.5,1.9-16.9,12.4-16.9,12.4h-15.4l17.5-12.7"/>
			<path class="st11" d="M593.3,186l3.4,5.2c0,0,4.4,7.7,4.7,9.7s1,7,1,7l13.2,25.9l-13.3,17.3l-10.9-35.8c0,0-10.6-4.7-11.3-5.8
				c-0.6-1.4-1.1-2.8-1.4-4.3c0,0-2.8-0.2-4-1.1c-1.7-1.4-3.3-3.1-4.5-5l-1.5-3.6c0-0.1,0-0.1,0-0.2l0.8-0.5
				c0.4-0.2,0.9-0.3,1.4-0.3c0.9,0.1,1.7,0.6,2.2,1.4c0.5,1.1,1.2,2.1,2.1,2.8l1.3,0.7l9.5,0.3c2.3,0.1,4.5-0.8,6-2.5l0.3-0.4v-3.9
				c-0.7-1.3-1.2-2.6-1.6-4c-0.3-1.4,0.6-2.7,2-3C592.9,186,593.1,186,593.3,186L593.3,186z"/>
			<path class="st12" d="M593.3,186c-0.2,0-0.4,0-0.6,0c-0.6,0.1-1.1,0.4-1.5,0.9c-0.6,0.8-0.8,1.8-0.4,2.7c0.3,1.2,0.8,2.4,1.5,3.5
				l0,0c0,1.1,0,2.4,0,3.8l0,0c-1.6,1.9-4.1,3-6.6,2.8l-9.1-0.3h0.1l-1.3-0.7l0,0c-0.7-0.6-1.3-1.4-1.8-2.2
				c-0.1-0.2-0.2-0.4-0.3-0.7c-0.1-0.3-0.3-0.5-0.5-0.7c-0.4-0.4-0.9-0.6-1.5-0.7s-1.1,0-1.7,0.2c-0.1,0.1-0.3,0.1-0.4,0.2
				c-0.1,0.1-0.3,0.2-0.4,0.3c-0.2,0.3-0.3,0.7-0.1,1c0.4,1,0.9,2,1.3,3.1l0,0l0,0c1,1.5,2.1,2.9,3.4,4.1c0.3,0.3,0.7,0.6,1,0.9
				c0.4,0.3,0.8,0.5,1.3,0.6c0.9,0.3,1.9,0.4,2.8,0.5l-0.2-0.2c0.3,1.4,0.7,2.7,1.3,4c0.2,0.4,0.4,0.7,0.8,0.9
				c0.3,0.2,0.6,0.4,0.9,0.6c0.6,0.4,1.3,0.7,1.9,1c2.6,1.3,5.3,2.6,8,3.8l-0.1-0.1c1.9,6.2,3.9,12.7,5.9,19.4
				c1.7,5.6,3.4,11.1,5,16.4l0.1,0.4l0.3-0.4l13.2-17.2l0.1-0.1l-0.1-0.1c-5.1-9.9-9.6-18.7-13.3-25.9l0,0c-0.3-1.9-0.5-3.6-0.8-5.3
				c-0.1-0.8-0.2-1.6-0.5-2.4c-0.3-0.7-0.6-1.4-0.9-2.1c-1.3-2.7-2.5-4.9-3.6-6.7l-2.6-4l-0.7-1c-0.2-0.2-0.2-0.3-0.2-0.3
				c0.1,0.1,0.1,0.2,0.2,0.4l0.6,1l2.5,4c1,1.8,2.2,4,3.5,6.7c0.3,0.7,0.6,1.4,0.9,2.1c0.2,0.8,0.3,1.6,0.4,2.4
				c0.2,1.7,0.5,3.4,0.7,5.3l0,0l0,0l13.2,26v-0.2l-13.2,17.2l0.4,0.1l-5-16.4c-2-6.7-4-13.2-5.9-19.4v-0.3h-0.1
				c-2.8-1.2-5.5-2.5-8-3.8c-0.6-0.3-1.3-0.7-1.9-1c-0.3-0.2-0.6-0.4-0.9-0.6c-0.3-0.2-0.5-0.4-0.6-0.7c-0.5-1.3-0.9-2.6-1.2-3.9
				l0,0h-0.2c-0.9-0.1-1.8-0.2-2.7-0.5c-0.4-0.1-0.8-0.3-1.2-0.6c-0.3-0.3-0.7-0.6-1-0.9c-1.3-1.2-2.4-2.5-3.4-4l0,0
				c-0.4-1-0.9-2.1-1.3-3.1c-0.1-0.2-0.1-0.4,0.1-0.6c0.2-0.2,0.3-0.3,0.6-0.4c0.5-0.2,1-0.3,1.5-0.2c0.5,0.1,0.9,0.3,1.3,0.6
				c0.3,0.4,0.6,0.8,0.7,1.2c0.5,0.9,1.1,1.7,1.9,2.3l0,0l1.3,0.7l0,0l0,0l9.1,0.3c2.6,0.2,5.1-0.9,6.8-2.9l0,0v0.1
				c0-1.4,0-2.7,0-3.8v0.1c-0.6-1.1-1.1-2.3-1.5-3.5c-0.5-1.3,0.1-2.8,1.4-3.4c0.1,0,0.2-0.1,0.3-0.1
				C593.1,186,593.3,186.1,593.3,186z"/>
			<path class="st12" d="M577.9,205.3c0.8,0.3,1.7,0.5,2.6,0.5c0.9,0.2,1.8,0.2,2.7,0c-0.8-0.3-1.7-0.5-2.6-0.5
				C579.7,205.2,578.8,205.2,577.9,205.3z"/>
			<path class="st4" d="M559,189.8c-0.1-0.1-0.2-0.2-0.3-0.3l-0.8-0.8c-0.4-0.4-0.8-0.9-1.2-1.3l-0.7-0.9c-0.1-0.2-0.2-0.3-0.4-0.5
				c-0.1-0.2-0.2-0.3-0.3-0.5c-0.5-0.8-1-1.6-1.4-2.4c-0.2-0.5-0.5-0.9-0.7-1.4l-0.6-1.5c-0.8-2.3-1.2-4.8-1.2-7.3s0.5-4.9,1.4-7.2
				c0.2-0.5,0.4-1.1,0.6-1.6l0.7-1.4c0.1-0.2,0.2-0.4,0.3-0.7l0.4-0.6l0.7-1.1c0.8-1.1,1.6-2.2,2.5-3.2l0.8-0.8
				c0.1-0.1,0.2-0.2,0.2-0.3c-0.1,0.1-0.2,0.2-0.3,0.2l-0.8,0.8c-1,1-1.9,2-2.6,3.2l-0.8,1.1c-0.1,0.2-0.3,0.4-0.4,0.6l-0.3,0.7
				c-0.2,0.5-0.5,0.9-0.7,1.4s-0.4,1-0.6,1.6c-0.9,2.4-1.4,4.8-1.4,7.4c0,2.5,0.4,5,1.2,7.4l0.6,1.6c0.2,0.5,0.5,1,0.7,1.4
				c0.4,0.8,0.9,1.7,1.5,2.4c0.1,0.2,0.2,0.4,0.4,0.5l0.4,0.5l0.7,0.9c0.4,0.5,0.8,0.9,1.2,1.3l0.8,0.8
				C558.8,189.7,558.9,189.8,559,189.8z"/>
			<path class="st4" d="M565.6,185.1c-1-1-1.8-2-2.5-3.2c-0.2-0.3-0.3-0.5-0.5-0.8l-0.5-1c-0.1-0.2-0.2-0.3-0.2-0.5l-0.2-0.5
				c-0.1-0.4-0.3-0.8-0.4-1.1c-0.5-1.7-0.7-3.5-0.7-5.3s0.3-3.6,0.8-5.3c0.1-0.4,0.2-0.8,0.4-1.1s0.3-0.7,0.5-1
				c0.3-0.6,0.6-1.2,1-1.8c0.3-0.5,0.6-0.9,1-1.4c0.2-0.4,0.5-0.7,0.8-1s0.5-0.5,0.7-0.8c-0.3,0.2-0.6,0.5-0.8,0.7
				c-0.3,0.3-0.6,0.6-0.9,1c-0.4,0.4-0.7,0.9-1,1.4c-0.4,0.6-0.7,1.2-1,1.8c-0.2,0.4-0.3,0.7-0.5,1.1s-0.3,0.8-0.4,1.2
				c-0.5,1.7-0.8,3.6-0.8,5.4s0.3,3.7,0.8,5.4c0.1,0.4,0.3,0.8,0.4,1.2l0.2,0.5c0.1,0.2,0.2,0.4,0.2,0.5c0.2,0.3,0.3,0.7,0.5,1
				s0.4,0.6,0.5,0.9c0.2,0.3,0.3,0.5,0.5,0.8s0.3,0.4,0.5,0.6l0.5,0.5l0.4,0.4C565.1,184.6,565.4,184.9,565.6,185.1z"/>
			<path class="st4" d="M571.9,179.8c-0.5-0.6-0.9-1.2-1.3-1.9c-0.9-1.7-1.4-3.5-1.4-5.4c-0.1-1.9,0.4-3.7,1.3-5.4
				c0.7-1.2,1.4-1.8,1.4-1.9s-0.2,0.1-0.5,0.4c-0.2,0.2-0.4,0.3-0.5,0.5c-0.2,0.3-0.4,0.5-0.6,0.8c-1,1.7-1.5,3.6-1.4,5.5
				c0,1.9,0.5,3.8,1.5,5.5c0.1,0.1,0.2,0.3,0.3,0.5l0.3,0.4c0.1,0.2,0.3,0.4,0.5,0.6C571.8,179.7,571.9,179.8,571.9,179.8z"/>
			<path class="st4" d="M566.4,214.4c0,0.3,0,0.5,0,0.8c0,0.6,0,1.3,0,2.2c0,2-0.1,4.8-0.2,8.2c-0.2,7-0.4,16.6-0.7,27.2
				s-0.4,20.2-0.4,27.2c0,3.4,0,6.2,0,8.2v2.2c0,0.3,0,0.5,0,0.8c0-0.3-0.1-0.5-0.1-0.8c0-0.6-0.1-1.3-0.1-2.2
				c-0.1-1.9-0.1-4.8-0.2-8.2c-0.1-7,0-16.6,0.2-27.2s0.6-20.2,0.8-27.2c0.1-3.4,0.2-6.2,0.3-8.2c0-0.9,0.1-1.7,0.1-2.2
				C566.3,214.9,566.3,214.7,566.4,214.4z"/>
		</g>
	</g>
</g>
<g id="freepik--character-1--inject-53">
	
		<image style="overflow:visible;opacity:0.2;enable-background:new    ;" width="258" height="552" xlink:href="6A22CEF5.png"  transform="matrix(1 0 0 1 26 53.0714)">
	</image>
	<g>
		<g>
			<path class="st14" d="M171.8,164l3.7,3.5l5.4-5.2l1.5-3.9l6.8-6.1c0.1,1.3,0.1,2.6,0,3.9l3.9,7.4v13.9l3.9,7.5l-13.3,6.1
				l-4.3-10.8c-2.3-1.4-4.5-3.1-6.3-5.1c-2.2-2.6-4.4-11.9-4.4-11.9C169.7,162.9,171,163.2,171.8,164z"/>
			<path class="st2" d="M183.2,167c0.4-0.3,0.5-0.9,0.4-1.4l-2-7.3l-6.1-19.6c-0.2-0.7-1-1.1-1.7-0.9c-0.2,0.1-0.4,0.2-0.5,0.3
				l-8.4,7.4c-0.4,0.4-0.6,0.9-0.4,1.5l8.5,26.6c0.2,0.7,1,1.1,1.8,0.9c0.2-0.1,0.4-0.2,0.5-0.3L183.2,167z"/>
			<path class="st4" d="M182.1,166.4c0.3-0.3,0.5-0.8,0.4-1.3l-1.9-6.8l-5.6-18.4c-0.2-0.7-0.9-1-1.6-0.8c-0.1,0-0.3,0.1-0.4,0.2
				l-7.7,6.8c-0.4,0.3-0.5,0.9-0.4,1.3l8.3,25.1c0.2,0.7,0.9,1,1.6,0.8c0.2-0.1,0.3-0.1,0.4-0.2L182.1,166.4z"/>
			<path class="st14" d="M182.4,158.3c0,0-0.8,0.3-2.8,1c-2.4,1-3-0.3-3-0.3l0,0c-0.4-0.9,0.1-1.9,0.9-2.2l4.9-2l-0.1-1
				c0,0-2.5,0.3-4.4,0.3c-3.9,0-2.4-3.4-2.4-3.4l4.5-0.6l-2.3-3.3c-0.9-1-0.8-2.6,0.2-3.5c0.1-0.1,0.1-0.1,0.2-0.1l8.5,7
				c0,0,2.5,1,2.6,2c0.1,1.3,0.1,2.6,0,3.9L182.4,158.3z"/>
			<path class="st15" d="M177.5,159.7c0.6,0.2,1.3,0.2,1.9,0c1.5-0.3,3-0.8,4.4-1.4l0.6-0.3l-0.4-0.1c0.9,1.4,1.5,2.7,2,3.6
				c0.2,0.5,0.6,1,1,1.4c-0.2-0.5-0.4-1.1-0.7-1.5c-0.6-1.3-1.2-2.5-1.9-3.7l-0.1-0.2l-0.2,0.1l-0.6,0.3c-1.4,0.6-2.8,1.1-4.3,1.5
				C178.2,159.5,177.5,159.6,177.5,159.7z"/>
			<path class="st15" d="M182.4,155.1c0.1,0.1,0.4-0.2,1.1-0.4c1.7-0.6,3.5-0.2,4.8,1c0.5,0.5,0.7,0.8,0.8,0.8s-0.1-0.5-0.5-1
				c-1.3-1.5-3.4-2-5.2-1.1C182.6,154.6,182.3,155,182.4,155.1z"/>
			<path class="st15" d="M176.2,150.7c0,0.2,2.4-0.4,5.2-0.5c2.9-0.1,5.2,0.2,5.3,0c-1.7-0.6-3.5-0.8-5.3-0.6
				C179.6,149.6,177.8,150,176.2,150.7z"/>
			<path class="st15" d="M182.2,177.7c0.1,0-0.1-0.8-0.2-2.1c-0.2-3.4,1.3-6.6,4-8.6c1-0.8,1.8-1.1,1.7-1.2
				c-0.7,0.1-1.4,0.4-1.9,0.9c-3,2-4.6,5.5-4.2,9C181.7,176.4,181.9,177.1,182.2,177.7z"/>
			<path class="st14" d="M168.6,187.3l0.4-1c3.9,2.1,5.4,1,11,6.5l10.6,15.8l-11.3-28.5l13.7-2.8c0,0,13.6,25.7,19.7,37.4
				c2.9,5.3,4,11.4,3.1,17.4c-0.8,6.7-8.3,12.1-14.9,11.2c-6.3-0.9-12.4-6.1-16.3-11L171.7,218L168.6,187.3z"/>
			<path class="st12" d="M178.9,178.4c6,15.9,12.3,30.6,19.5,47.9"/>
			<path class="st4" d="M198.4,226.3c-0.1-0.1-0.2-0.3-0.2-0.5c-0.2-0.4-0.4-0.8-0.6-1.4l-2.2-5.1c-1.9-4.3-4.4-10.2-7.1-16.9
				s-5.1-12.6-6.8-17c-0.8-2.2-1.5-4-1.9-5.2c-0.2-0.6-0.4-1-0.5-1.4c-0.1-0.2-0.1-0.3-0.1-0.5c0.1,0.1,0.2,0.3,0.2,0.5
				c0.1,0.4,0.3,0.8,0.6,1.4l2.1,5.1c1.7,4.3,4.2,10.3,6.9,16.9s5.1,12.5,7,16.9l2.1,5.1l0.5,1.4
				C198.4,225.9,198.4,226.1,198.4,226.3z"/>
			<path class="st4" d="M146.1,110.2c1.2-1.9,3.5-2.9,5.7-2.3c2.8-1.9,6.6-1.5,9,0.8c2-1,4.5-0.9,6.4,0.3c1.9,1.3,3,3.4,3,5.7
				c2.3-0.2,4.5,1.1,5.4,3.3c0.9,2.2,0.3,4.6-1.4,6.2c2.7,1.2,3.9,4.2,2.7,6.9c-1,2.2-3.3,3.5-5.6,3.1l-24.7-17.9
				C145.2,114.7,145,112.2,146.1,110.2z"/>
			<path class="st14" d="M172.1,135.1c-0.1-11.6-9-21.1-20.5-22l-1.1-0.1c-12.4-0.2-17.1,11-16.9,23.4l-2.2,46.1l0,0l18.4,18.4
				l6.7-12.3l2.3-12.2c0,0,12-1,13-12.9C172.1,157.8,172.1,145.9,172.1,135.1z"/>
			<path class="st15" d="M158.7,176.4c-5.5-0.4-10.8-2.4-15.2-5.7c0,0,2.6,9.1,14.5,8.9L158.7,176.4z"/>
			<path class="st4" d="M167.8,145.1c0,0.9-0.8,1.6-1.8,1.6c-0.9,0-1.6-0.7-1.6-1.6c0,0,0,0,0-0.1c0.1-0.9,0.8-1.6,1.8-1.6
				C167.1,143.4,167.8,144.2,167.8,145.1L167.8,145.1z"/>
			<path class="st4" d="M169.2,141.3c-0.2,0.2-1.4-0.8-3.3-1s-3.2,0.7-3.4,0.5s0.1-0.5,0.8-0.9c0.8-0.5,1.8-0.7,2.8-0.6
				c0.9,0.1,1.8,0.4,2.6,1C169.1,140.8,169.3,141.3,169.2,141.3z"/>
			<path class="st4" d="M152.2,144.3c-0.1,0.9-0.8,1.6-1.8,1.6c-0.9,0-1.6-0.7-1.6-1.6c0,0,0,0,0-0.1c0.1-0.9,0.8-1.6,1.8-1.6
				C151.4,142.6,152.2,143.3,152.2,144.3L152.2,144.3z"/>
			<path class="st4" d="M151.8,139.8c-0.2,0.2-1.4-0.8-3.3-1s-3.2,0.7-3.4,0.5s0.1-0.5,0.8-0.9c0.8-0.5,1.8-0.7,2.8-0.6
				c0.9,0.1,1.8,0.4,2.6,1C151.7,139.3,151.9,139.8,151.8,139.8z"/>
			<path class="st4" d="M156.8,153.8c1-0.2,2-0.3,3-0.3c0.5,0,0.9-0.1,1-0.4c0.1-0.5,0-1-0.2-1.4l-1.1-3.6c-1.6-5.2-2.6-9.5-2.4-9.5
				s1.6,4.1,3.2,9.3c0.4,1.3,0.7,2.5,1.1,3.7c0.3,0.6,0.3,1.2,0.1,1.9c-0.2,0.3-0.5,0.6-0.8,0.6s-0.5,0-0.8,0
				C158.8,154.1,157.8,154,156.8,153.8z"/>
			<path class="st4" d="M151.4,154.7c0.3,0,0.2,2,1.8,3.5s3.7,1.5,3.7,1.7s-0.5,0.4-1.4,0.3c-1.2-0.1-2.3-0.5-3.1-1.4
				c-0.8-0.8-1.3-1.8-1.3-2.9C151,155.2,151.2,154.7,151.4,154.7z"/>
			<path class="st4" d="M152.2,134.6c-0.2,0.5-1.8-0.1-3.7-0.2s-3.5,0.2-3.7-0.3c-0.1-0.2,0.3-0.6,1-1c1.8-0.9,3.9-0.7,5.6,0.4
				C152,133.9,152.3,134.4,152.2,134.6z"/>
			<path class="st4" d="M169.1,136.3c-0.3,0.4-1.6,0-3.1,0s-2.8,0.3-3.1-0.1c-0.1-0.2,0.1-0.6,0.6-1c1.5-1,3.5-1,5,0.1
				C169.1,135.7,169.3,136.1,169.1,136.3z"/>
			<path class="st4" d="M171.3,129.5c0,0-2.6-7.7-6-9.7c-4.2-2.4-6.4,2.2-10.4,0.8c-4-1.5-8-3.8-12.5-0.9c-4.9,3.2-2.9,5.8-3.5,11.1
				c-2.7,21.3-7,27.1-7.4,17c0-1.1-3-2.2-3.1-6.9c-0.1-6.1,0.1-13.5,1.8-17.7c1.4-3.5,3.6-5.9,7.5-8.4c6.1-4,14.1-3.5,19.5-2.5
				S172.5,120.2,171.3,129.5z"/>
			<path class="st14" d="M133.7,147.6c0.1-1.8-1.3-3.3-3.1-3.4c-0.1,0-0.1,0-0.2,0c-2.2,0-4.8,1.1-5,5.7c-0.3,8.2,7.9,6.8,7.9,6.6
				S133.6,151,133.7,147.6z"/>
			<path class="st15" d="M131.7,153.4c0,0-0.1,0.1-0.4,0.2c-0.3,0.1-0.7,0.1-1,0c-0.9-0.4-1.5-1.8-1.5-3.2c0-0.7,0.2-1.4,0.5-2
				c0.2-0.5,0.6-0.9,1.1-1c0.3-0.1,0.7,0.1,0.8,0.4c0.1,0.2,0,0.4,0.1,0.4s0.2-0.1,0.1-0.5c0-0.2-0.1-0.4-0.3-0.5
				c-0.2-0.2-0.5-0.3-0.8-0.2c-0.7,0.1-1.3,0.6-1.5,1.2c-0.4,0.7-0.6,1.5-0.6,2.3c0,1.6,0.8,3.2,1.9,3.6c0.4,0.2,0.9,0.1,1.3-0.2
				C131.7,153.6,131.8,153.4,131.7,153.4z"/>
			<path class="st4" d="M133.5,131.7c0.9,0.9,2.1,1.5,3.3,1.8c1.3,0.3,2.6-0.4,3.1-1.7c0.1-0.6,0.1-1.2,0.4-1.6
				c0.4-0.4,1.3-0.3,2-0.1c2.4,0.4,4.8-1,5.6-3.4c0.7,0.9,1.9,1.1,2.9,0.5c0.9-0.6,1.7-1.4,2.4-2.2c0.7-0.8,1.8-1.3,2.9-1.2
				c0.6,0.2,1.1,0.4,1.7,0.5c1.1,0,1.7-1.2,1.9-2.3s0.4-2.3,1.4-2.8c0.9-0.5,1.9-0.1,2.9,0.1s2.2,0.1,2.6-0.9c0.1-0.5,0-1.1-0.3-1.5
				c-1.2-2.1-3.7-3.1-6.1-2.4c-0.8-3.8-4.6-6.3-8.4-5.5c-1.9,0.4-3.6,1.6-4.6,3.2c-2.8-2.9-7.3-3-10.2-0.2c-0.6,0.6-1.1,1.3-1.5,2.1
				c-2-0.6-4.2-0.1-5.6,1.5c-1.4,1.6-1.7,3.8-0.9,5.8c-1.6,0.7-2.7,2.1-3,3.8c-0.2,1.7,1.4,3.5,3,3.2c-0.8,1.3-0.4,3,0.9,3.9
				c1.3,0.8,3,0.5,3.9-0.6"/>
			<path class="st9" d="M128.5,128.2c-0.1,0.6,0,1.2,0.4,1.6c0.4,0.5,0.9,0.9,1.6,1.1c0.8,0.2,1.7,0,2.4-0.5l-0.3-0.1
				c0.4,0.8,0.9,1.5,1.5,2.1c0.4,0.4,0.9,0.8,1.4,1c1.4,0.6,3,0.2,4-0.9c0.4-0.5,0.6-1.1,0.8-1.6c0.1-0.2,0.1-0.4,0.1-0.7
				c-0.1,0.2-0.2,0.4-0.3,0.6c-0.2,0.5-0.5,1-0.9,1.5c-1.3,1.3-3.4,1.3-4.7,0c-0.1-0.1-0.2-0.2-0.2-0.2c-0.6-0.6-1-1.3-1.4-2
				l-0.1-0.3l-0.2,0.2c-0.6,0.4-1.3,0.6-2,0.5c-0.6-0.1-1.1-0.4-1.4-0.9C128.8,129.2,128.6,128.7,128.5,128.2z"/>
			<path class="st9" d="M145.2,110.7c0.2,0.1,0.4,0.2,0.6,0.3c0.5,0.3,0.9,0.7,1.2,1.2l0.1,0.2l0.1-0.1c1.1-1.3,2.5-2.3,4.1-2.9
				c1-0.4,2.1-0.5,3.2-0.5c1.2,0.1,2.4,0.5,3.4,1.2c0.8,0.6,1.4,1.3,1.9,2.1c0.4,0.8,0.7,1.6,0.7,2.5v0.3h0.2c1.2-0.2,2.4,0,3.3,0.7
				c0.8,0.5,1.4,1.3,1.7,2.1s0.4,1.6,0.3,2.5c0.1-0.2,0.1-0.4,0.1-0.7c0.1-0.6,0-1.3-0.2-1.9c-0.3-0.9-0.9-1.8-1.8-2.3
				c-1.1-0.7-2.4-1-3.6-0.8l0.3,0.2c0-1-0.3-1.9-0.8-2.7c-0.5-0.9-1.2-1.7-2-2.2c-1.1-0.8-2.3-1.2-3.6-1.3c-1.2-0.1-2.3,0.1-3.4,0.5
				c-1.7,0.6-3.1,1.7-4.2,3.1h0.2c-0.3-0.5-0.8-0.9-1.4-1.2C145.6,110.7,145.4,110.7,145.2,110.7z"/>
			<path class="st9" d="M174.6,484.1l-0.8,22.2c0,0,22.3,8.3,22.5,12.4l-43.1-0.1l-0.1-34.7L174.6,484.1z"/>
			<path class="st2" d="M160.4,504.4c-0.9,0.3-1.4,1.1-1.2,2s1.1,1.4,2,1.2c0.9-0.3,1.5-1.2,1.3-2.1c-0.3-0.9-1.3-1.4-2.2-1"/>
			<path class="st4" d="M153.2,518.6l0.1-3.5l41.3,1.4c0,0,1.9,0.8,1.7,2.2L153.2,518.6z"/>
			<path class="st1" d="M174.5,506.1c0,0.2-1.1,0.3-2.1,1s-1.6,1.6-1.8,1.5s0.1-1.3,1.4-2.1C173.2,505.6,174.5,505.9,174.5,506.1z"
				/>
			<path class="st1" d="M179,507.9c0.1,0.2-0.9,0.6-1.6,1.5s-0.9,1.8-1.1,1.8c-0.2,0-0.3-1.2,0.6-2.3S179,507.7,179,507.9z"/>
			<path class="st1" d="M181.5,513.4c-0.2,0-0.5-1,0.1-2.2c0.6-1.2,1.5-1.6,1.6-1.4s-0.5,0.8-1,1.8
				C181.7,512.5,181.8,513.3,181.5,513.4z"/>
			<path class="st1" d="M174.1,501c-0.1,0.2-1.1-0.1-2.2,0c-1.2,0.1-2.1,0.5-2.2,0.3c-0.1-0.2,0.8-0.9,2.2-1S174.2,500.8,174.1,501z
				"/>
			<path class="st9" d="M122.9,485.4l-1.2,26.9l5.2,21.5c0.4,1.5-0.5,3-2,3.3c-0.1,0-0.1,0-0.2,0l0,0c-0.9,0.2-1.8-0.1-2.4-0.8
				c-4-4-18.3-19.1-18.4-20.5c-0.1-2.3-0.8-28.7-0.8-28.7L122.9,485.4z"/>
			<path class="st4" d="M124.6,537.2l-20.9-23.4v1.1c0,1,0.3,1.9,0.9,2.7c1.7,2,6.4,7.6,17.5,18.8
				C122.8,537.1,123.8,537.4,124.6,537.2L124.6,537.2z"/>
			<g class="st16">
				<path class="st1" d="M109.4,505.2c0.7,0.5,0.9,1.5,0.4,2.2s-1.4,0.9-2.2,0.4c-0.7-0.6-0.9-1.6-0.4-2.3c0.6-0.7,1.6-0.8,2.3-0.2"
					/>
			</g>
			<path class="st1" d="M118.7,525.3c0.7-0.8,1.5-1.5,2.4-2c1-0.4,2-0.5,3.1-0.5c0-0.1-0.3-0.3-0.9-0.4c-0.8-0.1-1.7,0-2.4,0.4
				c-0.8,0.4-1.4,0.9-1.8,1.6C118.7,524.9,118.7,525.3,118.7,525.3z"/>
			<path class="st1" d="M120.6,528.9c0.8-0.4,1.6-0.8,2.4-1.1c0.9-0.1,1.7-0.2,2.6-0.3c-0.8-0.5-1.9-0.6-2.8-0.3
				C121.2,527.7,120.4,528.9,120.6,528.9z"/>
			<path class="st1" d="M115.3,520.6c0.1,0.1,1.5-1.2,3.6-2s4-0.7,4-0.8C120,517.2,117,518.2,115.3,520.6L115.3,520.6z"/>
			<path class="st1" d="M115,512.4c0.1,0.2,1.6-0.4,3.5-0.5s3.4,0.5,3.5,0.3C119.8,511,117.2,511.1,115,512.4L115,512.4z"/>
			<path class="st1" d="M115.1,504.5c1.2-0.4,2.4-0.6,3.6-0.6c1.2,0.2,2.4,0.5,3.5,1c0-0.1-0.2-0.4-0.8-0.8
				c-0.8-0.5-1.7-0.7-2.7-0.8c-0.9-0.1-1.9,0.1-2.7,0.5C115.4,504.1,115.1,504.5,115.1,504.5z"/>
			<path class="st1" d="M118.7,502.4c0.1-0.3,0.1-0.7,0.1-1c-0.1-0.9-0.3-1.8-0.8-2.7c-0.3-0.6-0.7-1.2-1.3-1.5
				c-0.4-0.2-0.9-0.1-1.2,0.2c-0.3,0.3-0.5,0.8-0.4,1.2c0.1,1.9,1.5,3.4,3.3,3.7c1.8,0.2,3.6-0.7,4.5-2.3c0.2-0.4,0.3-0.9,0.1-1.3
				c-0.2-0.4-0.7-0.7-1.1-0.6c-0.7,0.1-1.3,0.4-1.8,0.9c-0.7,0.6-1.4,1.3-1.9,2c-0.2,0.3-0.4,0.6-0.4,0.9c0.7-1,1.6-1.9,2.6-2.6
				c0.5-0.4,1-0.6,1.6-0.7c0.3,0,0.5,0.1,0.6,0.3c0.1,0.3,0,0.6-0.1,0.9c-0.8,1.4-2.3,2.1-3.9,1.9c-1.6-0.2-2.8-1.5-2.9-3.1
				c0-0.3,0.1-0.6,0.3-0.9c0.2-0.2,0.5-0.2,0.7-0.1c0.5,0.3,0.9,0.7,1.1,1.3C118.2,500,118.6,501.2,118.7,502.4z"/>
			<path class="st4" d="M187.9,298.3c2.5,9.1,3.6,18.6,3.3,28c-0.2,6-13.3,171.8-13.3,171.8l-27.2,1.2l1.1-155.4l-2.2,0.6
				c0,0-12,66.7-12.8,77.5c-0.7,9.7-10.2,80.1-10.2,80.1l-24.7-0.7l3.9-90.8l5.5-89.1l2.4-26L187.9,298.3z"/>
			<path class="st9" d="M146.8,328.2c0.4,0.2,0.7,0.4,1.2,0.6c1.1,0.5,2.2,0.8,3.4,1c0.8,0.1,1.7,0.1,2.5-0.1c1-0.2,1.9-0.7,2.6-1.4
				c0.7-0.8,1.2-1.8,1.5-2.8c0.3-1.1,0.4-2.2,0.6-3.3c0.7-4.5,1.1-8.6,1.3-11.6c0.1-1.5,0.2-2.7,0.2-3.5c0.1-0.4,0.1-0.9,0-1.3
				c-0.1,0.4-0.2,0.8-0.2,1.3c-0.1,1-0.2,2.1-0.4,3.5c-0.3,3-0.8,7.1-1.5,11.6c-0.4,2.2-0.6,4.5-1.9,5.9c-1.3,1.1-3,1.7-4.6,1.4
				c-1.2-0.1-2.3-0.4-3.4-0.8C147.6,328.4,147.2,328.3,146.8,328.2z"/>
			<path class="st9" d="M154,306.8c0,0-0.2-0.1-0.6-0.1c-0.5,0-1.1,0.2-1.5,0.5c-0.7,0.5-1.1,1.3-1.1,2.1c0.2,1.5,1.5,2.5,3,2.4
				c0.6-0.1,1.3-0.4,1.7-0.9c0.5-0.7,0.7-1.5,0.4-2.4c-0.1-0.5-0.4-1-0.9-1.3c-0.3-0.2-0.5-0.2-0.5-0.2c0.5,0.4,0.9,1,1,1.6
				c0.1,0.7,0,1.4-0.4,1.9c-0.9,0.9-2.3,0.8-3.1,0c-0.3-0.3-0.5-0.7-0.6-1.2c0-0.7,0.3-1.3,0.8-1.8
				C152.7,307.1,153.3,306.9,154,306.8z"/>
			<path class="st9" d="M111.5,319.8c0.3,0.1,0.6,0.1,0.9,0.1c0.9,0,1.7,0,2.6-0.1c5.7-0.6,11-3.1,15-7.1c0.6-0.6,1.2-1.2,1.7-1.9
				c0.2-0.2,0.4-0.5,0.5-0.8c-0.1-0.1-0.9,1-2.5,2.4c-4.1,3.8-9.2,6.2-14.8,7C112.8,319.7,111.5,319.7,111.5,319.8z"/>
			<path class="st4" d="M123.3,295.5c0.2,0.1,0.4,0.2,0.6,0.3l1.6,0.6c1.4,0.6,3.5,1.3,6,2.1s5.6,1.7,9.1,2.6s7.3,1.6,11.4,2.3
				s8,1,11.5,1.3s6.8,0.3,9.4,0.3s4.9-0.1,6.4-0.2l1.7-0.1c0.2,0,0.4,0,0.6-0.1c-0.2,0-0.4,0-0.6,0h-1.7c-1.5,0-3.7,0.1-6.4,0
				s-5.9-0.2-9.4-0.4s-7.4-0.7-11.4-1.3s-7.9-1.4-11.3-2.2s-6.5-1.7-9.1-2.5s-4.6-1.5-6.1-2l-1.6-0.6
				C123.7,295.5,123.5,295.5,123.3,295.5z"/>
			<path class="st5" d="M184.9,261c-2.4-20.9-4.8-41.8-7.1-62.7"/>
			<path class="st4" d="M177.7,198.3c0.1,0,1.9,14,3.8,31.3c2,17.3,3.4,31.4,3.3,31.4c-0.1,0-1.9-14-3.8-31.3
				C179.1,212.4,177.6,198.3,177.7,198.3z"/>
			<path class="st14" d="M103.7,261c0,0,12.1-40.9,13.7-45.6l-1.7-28.2c-5.1,0.7-15.2,2.2-17.8,10.3c-3.3,10.2-12.2,39.2-17.4,54.9
				c-1.7,5.5-1.4,11.4,0.9,16.7c3,6.9,28.6,44,28.6,44l12.3-8C122.3,305.2,112.5,280.7,103.7,261z"/>
			<path class="st14" d="M137.5,313.6c-0.4-0.1-3.3-0.6-5-2.4c-2.3-2.2-5-4-7.9-5.5l-2.4-0.8l-12.2,8.2l1.9,10
				c3.6,0.5,7.2-0.2,10.4-1.8c3.1-1.6,5.5-4.2,6.6-7.5c0,0,3.9,2.6,6.4,3s4.1-0.7,3.8-1.7S137.5,313.6,137.5,313.6z"/>
			<g id="shirt">
				<path class="st7" d="M170,185.1l-12.8-2.2c0,0-0.7,5.8-9.3,5.9c-10,0.2-17-9-17-9s-22.1,6.9-26.5,10.4s9.9,76.9,9.9,76.9
					l1.3,21.9c-1.3,2.2-2,4.8-2.1,7.3c0,3.8-0.1,6.3-0.1,6.3c26.6,8,53,15,77.2,7.2c0,0-0.6-12.9-2-16.4s-1.1-3.8-1.1-3.8l-4-38.2
					l-3.8-37.2L170,185.1z"/>
				<path class="st7" d="M170,185.1c0,0,6.3,2.1,10,6.3s11.8,19.1,11.8,19.1l-7.1,24.5l-10.2-5.3L170,185.1z"/>
				<path class="st7" d="M85.9,227.3l28.7,14.2l7.9-25.2l-6.5-30c0,0-14.5,0.5-19.2,12.4C92.1,210.5,85.9,227.3,85.9,227.3z"/>
			</g>
			<path class="st4" d="M122.5,215c0,0.2-0.1,0.4-0.1,0.5c-0.1,0.4-0.3,0.9-0.5,1.5l-1.9,5.5l-6.4,18.4l-0.1,0.3l-0.3-0.1l-1.4-0.7
				l-18.4-9.2l-5.6-2.8l-1.5-0.8c-0.2-0.1-0.4-0.2-0.5-0.3c0.2,0,0.4,0.1,0.6,0.2l1.5,0.7l5.6,2.7l18.5,9l1.4,0.7l-0.4,0.1
				c2.6-7.2,4.8-13.6,6.5-18.4c0.8-2.3,1.5-4.1,2-5.5c0.2-0.6,0.4-1.1,0.6-1.5C122.3,215.3,122.4,215.1,122.5,215z"/>
			<path class="st4" d="M122.5,197.3c-0.1,0.1-0.8-0.7-2.2-1.7c-1.8-1.3-3.7-2.3-5.8-3.1c-2.1-0.7-4.2-1.2-6.4-1.3
				c-1.7-0.1-2.7,0-2.7-0.1c0.2-0.1,0.5-0.1,0.7-0.1c0.7-0.1,1.3-0.1,2-0.1c2.2,0,4.5,0.5,6.6,1.2c2.1,0.8,4.1,1.9,5.8,3.3
				c0.5,0.4,1,0.9,1.5,1.4C122.2,196.9,122.4,197.1,122.5,197.3z"/>
		</g>
	</g>
</g>
</svg>
